  0
SECTION
  2
ENTITIES
  0
3DFACE
  8
2/head
 10
0.099188
 20
0.141421
 30
1.500812
 11
0.000000
 21
0.200000
 31
1.600000
 12
0.141421
 22
0.141421
 32
1.600000
 13
0.141421
 23
0.141421
 33
1.600000
  0
3DFACE
  8
2/head
 10
0.099188
 20
0.141421
 30
1.500812
 11
0.141421
 21
0.141421
 31
1.600000
 12
0.200000
 22
0.000000
 32
1.600000
 13
0.200000
 23
0.000000
 33
1.600000
  0
3DFACE
  8
2/head
 10
0.200000
 20
0.000000
 30
1.600000
 11
0.141421
 21
0.000000
 31
1.458579
 12
0.099188
 22
0.141421
 32
1.500812
 13
0.099188
 23
0.141421
 33
1.500812
  0
3DFACE
  8
2/head
 10
0.141421
 20
0.000000
 30
1.458579
 11
0.200000
 21
0.000000
 31
1.600000
 12
0.141421
 22
-0.141421
 32
1.600000
 13
0.141421
 23
-0.141421
 33
1.600000
  0
3DFACE
  8
2/head
 10
0.141421
 20
-0.141421
 30
1.600000
 11
0.099188
 21
-0.141421
 31
1.500812
 12
0.141421
 22
0.000000
 32
1.458579
 13
0.141421
 23
0.000000
 33
1.458579
  0
3DFACE
  8
2/head
 10
0.000000
 20
-0.200000
 30
1.600000
 11
0.099188
 21
-0.141421
 31
1.500812
 12
0.141421
 22
-0.141421
 32
1.600000
 13
0.141421
 23
-0.141421
 33
1.600000
  0
3DFACE
  8
2/head
 10
0.000000
 20
0.141421
 30
1.458579
 11
0.000000
 21
0.200000
 31
1.600000
 12
0.099188
 22
0.141421
 32
1.500812
 13
0.099188
 23
0.141421
 33
1.500812
  0
3DFACE
  8
2/head
 10
0.000000
 20
0.141421
 30
1.458579
 11
0.099188
 21
0.141421
 31
1.500812
 12
0.141421
 22
0.000000
 32
1.458579
 13
0.141421
 23
0.000000
 33
1.458579
  0
3DFACE
  8
2/head
 10
0.141421
 20
0.000000
 30
1.458579
 11
0.000000
 21
0.000000
 31
1.400000
 12
0.000000
 22
0.141421
 32
1.458579
 13
0.000000
 23
0.141421
 33
1.458579
  0
3DFACE
  8
2/head
 10
0.000000
 20
0.000000
 30
1.400000
 11
0.141421
 21
0.000000
 31
1.458579
 12
0.099188
 22
-0.141421
 32
1.500812
 13
0.099188
 23
-0.141421
 33
1.500812
  0
3DFACE
  8
2/head
 10
0.099188
 20
-0.141421
 30
1.500812
 11
0.000000
 21
-0.141421
 31
1.458579
 12
0.000000
 22
0.000000
 32
1.400000
 13
0.000000
 23
0.000000
 33
1.400000
  0
3DFACE
  8
2/head
 10
0.000000
 20
-0.200000
 30
1.600000
 11
0.000000
 21
-0.141421
 31
1.458579
 12
0.099188
 22
-0.141421
 32
1.500812
 13
0.099188
 23
-0.141421
 33
1.500812
  0
3DFACE
  8
2/head
 10
-0.099188
 20
0.141421
 30
1.500812
 11
0.000000
 21
0.200000
 31
1.600000
 12
0.000000
 22
0.141421
 32
1.458579
 13
0.000000
 23
0.141421
 33
1.458579
  0
3DFACE
  8
2/head
 10
-0.099188
 20
0.141421
 30
1.500812
 11
0.000000
 21
0.141421
 31
1.458579
 12
0.000000
 22
0.000000
 32
1.400000
 13
0.000000
 23
0.000000
 33
1.400000
  0
3DFACE
  8
2/head
 10
0.000000
 20
0.000000
 30
1.400000
 11
-0.141421
 21
0.000000
 31
1.458579
 12
-0.099188
 22
0.141421
 32
1.500812
 13
-0.099188
 23
0.141421
 33
1.500812
  0
3DFACE
  8
2/head
 10
-0.141421
 20
0.000000
 30
1.458579
 11
0.000000
 21
0.000000
 31
1.400000
 12
0.000000
 22
-0.141421
 32
1.458579
 13
0.000000
 23
-0.141421
 33
1.458579
  0
3DFACE
  8
2/head
 10
0.000000
 20
-0.141421
 30
1.458579
 11
-0.099188
 21
-0.141421
 31
1.500812
 12
-0.141421
 22
0.000000
 32
1.458579
 13
-0.141421
 23
0.000000
 33
1.458579
  0
3DFACE
  8
2/head
 10
0.000000
 20
-0.200000
 30
1.600000
 11
-0.099188
 21
-0.141421
 31
1.500812
 12
0.000000
 22
-0.141421
 32
1.458579
 13
0.000000
 23
-0.141421
 33
1.458579
  0
3DFACE
  8
2/head
 10
-0.141421
 20
0.141421
 30
1.600000
 11
0.000000
 21
0.200000
 31
1.600000
 12
-0.099188
 22
0.141421
 32
1.500812
 13
-0.099188
 23
0.141421
 33
1.500812
  0
3DFACE
  8
2/head
 10
-0.141421
 20
0.141421
 30
1.600000
 11
-0.099188
 21
0.141421
 31
1.500812
 12
-0.141421
 22
0.000000
 32
1.458579
 13
-0.141421
 23
0.000000
 33
1.458579
  0
3DFACE
  8
2/head
 10
-0.141421
 20
0.000000
 30
1.458579
 11
-0.200000
 21
0.000000
 31
1.600000
 12
-0.141421
 22
0.141421
 32
1.600000
 13
-0.141421
 23
0.141421
 33
1.600000
  0
3DFACE
  8
2/head
 10
-0.200000
 20
0.000000
 30
1.600000
 11
-0.141421
 21
0.000000
 31
1.458579
 12
-0.099188
 22
-0.141421
 32
1.500812
 13
-0.099188
 23
-0.141421
 33
1.500812
  0
3DFACE
  8
2/head
 10
-0.099188
 20
-0.141421
 30
1.500812
 11
-0.141421
 21
-0.141421
 31
1.600000
 12
-0.200000
 22
0.000000
 32
1.600000
 13
-0.200000
 23
0.000000
 33
1.600000
  0
3DFACE
  8
2/head
 10
0.000000
 20
-0.200000
 30
1.600000
 11
-0.141421
 21
-0.141421
 31
1.600000
 12
-0.099188
 22
-0.141421
 32
1.500812
 13
-0.099188
 23
-0.141421
 33
1.500812
  0
3DFACE
  8
2/head
 10
-0.099188
 20
0.141421
 30
1.699188
 11
0.000000
 21
0.200000
 31
1.600000
 12
-0.141421
 22
0.141421
 32
1.600000
 13
-0.141421
 23
0.141421
 33
1.600000
  0
3DFACE
  8
2/head
 10
-0.099188
 20
0.141421
 30
1.699188
 11
-0.141421
 21
0.141421
 31
1.600000
 12
-0.200000
 22
0.000000
 32
1.600000
 13
-0.200000
 23
0.000000
 33
1.600000
  0
3DFACE
  8
2/head
 10
-0.200000
 20
0.000000
 30
1.600000
 11
-0.141421
 21
0.000000
 31
1.741421
 12
-0.099188
 22
0.141421
 32
1.699188
 13
-0.099188
 23
0.141421
 33
1.699188
  0
3DFACE
  8
2/head
 10
-0.141421
 20
0.000000
 30
1.741421
 11
-0.200000
 21
0.000000
 31
1.600000
 12
-0.141421
 22
-0.141421
 32
1.600000
 13
-0.141421
 23
-0.141421
 33
1.600000
  0
3DFACE
  8
2/head
 10
-0.141421
 20
-0.141421
 30
1.600000
 11
-0.099188
 21
-0.141421
 31
1.699188
 12
-0.141421
 22
0.000000
 32
1.741421
 13
-0.141421
 23
0.000000
 33
1.741421
  0
3DFACE
  8
2/head
 10
0.000000
 20
-0.200000
 30
1.600000
 11
-0.099188
 21
-0.141421
 31
1.699188
 12
-0.141421
 22
-0.141421
 32
1.600000
 13
-0.141421
 23
-0.141421
 33
1.600000
  0
3DFACE
  8
2/head
 10
0.000000
 20
0.141421
 30
1.741421
 11
0.000000
 21
0.200000
 31
1.600000
 12
-0.099188
 22
0.141421
 32
1.699188
 13
-0.099188
 23
0.141421
 33
1.699188
  0
3DFACE
  8
2/head
 10
0.000000
 20
0.141421
 30
1.741421
 11
-0.099188
 21
0.141421
 31
1.699188
 12
-0.141421
 22
0.000000
 32
1.741421
 13
-0.141421
 23
0.000000
 33
1.741421
  0
3DFACE
  8
2/head
 10
-0.141421
 20
0.000000
 30
1.741421
 11
0.000000
 21
0.000000
 31
1.800000
 12
0.000000
 22
0.141421
 32
1.741421
 13
0.000000
 23
0.141421
 33
1.741421
  0
3DFACE
  8
2/head
 10
0.000000
 20
0.000000
 30
1.800000
 11
-0.141421
 21
0.000000
 31
1.741421
 12
-0.099188
 22
-0.141421
 32
1.699188
 13
-0.099188
 23
-0.141421
 33
1.699188
  0
3DFACE
  8
2/head
 10
-0.099188
 20
-0.141421
 30
1.699188
 11
0.000000
 21
-0.141421
 31
1.741421
 12
0.000000
 22
0.000000
 32
1.800000
 13
0.000000
 23
0.000000
 33
1.800000
  0
3DFACE
  8
2/head
 10
0.000000
 20
-0.200000
 30
1.600000
 11
0.000000
 21
-0.141421
 31
1.741421
 12
-0.099188
 22
-0.141421
 32
1.699188
 13
-0.099188
 23
-0.141421
 33
1.699188
  0
3DFACE
  8
2/head
 10
0.099188
 20
0.141421
 30
1.699188
 11
0.000000
 21
0.200000
 31
1.600000
 12
0.000000
 22
0.141421
 32
1.741421
 13
0.000000
 23
0.141421
 33
1.741421
  0
3DFACE
  8
2/head
 10
0.099188
 20
0.141421
 30
1.699188
 11
0.000000
 21
0.141421
 31
1.741421
 12
0.000000
 22
0.000000
 32
1.800000
 13
0.000000
 23
0.000000
 33
1.800000
  0
3DFACE
  8
2/head
 10
0.000000
 20
0.000000
 30
1.800000
 11
0.141421
 21
0.000000
 31
1.741421
 12
0.099188
 22
0.141421
 32
1.699188
 13
0.099188
 23
0.141421
 33
1.699188
  0
3DFACE
  8
2/head
 10
0.141421
 20
0.000000
 30
1.741421
 11
0.000000
 21
0.000000
 31
1.800000
 12
0.000000
 22
-0.141421
 32
1.741421
 13
0.000000
 23
-0.141421
 33
1.741421
  0
3DFACE
  8
2/head
 10
0.000000
 20
-0.141421
 30
1.741421
 11
0.099188
 21
-0.141421
 31
1.699188
 12
0.141421
 22
0.000000
 32
1.741421
 13
0.141421
 23
0.000000
 33
1.741421
  0
3DFACE
  8
2/head
 10
0.000000
 20
-0.200000
 30
1.600000
 11
0.099188
 21
-0.141421
 31
1.699188
 12
0.000000
 22
-0.141421
 32
1.741421
 13
0.000000
 23
-0.141421
 33
1.741421
  0
3DFACE
  8
2/head
 10
0.141421
 20
0.141421
 30
1.600000
 11
0.000000
 21
0.200000
 31
1.600000
 12
0.099188
 22
0.141421
 32
1.699188
 13
0.099188
 23
0.141421
 33
1.699188
  0
3DFACE
  8
2/head
 10
0.141421
 20
0.141421
 30
1.600000
 11
0.099188
 21
0.141421
 31
1.699188
 12
0.141421
 22
0.000000
 32
1.741421
 13
0.141421
 23
0.000000
 33
1.741421
  0
3DFACE
  8
2/head
 10
0.141421
 20
0.000000
 30
1.741421
 11
0.200000
 21
0.000000
 31
1.600000
 12
0.141421
 22
0.141421
 32
1.600000
 13
0.141421
 23
0.141421
 33
1.600000
  0
3DFACE
  8
2/head
 10
0.200000
 20
0.000000
 30
1.600000
 11
0.141421
 21
0.000000
 31
1.741421
 12
0.099188
 22
-0.141421
 32
1.699188
 13
0.099188
 23
-0.141421
 33
1.699188
  0
3DFACE
  8
2/head
 10
0.099188
 20
-0.141421
 30
1.699188
 11
0.141421
 21
-0.141421
 31
1.600000
 12
0.200000
 22
0.000000
 32
1.600000
 13
0.200000
 23
0.000000
 33
1.600000
  0
3DFACE
  8
2/head
 10
0.000000
 20
-0.200000
 30
1.600000
 11
0.141421
 21
-0.141421
 31
1.600000
 12
0.099188
 22
-0.141421
 32
1.699188
 13
0.099188
 23
-0.141421
 33
1.699188
  0
3DFACE
  8
4/body
 10
-0.200000
 20
0.080000
 30
1.400000
 11
-0.200000
 21
0.080000
 31
0.800000
 12
-0.200000
 22
-0.080000
 32
0.800000
 13
-0.200000
 23
-0.080000
 33
0.800000
  0
3DFACE
  8
4/body
 10
-0.200000
 20
-0.080000
 30
1.400000
 11
-0.200000
 21
0.080000
 31
1.400000
 12
-0.200000
 22
-0.080000
 32
0.800000
 13
-0.200000
 23
-0.080000
 33
0.800000
  0
3DFACE
  8
4/body
 10
-0.200000
 20
-0.080000
 30
1.400000
 11
-0.200000
 21
-0.080000
 31
0.800000
 12
0.200000
 22
-0.080000
 32
0.800000
 13
0.200000
 23
-0.080000
 33
0.800000
  0
3DFACE
  8
4/body
 10
0.200000
 20
-0.080000
 30
1.400000
 11
-0.200000
 21
-0.080000
 31
1.400000
 12
0.200000
 22
-0.080000
 32
0.800000
 13
0.200000
 23
-0.080000
 33
0.800000
  0
3DFACE
  8
4/body
 10
-0.200000
 20
0.080000
 30
1.400000
 11
-0.200000
 21
-0.080000
 31
1.400000
 12
0.200000
 22
-0.080000
 32
1.400000
 13
0.200000
 23
-0.080000
 33
1.400000
  0
3DFACE
  8
4/body
 10
0.200000
 20
0.080000
 30
1.400000
 11
-0.200000
 21
0.080000
 31
1.400000
 12
0.200000
 22
-0.080000
 32
1.400000
 13
0.200000
 23
-0.080000
 33
1.400000
  0
3DFACE
  8
4/body
 10
-0.200000
 20
0.080000
 30
0.800000
 11
-0.200000
 21
0.080000
 31
1.400000
 12
0.200000
 22
0.080000
 32
1.400000
 13
0.200000
 23
0.080000
 33
1.400000
  0
3DFACE
  8
4/body
 10
0.200000
 20
0.080000
 30
0.800000
 11
-0.200000
 21
0.080000
 31
0.800000
 12
0.200000
 22
0.080000
 32
1.400000
 13
0.200000
 23
0.080000
 33
1.400000
  0
3DFACE
  8
4/body
 10
-0.200000
 20
-0.080000
 30
0.800000
 11
-0.200000
 21
0.080000
 31
0.800000
 12
0.200000
 22
0.080000
 32
0.800000
 13
0.200000
 23
0.080000
 33
0.800000
  0
3DFACE
  8
4/body
 10
0.200000
 20
-0.080000
 30
0.800000
 11
-0.200000
 21
-0.080000
 31
0.800000
 12
0.200000
 22
0.080000
 32
0.800000
 13
0.200000
 23
0.080000
 33
0.800000
  0
3DFACE
  8
4/body
 10
0.200000
 20
0.080000
 30
1.400000
 11
0.200000
 21
-0.080000
 31
1.400000
 12
0.200000
 22
-0.080000
 32
0.800000
 13
0.200000
 23
-0.080000
 33
0.800000
  0
3DFACE
  8
4/body
 10
0.200000
 20
0.080000
 30
0.800000
 11
0.200000
 21
0.080000
 31
1.400000
 12
0.200000
 22
-0.080000
 32
0.800000
 13
0.200000
 23
-0.080000
 33
0.800000
  0
3DFACE
  8
6/leg11
 10
-0.180000
 20
0.079652
 30
0.792549
 11
-0.180000
 21
0.042400
 31
0.394288
 12
-0.180000
 22
-0.116905
 32
0.409189
 13
-0.180000
 23
-0.116905
 33
0.409189
  0
3DFACE
  8
6/leg11
 10
-0.180000
 20
-0.079652
 30
0.807450
 11
-0.180000
 21
0.079652
 31
0.792549
 12
-0.180000
 22
-0.116905
 32
0.409189
 13
-0.180000
 23
-0.116905
 33
0.409189
  0
3DFACE
  8
6/leg11
 10
-0.180000
 20
-0.079652
 30
0.807450
 11
-0.180000
 21
-0.116905
 31
0.409189
 12
-0.020000
 22
-0.116905
 32
0.409189
 13
-0.020000
 23
-0.116905
 33
0.409189
  0
3DFACE
  8
6/leg11
 10
-0.020000
 20
-0.079652
 30
0.807450
 11
-0.180000
 21
-0.079652
 31
0.807450
 12
-0.020000
 22
-0.116905
 32
0.409189
 13
-0.020000
 23
-0.116905
 33
0.409189
  0
3DFACE
  8
6/leg11
 10
-0.180000
 20
0.079652
 30
0.792549
 11
-0.180000
 21
-0.079652
 31
0.807450
 12
-0.020000
 22
-0.079652
 32
0.807450
 13
-0.020000
 23
-0.079652
 33
0.807450
  0
3DFACE
  8
6/leg11
 10
-0.020000
 20
0.079652
 30
0.792549
 11
-0.180000
 21
0.079652
 31
0.792549
 12
-0.020000
 22
-0.079652
 32
0.807450
 13
-0.020000
 23
-0.079652
 33
0.807450
  0
3DFACE
  8
6/leg11
 10
-0.180000
 20
0.042400
 30
0.394288
 11
-0.180000
 21
0.079652
 31
0.792549
 12
-0.020000
 22
0.079652
 32
0.792549
 13
-0.020000
 23
0.079652
 33
0.792549
  0
3DFACE
  8
6/leg11
 10
-0.020000
 20
0.042400
 30
0.394288
 11
-0.180000
 21
0.042400
 31
0.394288
 12
-0.020000
 22
0.079652
 32
0.792549
 13
-0.020000
 23
0.079652
 33
0.792549
  0
3DFACE
  8
6/leg11
 10
-0.180000
 20
-0.116905
 30
0.409189
 11
-0.180000
 21
0.042400
 31
0.394288
 12
-0.020000
 22
0.042400
 32
0.394288
 13
-0.020000
 23
0.042400
 33
0.394288
  0
3DFACE
  8
6/leg11
 10
-0.020000
 20
-0.116905
 30
0.409189
 11
-0.180000
 21
-0.116905
 31
0.409189
 12
-0.020000
 22
0.042400
 32
0.394288
 13
-0.020000
 23
0.042400
 33
0.394288
  0
3DFACE
  8
6/leg11
 10
-0.020000
 20
0.079652
 30
0.792549
 11
-0.020000
 21
-0.079652
 31
0.807450
 12
-0.020000
 22
-0.116905
 32
0.409189
 13
-0.020000
 23
-0.116905
 33
0.409189
  0
3DFACE
  8
6/leg11
 10
-0.020000
 20
0.042400
 30
0.394288
 11
-0.020000
 21
0.079652
 31
0.792549
 12
-0.020000
 22
-0.116905
 32
0.409189
 13
-0.020000
 23
-0.116905
 33
0.409189
  0
3DFACE
  8
8/leg12
 10
-0.180000
 20
0.042400
 30
0.394288
 11
-0.180000
 21
0.005148
 31
-0.003974
 12
-0.180000
 22
-0.154157
 32
0.010927
 13
-0.180000
 23
-0.154157
 33
0.010927
  0
3DFACE
  8
8/leg12
 10
-0.180000
 20
-0.116905
 30
0.409189
 11
-0.180000
 21
0.042400
 31
0.394288
 12
-0.180000
 22
-0.154157
 32
0.010927
 13
-0.180000
 23
-0.154157
 33
0.010927
  0
3DFACE
  8
8/leg12
 10
-0.180000
 20
-0.116905
 30
0.409189
 11
-0.180000
 21
-0.154157
 31
0.010927
 12
-0.020000
 22
-0.154157
 32
0.010927
 13
-0.020000
 23
-0.154157
 33
0.010927
  0
3DFACE
  8
8/leg12
 10
-0.020000
 20
-0.116905
 30
0.409189
 11
-0.180000
 21
-0.116905
 31
0.409189
 12
-0.020000
 22
-0.154157
 32
0.010927
 13
-0.020000
 23
-0.154157
 33
0.010927
  0
3DFACE
  8
8/leg12
 10
-0.180000
 20
0.042400
 30
0.394288
 11
-0.180000
 21
-0.116905
 31
0.409189
 12
-0.020000
 22
-0.116905
 32
0.409189
 13
-0.020000
 23
-0.116905
 33
0.409189
  0
3DFACE
  8
8/leg12
 10
-0.020000
 20
0.042400
 30
0.394288
 11
-0.180000
 21
0.042400
 31
0.394288
 12
-0.020000
 22
-0.116905
 32
0.409189
 13
-0.020000
 23
-0.116905
 33
0.409189
  0
3DFACE
  8
8/leg12
 10
-0.180000
 20
0.005148
 30
-0.003974
 11
-0.180000
 21
0.042400
 31
0.394288
 12
-0.020000
 22
0.042400
 32
0.394288
 13
-0.020000
 23
0.042400
 33
0.394288
  0
3DFACE
  8
8/leg12
 10
-0.020000
 20
0.005148
 30
-0.003974
 11
-0.180000
 21
0.005148
 31
-0.003974
 12
-0.020000
 22
0.042400
 32
0.394288
 13
-0.020000
 23
0.042400
 33
0.394288
  0
3DFACE
  8
8/leg12
 10
-0.180000
 20
-0.154157
 30
0.010927
 11
-0.180000
 21
0.005148
 31
-0.003974
 12
-0.020000
 22
0.005148
 32
-0.003974
 13
-0.020000
 23
0.005148
 33
-0.003974
  0
3DFACE
  8
8/leg12
 10
-0.020000
 20
-0.154157
 30
0.010927
 11
-0.180000
 21
-0.154157
 31
0.010927
 12
-0.020000
 22
0.005148
 32
-0.003974
 13
-0.020000
 23
0.005148
 33
-0.003974
  0
3DFACE
  8
8/leg12
 10
-0.020000
 20
0.042400
 30
0.394288
 11
-0.020000
 21
-0.116905
 31
0.409189
 12
-0.020000
 22
-0.154157
 32
0.010927
 13
-0.020000
 23
-0.154157
 33
0.010927
  0
3DFACE
  8
8/leg12
 10
-0.020000
 20
0.005148
 30
-0.003974
 11
-0.020000
 21
0.042400
 31
0.394288
 12
-0.020000
 22
-0.154157
 32
0.010927
 13
-0.020000
 23
-0.154157
 33
0.010927
  0
3DFACE
  8
10/leg21
 10
0.180000
 20
0.116905
 30
0.409189
 11
0.180000
 21
0.079652
 31
0.807450
 12
0.180000
 22
-0.042400
 32
0.394288
 13
0.180000
 23
-0.042400
 33
0.394288
  0
3DFACE
  8
10/leg21
 10
0.180000
 20
0.079652
 30
0.807450
 11
0.180000
 21
-0.079652
 31
0.792549
 12
0.180000
 22
-0.042400
 32
0.394288
 13
0.180000
 23
-0.042400
 33
0.394288
  0
3DFACE
  8
10/leg21
 10
0.180000
 20
-0.042400
 30
0.394288
 11
0.180000
 21
-0.079652
 31
0.792549
 12
0.020000
 22
-0.042400
 32
0.394288
 13
0.020000
 23
-0.042400
 33
0.394288
  0
3DFACE
  8
10/leg21
 10
0.180000
 20
-0.079652
 30
0.792549
 11
0.020000
 21
-0.079652
 31
0.792549
 12
0.020000
 22
-0.042400
 32
0.394288
 13
0.020000
 23
-0.042400
 33
0.394288
  0
3DFACE
  8
10/leg21
 10
0.180000
 20
-0.079652
 30
0.792549
 11
0.180000
 21
0.079652
 31
0.807450
 12
0.020000
 22
-0.079652
 32
0.792549
 13
0.020000
 23
-0.079652
 33
0.792549
  0
3DFACE
  8
10/leg21
 10
0.180000
 20
0.079652
 30
0.807450
 11
0.020000
 21
0.079652
 31
0.807450
 12
0.020000
 22
-0.079652
 32
0.792549
 13
0.020000
 23
-0.079652
 33
0.792549
  0
3DFACE
  8
10/leg21
 10
0.180000
 20
0.079652
 30
0.807450
 11
0.180000
 21
0.116905
 31
0.409189
 12
0.020000
 22
0.079652
 32
0.807450
 13
0.020000
 23
0.079652
 33
0.807450
  0
3DFACE
  8
10/leg21
 10
0.180000
 20
0.116905
 30
0.409189
 11
0.020000
 21
0.116905
 31
0.409189
 12
0.020000
 22
0.079652
 32
0.807450
 13
0.020000
 23
0.079652
 33
0.807450
  0
3DFACE
  8
10/leg21
 10
0.180000
 20
0.116905
 30
0.409189
 11
0.180000
 21
-0.042400
 31
0.394288
 12
0.020000
 22
0.116905
 32
0.409189
 13
0.020000
 23
0.116905
 33
0.409189
  0
3DFACE
  8
10/leg21
 10
0.180000
 20
-0.042400
 30
0.394288
 11
0.020000
 21
-0.042400
 31
0.394288
 12
0.020000
 22
0.116905
 32
0.409189
 13
0.020000
 23
0.116905
 33
0.409189
  0
3DFACE
  8
10/leg21
 10
0.020000
 20
-0.079652
 30
0.792549
 11
0.020000
 21
0.079652
 31
0.807450
 12
0.020000
 22
-0.042400
 32
0.394288
 13
0.020000
 23
-0.042400
 33
0.394288
  0
3DFACE
  8
10/leg21
 10
0.020000
 20
0.079652
 30
0.807450
 11
0.020000
 21
0.116905
 31
0.409189
 12
0.020000
 22
-0.042400
 32
0.394288
 13
0.020000
 23
-0.042400
 33
0.394288
  0
3DFACE
  8
12/leg22
 10
0.180000
 20
0.154157
 30
0.010927
 11
0.180000
 21
0.116905
 31
0.409189
 12
0.180000
 22
-0.005148
 32
-0.003974
 13
0.180000
 23
-0.005148
 33
-0.003974
  0
3DFACE
  8
12/leg22
 10
0.180000
 20
0.116905
 30
0.409189
 11
0.180000
 21
-0.042400
 31
0.394288
 12
0.180000
 22
-0.005148
 32
-0.003974
 13
0.180000
 23
-0.005148
 33
-0.003974
  0
3DFACE
  8
12/leg22
 10
0.180000
 20
-0.005148
 30
-0.003974
 11
0.180000
 21
-0.042400
 31
0.394288
 12
0.020000
 22
-0.005148
 32
-0.003974
 13
0.020000
 23
-0.005148
 33
-0.003974
  0
3DFACE
  8
12/leg22
 10
0.180000
 20
-0.042400
 30
0.394288
 11
0.020000
 21
-0.042400
 31
0.394288
 12
0.020000
 22
-0.005148
 32
-0.003974
 13
0.020000
 23
-0.005148
 33
-0.003974
  0
3DFACE
  8
12/leg22
 10
0.180000
 20
-0.042400
 30
0.394288
 11
0.180000
 21
0.116905
 31
0.409189
 12
0.020000
 22
-0.042400
 32
0.394288
 13
0.020000
 23
-0.042400
 33
0.394288
  0
3DFACE
  8
12/leg22
 10
0.180000
 20
0.116905
 30
0.409189
 11
0.020000
 21
0.116905
 31
0.409189
 12
0.020000
 22
-0.042400
 32
0.394288
 13
0.020000
 23
-0.042400
 33
0.394288
  0
3DFACE
  8
12/leg22
 10
0.180000
 20
0.116905
 30
0.409189
 11
0.180000
 21
0.154157
 31
0.010927
 12
0.020000
 22
0.116905
 32
0.409189
 13
0.020000
 23
0.116905
 33
0.409189
  0
3DFACE
  8
12/leg22
 10
0.180000
 20
0.154157
 30
0.010927
 11
0.020000
 21
0.154157
 31
0.010927
 12
0.020000
 22
0.116905
 32
0.409189
 13
0.020000
 23
0.116905
 33
0.409189
  0
3DFACE
  8
12/leg22
 10
0.180000
 20
0.154157
 30
0.010927
 11
0.180000
 21
-0.005148
 31
-0.003974
 12
0.020000
 22
0.154157
 32
0.010927
 13
0.020000
 23
0.154157
 33
0.010927
  0
3DFACE
  8
12/leg22
 10
0.180000
 20
-0.005148
 30
-0.003974
 11
0.020000
 21
-0.005148
 31
-0.003974
 12
0.020000
 22
0.154157
 32
0.010927
 13
0.020000
 23
0.154157
 33
0.010927
  0
3DFACE
  8
12/leg22
 10
0.020000
 20
-0.042400
 30
0.394288
 11
0.020000
 21
0.116905
 31
0.409189
 12
0.020000
 22
-0.005148
 32
-0.003974
 13
0.020000
 23
-0.005148
 33
-0.003974
  0
3DFACE
  8
12/leg22
 10
0.020000
 20
0.116905
 30
0.409189
 11
0.020000
 21
0.154157
 31
0.010927
 12
0.020000
 22
-0.005148
 32
-0.003974
 13
0.020000
 23
-0.005148
 33
-0.003974
  0
3DFACE
  8
14/arm11
 10
0.360000
 20
0.042400
 30
0.954288
 11
0.360000
 21
0.079652
 31
1.352550
 12
0.360000
 22
-0.116905
 32
0.969189
 13
0.360000
 23
-0.116905
 33
0.969189
  0
3DFACE
  8
14/arm11
 10
0.360000
 20
0.079652
 30
1.352550
 11
0.360000
 21
-0.079652
 31
1.367450
 12
0.360000
 22
-0.116905
 32
0.969189
 13
0.360000
 23
-0.116905
 33
0.969189
  0
3DFACE
  8
14/arm11
 10
0.360000
 20
-0.116905
 30
0.969189
 11
0.360000
 21
-0.079652
 31
1.367450
 12
0.200000
 22
-0.116905
 32
0.969189
 13
0.200000
 23
-0.116905
 33
0.969189
  0
3DFACE
  8
14/arm11
 10
0.360000
 20
-0.079652
 30
1.367450
 11
0.200000
 21
-0.079652
 31
1.367450
 12
0.200000
 22
-0.116905
 32
0.969189
 13
0.200000
 23
-0.116905
 33
0.969189
  0
3DFACE
  8
14/arm11
 10
0.360000
 20
-0.079652
 30
1.367450
 11
0.360000
 21
0.079652
 31
1.352550
 12
0.200000
 22
-0.079652
 32
1.367450
 13
0.200000
 23
-0.079652
 33
1.367450
  0
3DFACE
  8
14/arm11
 10
0.360000
 20
0.079652
 30
1.352550
 11
0.200000
 21
0.079652
 31
1.352550
 12
0.200000
 22
-0.079652
 32
1.367450
 13
0.200000
 23
-0.079652
 33
1.367450
  0
3DFACE
  8
14/arm11
 10
0.360000
 20
0.079652
 30
1.352550
 11
0.360000
 21
0.042400
 31
0.954288
 12
0.200000
 22
0.079652
 32
1.352550
 13
0.200000
 23
0.079652
 33
1.352550
  0
3DFACE
  8
14/arm11
 10
0.360000
 20
0.042400
 30
0.954288
 11
0.200000
 21
0.042400
 31
0.954288
 12
0.200000
 22
0.079652
 32
1.352550
 13
0.200000
 23
0.079652
 33
1.352550
  0
3DFACE
  8
14/arm11
 10
0.360000
 20
0.042400
 30
0.954288
 11
0.360000
 21
-0.116905
 31
0.969189
 12
0.200000
 22
0.042400
 32
0.954288
 13
0.200000
 23
0.042400
 33
0.954288
  0
3DFACE
  8
14/arm11
 10
0.360000
 20
-0.116905
 30
0.969189
 11
0.200000
 21
-0.116905
 31
0.969189
 12
0.200000
 22
0.042400
 32
0.954288
 13
0.200000
 23
0.042400
 33
0.954288
  0
3DFACE
  8
14/arm11
 10
0.200000
 20
-0.079652
 30
1.367450
 11
0.200000
 21
0.079652
 31
1.352550
 12
0.200000
 22
-0.116905
 32
0.969189
 13
0.200000
 23
-0.116905
 33
0.969189
  0
3DFACE
  8
14/arm11
 10
0.200000
 20
0.079652
 30
1.352550
 11
0.200000
 21
0.042400
 31
0.954288
 12
0.200000
 22
-0.116905
 32
0.969189
 13
0.200000
 23
-0.116905
 33
0.969189
  0
3DFACE
  8
16/arm12
 10
0.360000
 20
0.005148
 30
0.556027
 11
0.360000
 21
0.042400
 31
0.954288
 12
0.360000
 22
-0.154157
 32
0.570927
 13
0.360000
 23
-0.154157
 33
0.570927
  0
3DFACE
  8
16/arm12
 10
0.360000
 20
0.042400
 30
0.954288
 11
0.360000
 21
-0.116905
 31
0.969189
 12
0.360000
 22
-0.154157
 32
0.570927
 13
0.360000
 23
-0.154157
 33
0.570927
  0
3DFACE
  8
16/arm12
 10
0.360000
 20
-0.154157
 30
0.570927
 11
0.360000
 21
-0.116905
 31
0.969189
 12
0.200000
 22
-0.154157
 32
0.570927
 13
0.200000
 23
-0.154157
 33
0.570927
  0
3DFACE
  8
16/arm12
 10
0.360000
 20
-0.116905
 30
0.969189
 11
0.200000
 21
-0.116905
 31
0.969189
 12
0.200000
 22
-0.154157
 32
0.570927
 13
0.200000
 23
-0.154157
 33
0.570927
  0
3DFACE
  8
16/arm12
 10
0.360000
 20
-0.116905
 30
0.969189
 11
0.360000
 21
0.042400
 31
0.954288
 12
0.200000
 22
-0.116905
 32
0.969189
 13
0.200000
 23
-0.116905
 33
0.969189
  0
3DFACE
  8
16/arm12
 10
0.360000
 20
0.042400
 30
0.954288
 11
0.200000
 21
0.042400
 31
0.954288
 12
0.200000
 22
-0.116905
 32
0.969189
 13
0.200000
 23
-0.116905
 33
0.969189
  0
3DFACE
  8
16/arm12
 10
0.360000
 20
0.042400
 30
0.954288
 11
0.360000
 21
0.005148
 31
0.556027
 12
0.200000
 22
0.042400
 32
0.954288
 13
0.200000
 23
0.042400
 33
0.954288
  0
3DFACE
  8
16/arm12
 10
0.360000
 20
0.005148
 30
0.556027
 11
0.200000
 21
0.005148
 31
0.556027
 12
0.200000
 22
0.042400
 32
0.954288
 13
0.200000
 23
0.042400
 33
0.954288
  0
3DFACE
  8
16/arm12
 10
0.360000
 20
0.005148
 30
0.556027
 11
0.360000
 21
-0.154157
 31
0.570927
 12
0.200000
 22
0.005148
 32
0.556027
 13
0.200000
 23
0.005148
 33
0.556027
  0
3DFACE
  8
16/arm12
 10
0.360000
 20
-0.154157
 30
0.570927
 11
0.200000
 21
-0.154157
 31
0.570927
 12
0.200000
 22
0.005148
 32
0.556027
 13
0.200000
 23
0.005148
 33
0.556027
  0
3DFACE
  8
16/arm12
 10
0.200000
 20
-0.116905
 30
0.969189
 11
0.200000
 21
0.042400
 31
0.954288
 12
0.200000
 22
-0.154157
 32
0.570927
 13
0.200000
 23
-0.154157
 33
0.570927
  0
3DFACE
  8
16/arm12
 10
0.200000
 20
0.042400
 30
0.954288
 11
0.200000
 21
0.005148
 31
0.556027
 12
0.200000
 22
-0.154157
 32
0.570927
 13
0.200000
 23
-0.154157
 33
0.570927
  0
3DFACE
  8
18/arm21
 10
-0.360000
 20
0.079652
 30
1.367450
 11
-0.360000
 21
0.116905
 31
0.969189
 12
-0.360000
 22
-0.042400
 32
0.954288
 13
-0.360000
 23
-0.042400
 33
0.954288
  0
3DFACE
  8
18/arm21
 10
-0.360000
 20
-0.079652
 30
1.352550
 11
-0.360000
 21
0.079652
 31
1.367450
 12
-0.360000
 22
-0.042400
 32
0.954288
 13
-0.360000
 23
-0.042400
 33
0.954288
  0
3DFACE
  8
18/arm21
 10
-0.360000
 20
-0.079652
 30
1.352550
 11
-0.360000
 21
-0.042400
 31
0.954288
 12
-0.200000
 22
-0.042400
 32
0.954288
 13
-0.200000
 23
-0.042400
 33
0.954288
  0
3DFACE
  8
18/arm21
 10
-0.200000
 20
-0.079652
 30
1.352550
 11
-0.360000
 21
-0.079652
 31
1.352550
 12
-0.200000
 22
-0.042400
 32
0.954288
 13
-0.200000
 23
-0.042400
 33
0.954288
  0
3DFACE
  8
18/arm21
 10
-0.360000
 20
0.079652
 30
1.367450
 11
-0.360000
 21
-0.079652
 31
1.352550
 12
-0.200000
 22
-0.079652
 32
1.352550
 13
-0.200000
 23
-0.079652
 33
1.352550
  0
3DFACE
  8
18/arm21
 10
-0.200000
 20
0.079652
 30
1.367450
 11
-0.360000
 21
0.079652
 31
1.367450
 12
-0.200000
 22
-0.079652
 32
1.352550
 13
-0.200000
 23
-0.079652
 33
1.352550
  0
3DFACE
  8
18/arm21
 10
-0.360000
 20
0.116905
 30
0.969189
 11
-0.360000
 21
0.079652
 31
1.367450
 12
-0.200000
 22
0.079652
 32
1.367450
 13
-0.200000
 23
0.079652
 33
1.367450
  0
3DFACE
  8
18/arm21
 10
-0.200000
 20
0.116905
 30
0.969189
 11
-0.360000
 21
0.116905
 31
0.969189
 12
-0.200000
 22
0.079652
 32
1.367450
 13
-0.200000
 23
0.079652
 33
1.367450
  0
3DFACE
  8
18/arm21
 10
-0.360000
 20
-0.042400
 30
0.954288
 11
-0.360000
 21
0.116905
 31
0.969189
 12
-0.200000
 22
0.116905
 32
0.969189
 13
-0.200000
 23
0.116905
 33
0.969189
  0
3DFACE
  8
18/arm21
 10
-0.200000
 20
-0.042400
 30
0.954288
 11
-0.360000
 21
-0.042400
 31
0.954288
 12
-0.200000
 22
0.116905
 32
0.969189
 13
-0.200000
 23
0.116905
 33
0.969189
  0
3DFACE
  8
18/arm21
 10
-0.200000
 20
0.079652
 30
1.367450
 11
-0.200000
 21
-0.079652
 31
1.352550
 12
-0.200000
 22
-0.042400
 32
0.954288
 13
-0.200000
 23
-0.042400
 33
0.954288
  0
3DFACE
  8
18/arm21
 10
-0.200000
 20
0.116905
 30
0.969189
 11
-0.200000
 21
0.079652
 31
1.367450
 12
-0.200000
 22
-0.042400
 32
0.954288
 13
-0.200000
 23
-0.042400
 33
0.954288
  0
3DFACE
  8
20/arm22
 10
-0.360000
 20
0.116905
 30
0.969189
 11
-0.360000
 21
0.154157
 31
0.570927
 12
-0.360000
 22
-0.005148
 32
0.556027
 13
-0.360000
 23
-0.005148
 33
0.556027
  0
3DFACE
  8
20/arm22
 10
-0.360000
 20
-0.042400
 30
0.954288
 11
-0.360000
 21
0.116905
 31
0.969189
 12
-0.360000
 22
-0.005148
 32
0.556027
 13
-0.360000
 23
-0.005148
 33
0.556027
  0
3DFACE
  8
20/arm22
 10
-0.360000
 20
-0.042400
 30
0.954288
 11
-0.360000
 21
-0.005148
 31
0.556027
 12
-0.200000
 22
-0.005148
 32
0.556027
 13
-0.200000
 23
-0.005148
 33
0.556027
  0
3DFACE
  8
20/arm22
 10
-0.200000
 20
-0.042400
 30
0.954288
 11
-0.360000
 21
-0.042400
 31
0.954288
 12
-0.200000
 22
-0.005148
 32
0.556027
 13
-0.200000
 23
-0.005148
 33
0.556027
  0
3DFACE
  8
20/arm22
 10
-0.360000
 20
0.116905
 30
0.969189
 11
-0.360000
 21
-0.042400
 31
0.954288
 12
-0.200000
 22
-0.042400
 32
0.954288
 13
-0.200000
 23
-0.042400
 33
0.954288
  0
3DFACE
  8
20/arm22
 10
-0.200000
 20
0.116905
 30
0.969189
 11
-0.360000
 21
0.116905
 31
0.969189
 12
-0.200000
 22
-0.042400
 32
0.954288
 13
-0.200000
 23
-0.042400
 33
0.954288
  0
3DFACE
  8
20/arm22
 10
-0.360000
 20
0.154157
 30
0.570927
 11
-0.360000
 21
0.116905
 31
0.969189
 12
-0.200000
 22
0.116905
 32
0.969189
 13
-0.200000
 23
0.116905
 33
0.969189
  0
3DFACE
  8
20/arm22
 10
-0.200000
 20
0.154157
 30
0.570927
 11
-0.360000
 21
0.154157
 31
0.570927
 12
-0.200000
 22
0.116905
 32
0.969189
 13
-0.200000
 23
0.116905
 33
0.969189
  0
3DFACE
  8
20/arm22
 10
-0.360000
 20
-0.005148
 30
0.556027
 11
-0.360000
 21
0.154157
 31
0.570927
 12
-0.200000
 22
0.154157
 32
0.570927
 13
-0.200000
 23
0.154157
 33
0.570927
  0
3DFACE
  8
20/arm22
 10
-0.200000
 20
-0.005148
 30
0.556027
 11
-0.360000
 21
-0.005148
 31
0.556027
 12
-0.200000
 22
0.154157
 32
0.570927
 13
-0.200000
 23
0.154157
 33
0.570927
  0
3DFACE
  8
20/arm22
 10
-0.200000
 20
0.116905
 30
0.969189
 11
-0.200000
 21
-0.042400
 31
0.954288
 12
-0.200000
 22
-0.005148
 32
0.556027
 13
-0.200000
 23
-0.005148
 33
0.556027
  0
3DFACE
  8
20/arm22
 10
-0.200000
 20
0.154157
 30
0.570927
 11
-0.200000
 21
0.116905
 31
0.969189
 12
-0.200000
 22
-0.005148
 32
0.556027
 13
-0.200000
 23
-0.005148
 33
0.556027
  0
ENDSEC
  0
EOF
