  0
SECTION
  2
ENTITIES
  0
3DFACE
  8
2/head
 10
0.099188
 20
0.141421
 30
1.500812
 11
0.000000
 21
0.200000
 31
1.600000
 12
0.141421
 22
0.141421
 32
1.600000
 13
0.141421
 23
0.141421
 33
1.600000
  0
3DFACE
  8
2/head
 10
0.099188
 20
0.141421
 30
1.500812
 11
0.141421
 21
0.141421
 31
1.600000
 12
0.200000
 22
0.000000
 32
1.600000
 13
0.200000
 23
0.000000
 33
1.600000
  0
3DFACE
  8
2/head
 10
0.200000
 20
0.000000
 30
1.600000
 11
0.141421
 21
0.000000
 31
1.458579
 12
0.099188
 22
0.141421
 32
1.500812
 13
0.099188
 23
0.141421
 33
1.500812
  0
3DFACE
  8
2/head
 10
0.141421
 20
0.000000
 30
1.458579
 11
0.200000
 21
0.000000
 31
1.600000
 12
0.141421
 22
-0.141421
 32
1.600000
 13
0.141421
 23
-0.141421
 33
1.600000
  0
3DFACE
  8
2/head
 10
0.141421
 20
-0.141421
 30
1.600000
 11
0.099188
 21
-0.141421
 31
1.500812
 12
0.141421
 22
0.000000
 32
1.458579
 13
0.141421
 23
0.000000
 33
1.458579
  0
3DFACE
  8
2/head
 10
0.000000
 20
-0.200000
 30
1.600000
 11
0.099188
 21
-0.141421
 31
1.500812
 12
0.141421
 22
-0.141421
 32
1.600000
 13
0.141421
 23
-0.141421
 33
1.600000
  0
3DFACE
  8
2/head
 10
0.000000
 20
0.141421
 30
1.458579
 11
0.000000
 21
0.200000
 31
1.600000
 12
0.099188
 22
0.141421
 32
1.500812
 13
0.099188
 23
0.141421
 33
1.500812
  0
3DFACE
  8
2/head
 10
0.000000
 20
0.141421
 30
1.458579
 11
0.099188
 21
0.141421
 31
1.500812
 12
0.141421
 22
0.000000
 32
1.458579
 13
0.141421
 23
0.000000
 33
1.458579
  0
3DFACE
  8
2/head
 10
0.141421
 20
0.000000
 30
1.458579
 11
0.000000
 21
0.000000
 31
1.400000
 12
0.000000
 22
0.141421
 32
1.458579
 13
0.000000
 23
0.141421
 33
1.458579
  0
3DFACE
  8
2/head
 10
0.000000
 20
0.000000
 30
1.400000
 11
0.141421
 21
0.000000
 31
1.458579
 12
0.099188
 22
-0.141421
 32
1.500812
 13
0.099188
 23
-0.141421
 33
1.500812
  0
3DFACE
  8
2/head
 10
0.099188
 20
-0.141421
 30
1.500812
 11
0.000000
 21
-0.141421
 31
1.458579
 12
0.000000
 22
0.000000
 32
1.400000
 13
0.000000
 23
0.000000
 33
1.400000
  0
3DFACE
  8
2/head
 10
0.000000
 20
-0.200000
 30
1.600000
 11
0.000000
 21
-0.141421
 31
1.458579
 12
0.099188
 22
-0.141421
 32
1.500812
 13
0.099188
 23
-0.141421
 33
1.500812
  0
3DFACE
  8
2/head
 10
-0.099188
 20
0.141421
 30
1.500812
 11
0.000000
 21
0.200000
 31
1.600000
 12
0.000000
 22
0.141421
 32
1.458579
 13
0.000000
 23
0.141421
 33
1.458579
  0
3DFACE
  8
2/head
 10
-0.099188
 20
0.141421
 30
1.500812
 11
0.000000
 21
0.141421
 31
1.458579
 12
0.000000
 22
0.000000
 32
1.400000
 13
0.000000
 23
0.000000
 33
1.400000
  0
3DFACE
  8
2/head
 10
0.000000
 20
0.000000
 30
1.400000
 11
-0.141421
 21
0.000000
 31
1.458579
 12
-0.099188
 22
0.141421
 32
1.500812
 13
-0.099188
 23
0.141421
 33
1.500812
  0
3DFACE
  8
2/head
 10
-0.141421
 20
0.000000
 30
1.458579
 11
0.000000
 21
0.000000
 31
1.400000
 12
0.000000
 22
-0.141421
 32
1.458579
 13
0.000000
 23
-0.141421
 33
1.458579
  0
3DFACE
  8
2/head
 10
0.000000
 20
-0.141421
 30
1.458579
 11
-0.099188
 21
-0.141421
 31
1.500812
 12
-0.141421
 22
0.000000
 32
1.458579
 13
-0.141421
 23
0.000000
 33
1.458579
  0
3DFACE
  8
2/head
 10
0.000000
 20
-0.200000
 30
1.600000
 11
-0.099188
 21
-0.141421
 31
1.500812
 12
0.000000
 22
-0.141421
 32
1.458579
 13
0.000000
 23
-0.141421
 33
1.458579
  0
3DFACE
  8
2/head
 10
-0.141421
 20
0.141421
 30
1.600000
 11
0.000000
 21
0.200000
 31
1.600000
 12
-0.099188
 22
0.141421
 32
1.500812
 13
-0.099188
 23
0.141421
 33
1.500812
  0
3DFACE
  8
2/head
 10
-0.141421
 20
0.141421
 30
1.600000
 11
-0.099188
 21
0.141421
 31
1.500812
 12
-0.141421
 22
0.000000
 32
1.458579
 13
-0.141421
 23
0.000000
 33
1.458579
  0
3DFACE
  8
2/head
 10
-0.141421
 20
0.000000
 30
1.458579
 11
-0.200000
 21
0.000000
 31
1.600000
 12
-0.141421
 22
0.141421
 32
1.600000
 13
-0.141421
 23
0.141421
 33
1.600000
  0
3DFACE
  8
2/head
 10
-0.200000
 20
0.000000
 30
1.600000
 11
-0.141421
 21
0.000000
 31
1.458579
 12
-0.099188
 22
-0.141421
 32
1.500812
 13
-0.099188
 23
-0.141421
 33
1.500812
  0
3DFACE
  8
2/head
 10
-0.099188
 20
-0.141421
 30
1.500812
 11
-0.141421
 21
-0.141421
 31
1.600000
 12
-0.200000
 22
0.000000
 32
1.600000
 13
-0.200000
 23
0.000000
 33
1.600000
  0
3DFACE
  8
2/head
 10
0.000000
 20
-0.200000
 30
1.600000
 11
-0.141421
 21
-0.141421
 31
1.600000
 12
-0.099188
 22
-0.141421
 32
1.500812
 13
-0.099188
 23
-0.141421
 33
1.500812
  0
3DFACE
  8
2/head
 10
-0.099188
 20
0.141421
 30
1.699188
 11
0.000000
 21
0.200000
 31
1.600000
 12
-0.141421
 22
0.141421
 32
1.600000
 13
-0.141421
 23
0.141421
 33
1.600000
  0
3DFACE
  8
2/head
 10
-0.099188
 20
0.141421
 30
1.699188
 11
-0.141421
 21
0.141421
 31
1.600000
 12
-0.200000
 22
0.000000
 32
1.600000
 13
-0.200000
 23
0.000000
 33
1.600000
  0
3DFACE
  8
2/head
 10
-0.200000
 20
0.000000
 30
1.600000
 11
-0.141421
 21
0.000000
 31
1.741421
 12
-0.099188
 22
0.141421
 32
1.699188
 13
-0.099188
 23
0.141421
 33
1.699188
  0
3DFACE
  8
2/head
 10
-0.141421
 20
0.000000
 30
1.741421
 11
-0.200000
 21
0.000000
 31
1.600000
 12
-0.141421
 22
-0.141421
 32
1.600000
 13
-0.141421
 23
-0.141421
 33
1.600000
  0
3DFACE
  8
2/head
 10
-0.141421
 20
-0.141421
 30
1.600000
 11
-0.099188
 21
-0.141421
 31
1.699188
 12
-0.141421
 22
0.000000
 32
1.741421
 13
-0.141421
 23
0.000000
 33
1.741421
  0
3DFACE
  8
2/head
 10
0.000000
 20
-0.200000
 30
1.600000
 11
-0.099188
 21
-0.141421
 31
1.699188
 12
-0.141421
 22
-0.141421
 32
1.600000
 13
-0.141421
 23
-0.141421
 33
1.600000
  0
3DFACE
  8
2/head
 10
0.000000
 20
0.141421
 30
1.741421
 11
0.000000
 21
0.200000
 31
1.600000
 12
-0.099188
 22
0.141421
 32
1.699188
 13
-0.099188
 23
0.141421
 33
1.699188
  0
3DFACE
  8
2/head
 10
0.000000
 20
0.141421
 30
1.741421
 11
-0.099188
 21
0.141421
 31
1.699188
 12
-0.141421
 22
0.000000
 32
1.741421
 13
-0.141421
 23
0.000000
 33
1.741421
  0
3DFACE
  8
2/head
 10
-0.141421
 20
0.000000
 30
1.741421
 11
0.000000
 21
0.000000
 31
1.800000
 12
0.000000
 22
0.141421
 32
1.741421
 13
0.000000
 23
0.141421
 33
1.741421
  0
3DFACE
  8
2/head
 10
0.000000
 20
0.000000
 30
1.800000
 11
-0.141421
 21
0.000000
 31
1.741421
 12
-0.099188
 22
-0.141421
 32
1.699188
 13
-0.099188
 23
-0.141421
 33
1.699188
  0
3DFACE
  8
2/head
 10
-0.099188
 20
-0.141421
 30
1.699188
 11
0.000000
 21
-0.141421
 31
1.741421
 12
0.000000
 22
0.000000
 32
1.800000
 13
0.000000
 23
0.000000
 33
1.800000
  0
3DFACE
  8
2/head
 10
0.000000
 20
-0.200000
 30
1.600000
 11
0.000000
 21
-0.141421
 31
1.741421
 12
-0.099188
 22
-0.141421
 32
1.699188
 13
-0.099188
 23
-0.141421
 33
1.699188
  0
3DFACE
  8
2/head
 10
0.099188
 20
0.141421
 30
1.699188
 11
0.000000
 21
0.200000
 31
1.600000
 12
0.000000
 22
0.141421
 32
1.741421
 13
0.000000
 23
0.141421
 33
1.741421
  0
3DFACE
  8
2/head
 10
0.099188
 20
0.141421
 30
1.699188
 11
0.000000
 21
0.141421
 31
1.741421
 12
0.000000
 22
0.000000
 32
1.800000
 13
0.000000
 23
0.000000
 33
1.800000
  0
3DFACE
  8
2/head
 10
0.000000
 20
0.000000
 30
1.800000
 11
0.141421
 21
0.000000
 31
1.741421
 12
0.099188
 22
0.141421
 32
1.699188
 13
0.099188
 23
0.141421
 33
1.699188
  0
3DFACE
  8
2/head
 10
0.141421
 20
0.000000
 30
1.741421
 11
0.000000
 21
0.000000
 31
1.800000
 12
0.000000
 22
-0.141421
 32
1.741421
 13
0.000000
 23
-0.141421
 33
1.741421
  0
3DFACE
  8
2/head
 10
0.000000
 20
-0.141421
 30
1.741421
 11
0.099188
 21
-0.141421
 31
1.699188
 12
0.141421
 22
0.000000
 32
1.741421
 13
0.141421
 23
0.000000
 33
1.741421
  0
3DFACE
  8
2/head
 10
0.000000
 20
-0.200000
 30
1.600000
 11
0.099188
 21
-0.141421
 31
1.699188
 12
0.000000
 22
-0.141421
 32
1.741421
 13
0.000000
 23
-0.141421
 33
1.741421
  0
3DFACE
  8
2/head
 10
0.141421
 20
0.141421
 30
1.600000
 11
0.000000
 21
0.200000
 31
1.600000
 12
0.099188
 22
0.141421
 32
1.699188
 13
0.099188
 23
0.141421
 33
1.699188
  0
3DFACE
  8
2/head
 10
0.141421
 20
0.141421
 30
1.600000
 11
0.099188
 21
0.141421
 31
1.699188
 12
0.141421
 22
0.000000
 32
1.741421
 13
0.141421
 23
0.000000
 33
1.741421
  0
3DFACE
  8
2/head
 10
0.141421
 20
0.000000
 30
1.741421
 11
0.200000
 21
0.000000
 31
1.600000
 12
0.141421
 22
0.141421
 32
1.600000
 13
0.141421
 23
0.141421
 33
1.600000
  0
3DFACE
  8
2/head
 10
0.200000
 20
0.000000
 30
1.600000
 11
0.141421
 21
0.000000
 31
1.741421
 12
0.099188
 22
-0.141421
 32
1.699188
 13
0.099188
 23
-0.141421
 33
1.699188
  0
3DFACE
  8
2/head
 10
0.099188
 20
-0.141421
 30
1.699188
 11
0.141421
 21
-0.141421
 31
1.600000
 12
0.200000
 22
0.000000
 32
1.600000
 13
0.200000
 23
0.000000
 33
1.600000
  0
3DFACE
  8
2/head
 10
0.000000
 20
-0.200000
 30
1.600000
 11
0.141421
 21
-0.141421
 31
1.600000
 12
0.099188
 22
-0.141421
 32
1.699188
 13
0.099188
 23
-0.141421
 33
1.699188
  0
3DFACE
  8
4/body
 10
-0.200000
 20
0.080000
 30
1.400000
 11
-0.200000
 21
0.080000
 31
0.800000
 12
-0.200000
 22
-0.080000
 32
0.800000
 13
-0.200000
 23
-0.080000
 33
0.800000
  0
3DFACE
  8
4/body
 10
-0.200000
 20
-0.080000
 30
1.400000
 11
-0.200000
 21
0.080000
 31
1.400000
 12
-0.200000
 22
-0.080000
 32
0.800000
 13
-0.200000
 23
-0.080000
 33
0.800000
  0
3DFACE
  8
4/body
 10
-0.200000
 20
-0.080000
 30
1.400000
 11
-0.200000
 21
-0.080000
 31
0.800000
 12
0.200000
 22
-0.080000
 32
0.800000
 13
0.200000
 23
-0.080000
 33
0.800000
  0
3DFACE
  8
4/body
 10
0.200000
 20
-0.080000
 30
1.400000
 11
-0.200000
 21
-0.080000
 31
1.400000
 12
0.200000
 22
-0.080000
 32
0.800000
 13
0.200000
 23
-0.080000
 33
0.800000
  0
3DFACE
  8
4/body
 10
-0.200000
 20
0.080000
 30
1.400000
 11
-0.200000
 21
-0.080000
 31
1.400000
 12
0.200000
 22
-0.080000
 32
1.400000
 13
0.200000
 23
-0.080000
 33
1.400000
  0
3DFACE
  8
4/body
 10
0.200000
 20
0.080000
 30
1.400000
 11
-0.200000
 21
0.080000
 31
1.400000
 12
0.200000
 22
-0.080000
 32
1.400000
 13
0.200000
 23
-0.080000
 33
1.400000
  0
3DFACE
  8
4/body
 10
-0.200000
 20
0.080000
 30
0.800000
 11
-0.200000
 21
0.080000
 31
1.400000
 12
0.200000
 22
0.080000
 32
1.400000
 13
0.200000
 23
0.080000
 33
1.400000
  0
3DFACE
  8
4/body
 10
0.200000
 20
0.080000
 30
0.800000
 11
-0.200000
 21
0.080000
 31
0.800000
 12
0.200000
 22
0.080000
 32
1.400000
 13
0.200000
 23
0.080000
 33
1.400000
  0
3DFACE
  8
4/body
 10
-0.200000
 20
-0.080000
 30
0.800000
 11
-0.200000
 21
0.080000
 31
0.800000
 12
0.200000
 22
0.080000
 32
0.800000
 13
0.200000
 23
0.080000
 33
0.800000
  0
3DFACE
  8
4/body
 10
0.200000
 20
-0.080000
 30
0.800000
 11
-0.200000
 21
-0.080000
 31
0.800000
 12
0.200000
 22
0.080000
 32
0.800000
 13
0.200000
 23
0.080000
 33
0.800000
  0
3DFACE
  8
4/body
 10
0.200000
 20
0.080000
 30
1.400000
 11
0.200000
 21
-0.080000
 31
1.400000
 12
0.200000
 22
-0.080000
 32
0.800000
 13
0.200000
 23
-0.080000
 33
0.800000
  0
3DFACE
  8
4/body
 10
0.200000
 20
0.080000
 30
0.800000
 11
0.200000
 21
0.080000
 31
1.400000
 12
0.200000
 22
-0.080000
 32
0.800000
 13
0.200000
 23
-0.080000
 33
0.800000
  0
3DFACE
  8
6/leg11
 10
-0.180000
 20
0.079904
 30
0.796075
 11
-0.180000
 21
0.060277
 31
0.396556
 12
-0.180000
 22
-0.099531
 32
0.404407
 13
-0.180000
 23
-0.099531
 33
0.404407
  0
3DFACE
  8
6/leg11
 10
-0.180000
 20
-0.079904
 30
0.803925
 11
-0.180000
 21
0.079904
 31
0.796075
 12
-0.180000
 22
-0.099531
 32
0.404407
 13
-0.180000
 23
-0.099531
 33
0.404407
  0
3DFACE
  8
6/leg11
 10
-0.180000
 20
-0.079904
 30
0.803925
 11
-0.180000
 21
-0.099531
 31
0.404407
 12
-0.020000
 22
-0.099531
 32
0.404407
 13
-0.020000
 23
-0.099531
 33
0.404407
  0
3DFACE
  8
6/leg11
 10
-0.020000
 20
-0.079904
 30
0.803925
 11
-0.180000
 21
-0.079904
 31
0.803925
 12
-0.020000
 22
-0.099531
 32
0.404407
 13
-0.020000
 23
-0.099531
 33
0.404407
  0
3DFACE
  8
6/leg11
 10
-0.180000
 20
0.079904
 30
0.796075
 11
-0.180000
 21
-0.079904
 31
0.803925
 12
-0.020000
 22
-0.079904
 32
0.803925
 13
-0.020000
 23
-0.079904
 33
0.803925
  0
3DFACE
  8
6/leg11
 10
-0.020000
 20
0.079904
 30
0.796075
 11
-0.180000
 21
0.079904
 31
0.796075
 12
-0.020000
 22
-0.079904
 32
0.803925
 13
-0.020000
 23
-0.079904
 33
0.803925
  0
3DFACE
  8
6/leg11
 10
-0.180000
 20
0.060277
 30
0.396556
 11
-0.180000
 21
0.079904
 31
0.796075
 12
-0.020000
 22
0.079904
 32
0.796075
 13
-0.020000
 23
0.079904
 33
0.796075
  0
3DFACE
  8
6/leg11
 10
-0.020000
 20
0.060277
 30
0.396556
 11
-0.180000
 21
0.060277
 31
0.396556
 12
-0.020000
 22
0.079904
 32
0.796075
 13
-0.020000
 23
0.079904
 33
0.796075
  0
3DFACE
  8
6/leg11
 10
-0.180000
 20
-0.099531
 30
0.404407
 11
-0.180000
 21
0.060277
 31
0.396556
 12
-0.020000
 22
0.060277
 32
0.396556
 13
-0.020000
 23
0.060277
 33
0.396556
  0
3DFACE
  8
6/leg11
 10
-0.020000
 20
-0.099531
 30
0.404407
 11
-0.180000
 21
-0.099531
 31
0.404407
 12
-0.020000
 22
0.060277
 32
0.396556
 13
-0.020000
 23
0.060277
 33
0.396556
  0
3DFACE
  8
6/leg11
 10
-0.020000
 20
0.079904
 30
0.796075
 11
-0.020000
 21
-0.079904
 31
0.803925
 12
-0.020000
 22
-0.099531
 32
0.404407
 13
-0.020000
 23
-0.099531
 33
0.404407
  0
3DFACE
  8
6/leg11
 10
-0.020000
 20
0.060277
 30
0.396556
 11
-0.020000
 21
0.079904
 31
0.796075
 12
-0.020000
 22
-0.099531
 32
0.404407
 13
-0.020000
 23
-0.099531
 33
0.404407
  0
3DFACE
  8
8/leg12
 10
-0.180000
 20
0.060277
 30
0.396556
 11
-0.180000
 21
0.040649
 31
-0.002962
 12
-0.180000
 22
-0.119158
 32
0.004889
 13
-0.180000
 23
-0.119158
 33
0.004889
  0
3DFACE
  8
8/leg12
 10
-0.180000
 20
-0.099531
 30
0.404407
 11
-0.180000
 21
0.060277
 31
0.396556
 12
-0.180000
 22
-0.119158
 32
0.004889
 13
-0.180000
 23
-0.119158
 33
0.004889
  0
3DFACE
  8
8/leg12
 10
-0.180000
 20
-0.099531
 30
0.404407
 11
-0.180000
 21
-0.119158
 31
0.004889
 12
-0.020000
 22
-0.119158
 32
0.004889
 13
-0.020000
 23
-0.119158
 33
0.004889
  0
3DFACE
  8
8/leg12
 10
-0.020000
 20
-0.099531
 30
0.404407
 11
-0.180000
 21
-0.099531
 31
0.404407
 12
-0.020000
 22
-0.119158
 32
0.004889
 13
-0.020000
 23
-0.119158
 33
0.004889
  0
3DFACE
  8
8/leg12
 10
-0.180000
 20
0.060277
 30
0.396556
 11
-0.180000
 21
-0.099531
 31
0.404407
 12
-0.020000
 22
-0.099531
 32
0.404407
 13
-0.020000
 23
-0.099531
 33
0.404407
  0
3DFACE
  8
8/leg12
 10
-0.020000
 20
0.060277
 30
0.396556
 11
-0.180000
 21
0.060277
 31
0.396556
 12
-0.020000
 22
-0.099531
 32
0.404407
 13
-0.020000
 23
-0.099531
 33
0.404407
  0
3DFACE
  8
8/leg12
 10
-0.180000
 20
0.040649
 30
-0.002962
 11
-0.180000
 21
0.060277
 31
0.396556
 12
-0.020000
 22
0.060277
 32
0.396556
 13
-0.020000
 23
0.060277
 33
0.396556
  0
3DFACE
  8
8/leg12
 10
-0.020000
 20
0.040649
 30
-0.002962
 11
-0.180000
 21
0.040649
 31
-0.002962
 12
-0.020000
 22
0.060277
 32
0.396556
 13
-0.020000
 23
0.060277
 33
0.396556
  0
3DFACE
  8
8/leg12
 10
-0.180000
 20
-0.119158
 30
0.004889
 11
-0.180000
 21
0.040649
 31
-0.002962
 12
-0.020000
 22
0.040649
 32
-0.002962
 13
-0.020000
 23
0.040649
 33
-0.002962
  0
3DFACE
  8
8/leg12
 10
-0.020000
 20
-0.119158
 30
0.004889
 11
-0.180000
 21
-0.119158
 31
0.004889
 12
-0.020000
 22
0.040649
 32
-0.002962
 13
-0.020000
 23
0.040649
 33
-0.002962
  0
3DFACE
  8
8/leg12
 10
-0.020000
 20
0.060277
 30
0.396556
 11
-0.020000
 21
-0.099531
 31
0.404407
 12
-0.020000
 22
-0.119158
 32
0.004889
 13
-0.020000
 23
-0.119158
 33
0.004889
  0
3DFACE
  8
8/leg12
 10
-0.020000
 20
0.040649
 30
-0.002962
 11
-0.020000
 21
0.060277
 31
0.396556
 12
-0.020000
 22
-0.119158
 32
0.004889
 13
-0.020000
 23
-0.119158
 33
0.004889
  0
3DFACE
  8
10/leg21
 10
0.180000
 20
0.099531
 30
0.404407
 11
0.180000
 21
0.079904
 31
0.803925
 12
0.180000
 22
-0.060277
 32
0.396556
 13
0.180000
 23
-0.060277
 33
0.396556
  0
3DFACE
  8
10/leg21
 10
0.180000
 20
0.079904
 30
0.803925
 11
0.180000
 21
-0.079904
 31
0.796075
 12
0.180000
 22
-0.060277
 32
0.396556
 13
0.180000
 23
-0.060277
 33
0.396556
  0
3DFACE
  8
10/leg21
 10
0.180000
 20
-0.060277
 30
0.396556
 11
0.180000
 21
-0.079904
 31
0.796075
 12
0.020000
 22
-0.060277
 32
0.396556
 13
0.020000
 23
-0.060277
 33
0.396556
  0
3DFACE
  8
10/leg21
 10
0.180000
 20
-0.079904
 30
0.796075
 11
0.020000
 21
-0.079904
 31
0.796075
 12
0.020000
 22
-0.060277
 32
0.396556
 13
0.020000
 23
-0.060277
 33
0.396556
  0
3DFACE
  8
10/leg21
 10
0.180000
 20
-0.079904
 30
0.796075
 11
0.180000
 21
0.079904
 31
0.803925
 12
0.020000
 22
-0.079904
 32
0.796075
 13
0.020000
 23
-0.079904
 33
0.796075
  0
3DFACE
  8
10/leg21
 10
0.180000
 20
0.079904
 30
0.803925
 11
0.020000
 21
0.079904
 31
0.803925
 12
0.020000
 22
-0.079904
 32
0.796075
 13
0.020000
 23
-0.079904
 33
0.796075
  0
3DFACE
  8
10/leg21
 10
0.180000
 20
0.079904
 30
0.803925
 11
0.180000
 21
0.099531
 31
0.404407
 12
0.020000
 22
0.079904
 32
0.803925
 13
0.020000
 23
0.079904
 33
0.803925
  0
3DFACE
  8
10/leg21
 10
0.180000
 20
0.099531
 30
0.404407
 11
0.020000
 21
0.099531
 31
0.404407
 12
0.020000
 22
0.079904
 32
0.803925
 13
0.020000
 23
0.079904
 33
0.803925
  0
3DFACE
  8
10/leg21
 10
0.180000
 20
0.099531
 30
0.404407
 11
0.180000
 21
-0.060277
 31
0.396556
 12
0.020000
 22
0.099531
 32
0.404407
 13
0.020000
 23
0.099531
 33
0.404407
  0
3DFACE
  8
10/leg21
 10
0.180000
 20
-0.060277
 30
0.396556
 11
0.020000
 21
-0.060277
 31
0.396556
 12
0.020000
 22
0.099531
 32
0.404407
 13
0.020000
 23
0.099531
 33
0.404407
  0
3DFACE
  8
10/leg21
 10
0.020000
 20
-0.079904
 30
0.796075
 11
0.020000
 21
0.079904
 31
0.803925
 12
0.020000
 22
-0.060277
 32
0.396556
 13
0.020000
 23
-0.060277
 33
0.396556
  0
3DFACE
  8
10/leg21
 10
0.020000
 20
0.079904
 30
0.803925
 11
0.020000
 21
0.099531
 31
0.404407
 12
0.020000
 22
-0.060277
 32
0.396556
 13
0.020000
 23
-0.060277
 33
0.396556
  0
3DFACE
  8
12/leg22
 10
0.180000
 20
0.119158
 30
0.004889
 11
0.180000
 21
0.099531
 31
0.404407
 12
0.180000
 22
-0.040649
 32
-0.002962
 13
0.180000
 23
-0.040649
 33
-0.002962
  0
3DFACE
  8
12/leg22
 10
0.180000
 20
0.099531
 30
0.404407
 11
0.180000
 21
-0.060277
 31
0.396556
 12
0.180000
 22
-0.040649
 32
-0.002962
 13
0.180000
 23
-0.040649
 33
-0.002962
  0
3DFACE
  8
12/leg22
 10
0.180000
 20
-0.040649
 30
-0.002962
 11
0.180000
 21
-0.060277
 31
0.396556
 12
0.020000
 22
-0.040649
 32
-0.002962
 13
0.020000
 23
-0.040649
 33
-0.002962
  0
3DFACE
  8
12/leg22
 10
0.180000
 20
-0.060277
 30
0.396556
 11
0.020000
 21
-0.060277
 31
0.396556
 12
0.020000
 22
-0.040649
 32
-0.002962
 13
0.020000
 23
-0.040649
 33
-0.002962
  0
3DFACE
  8
12/leg22
 10
0.180000
 20
-0.060277
 30
0.396556
 11
0.180000
 21
0.099531
 31
0.404407
 12
0.020000
 22
-0.060277
 32
0.396556
 13
0.020000
 23
-0.060277
 33
0.396556
  0
3DFACE
  8
12/leg22
 10
0.180000
 20
0.099531
 30
0.404407
 11
0.020000
 21
0.099531
 31
0.404407
 12
0.020000
 22
-0.060277
 32
0.396556
 13
0.020000
 23
-0.060277
 33
0.396556
  0
3DFACE
  8
12/leg22
 10
0.180000
 20
0.099531
 30
0.404407
 11
0.180000
 21
0.119158
 31
0.004889
 12
0.020000
 22
0.099531
 32
0.404407
 13
0.020000
 23
0.099531
 33
0.404407
  0
3DFACE
  8
12/leg22
 10
0.180000
 20
0.119158
 30
0.004889
 11
0.020000
 21
0.119158
 31
0.004889
 12
0.020000
 22
0.099531
 32
0.404407
 13
0.020000
 23
0.099531
 33
0.404407
  0
3DFACE
  8
12/leg22
 10
0.180000
 20
0.119158
 30
0.004889
 11
0.180000
 21
-0.040649
 31
-0.002962
 12
0.020000
 22
0.119158
 32
0.004889
 13
0.020000
 23
0.119158
 33
0.004889
  0
3DFACE
  8
12/leg22
 10
0.180000
 20
-0.040649
 30
-0.002962
 11
0.020000
 21
-0.040649
 31
-0.002962
 12
0.020000
 22
0.119158
 32
0.004889
 13
0.020000
 23
0.119158
 33
0.004889
  0
3DFACE
  8
12/leg22
 10
0.020000
 20
-0.060277
 30
0.396556
 11
0.020000
 21
0.099531
 31
0.404407
 12
0.020000
 22
-0.040649
 32
-0.002962
 13
0.020000
 23
-0.040649
 33
-0.002962
  0
3DFACE
  8
12/leg22
 10
0.020000
 20
0.099531
 30
0.404407
 11
0.020000
 21
0.119158
 31
0.004889
 12
0.020000
 22
-0.040649
 32
-0.002962
 13
0.020000
 23
-0.040649
 33
-0.002962
  0
3DFACE
  8
14/arm11
 10
0.360000
 20
0.060277
 30
0.956556
 11
0.360000
 21
0.079904
 31
1.356075
 12
0.360000
 22
-0.099531
 32
0.964407
 13
0.360000
 23
-0.099531
 33
0.964407
  0
3DFACE
  8
14/arm11
 10
0.360000
 20
0.079904
 30
1.356075
 11
0.360000
 21
-0.079904
 31
1.363925
 12
0.360000
 22
-0.099531
 32
0.964407
 13
0.360000
 23
-0.099531
 33
0.964407
  0
3DFACE
  8
14/arm11
 10
0.360000
 20
-0.099531
 30
0.964407
 11
0.360000
 21
-0.079904
 31
1.363925
 12
0.200000
 22
-0.099531
 32
0.964407
 13
0.200000
 23
-0.099531
 33
0.964407
  0
3DFACE
  8
14/arm11
 10
0.360000
 20
-0.079904
 30
1.363925
 11
0.200000
 21
-0.079904
 31
1.363925
 12
0.200000
 22
-0.099531
 32
0.964407
 13
0.200000
 23
-0.099531
 33
0.964407
  0
3DFACE
  8
14/arm11
 10
0.360000
 20
-0.079904
 30
1.363925
 11
0.360000
 21
0.079904
 31
1.356075
 12
0.200000
 22
-0.079904
 32
1.363925
 13
0.200000
 23
-0.079904
 33
1.363925
  0
3DFACE
  8
14/arm11
 10
0.360000
 20
0.079904
 30
1.356075
 11
0.200000
 21
0.079904
 31
1.356075
 12
0.200000
 22
-0.079904
 32
1.363925
 13
0.200000
 23
-0.079904
 33
1.363925
  0
3DFACE
  8
14/arm11
 10
0.360000
 20
0.079904
 30
1.356075
 11
0.360000
 21
0.060277
 31
0.956556
 12
0.200000
 22
0.079904
 32
1.356075
 13
0.200000
 23
0.079904
 33
1.356075
  0
3DFACE
  8
14/arm11
 10
0.360000
 20
0.060277
 30
0.956556
 11
0.200000
 21
0.060277
 31
0.956556
 12
0.200000
 22
0.079904
 32
1.356075
 13
0.200000
 23
0.079904
 33
1.356075
  0
3DFACE
  8
14/arm11
 10
0.360000
 20
0.060277
 30
0.956556
 11
0.360000
 21
-0.099531
 31
0.964407
 12
0.200000
 22
0.060277
 32
0.956556
 13
0.200000
 23
0.060277
 33
0.956556
  0
3DFACE
  8
14/arm11
 10
0.360000
 20
-0.099531
 30
0.964407
 11
0.200000
 21
-0.099531
 31
0.964407
 12
0.200000
 22
0.060277
 32
0.956556
 13
0.200000
 23
0.060277
 33
0.956556
  0
3DFACE
  8
14/arm11
 10
0.200000
 20
-0.079904
 30
1.363925
 11
0.200000
 21
0.079904
 31
1.356075
 12
0.200000
 22
-0.099531
 32
0.964407
 13
0.200000
 23
-0.099531
 33
0.964407
  0
3DFACE
  8
14/arm11
 10
0.200000
 20
0.079904
 30
1.356075
 11
0.200000
 21
0.060277
 31
0.956556
 12
0.200000
 22
-0.099531
 32
0.964407
 13
0.200000
 23
-0.099531
 33
0.964407
  0
3DFACE
  8
16/arm12
 10
0.360000
 20
0.040649
 30
0.557038
 11
0.360000
 21
0.060277
 31
0.956556
 12
0.360000
 22
-0.119158
 32
0.564889
 13
0.360000
 23
-0.119158
 33
0.564889
  0
3DFACE
  8
16/arm12
 10
0.360000
 20
0.060277
 30
0.956556
 11
0.360000
 21
-0.099531
 31
0.964407
 12
0.360000
 22
-0.119158
 32
0.564889
 13
0.360000
 23
-0.119158
 33
0.564889
  0
3DFACE
  8
16/arm12
 10
0.360000
 20
-0.119158
 30
0.564889
 11
0.360000
 21
-0.099531
 31
0.964407
 12
0.200000
 22
-0.119158
 32
0.564889
 13
0.200000
 23
-0.119158
 33
0.564889
  0
3DFACE
  8
16/arm12
 10
0.360000
 20
-0.099531
 30
0.964407
 11
0.200000
 21
-0.099531
 31
0.964407
 12
0.200000
 22
-0.119158
 32
0.564889
 13
0.200000
 23
-0.119158
 33
0.564889
  0
3DFACE
  8
16/arm12
 10
0.360000
 20
-0.099531
 30
0.964407
 11
0.360000
 21
0.060277
 31
0.956556
 12
0.200000
 22
-0.099531
 32
0.964407
 13
0.200000
 23
-0.099531
 33
0.964407
  0
3DFACE
  8
16/arm12
 10
0.360000
 20
0.060277
 30
0.956556
 11
0.200000
 21
0.060277
 31
0.956556
 12
0.200000
 22
-0.099531
 32
0.964407
 13
0.200000
 23
-0.099531
 33
0.964407
  0
3DFACE
  8
16/arm12
 10
0.360000
 20
0.060277
 30
0.956556
 11
0.360000
 21
0.040649
 31
0.557038
 12
0.200000
 22
0.060277
 32
0.956556
 13
0.200000
 23
0.060277
 33
0.956556
  0
3DFACE
  8
16/arm12
 10
0.360000
 20
0.040649
 30
0.557038
 11
0.200000
 21
0.040649
 31
0.557038
 12
0.200000
 22
0.060277
 32
0.956556
 13
0.200000
 23
0.060277
 33
0.956556
  0
3DFACE
  8
16/arm12
 10
0.360000
 20
0.040649
 30
0.557038
 11
0.360000
 21
-0.119158
 31
0.564889
 12
0.200000
 22
0.040649
 32
0.557038
 13
0.200000
 23
0.040649
 33
0.557038
  0
3DFACE
  8
16/arm12
 10
0.360000
 20
-0.119158
 30
0.564889
 11
0.200000
 21
-0.119158
 31
0.564889
 12
0.200000
 22
0.040649
 32
0.557038
 13
0.200000
 23
0.040649
 33
0.557038
  0
3DFACE
  8
16/arm12
 10
0.200000
 20
-0.099531
 30
0.964407
 11
0.200000
 21
0.060277
 31
0.956556
 12
0.200000
 22
-0.119158
 32
0.564889
 13
0.200000
 23
-0.119158
 33
0.564889
  0
3DFACE
  8
16/arm12
 10
0.200000
 20
0.060277
 30
0.956556
 11
0.200000
 21
0.040649
 31
0.557038
 12
0.200000
 22
-0.119158
 32
0.564889
 13
0.200000
 23
-0.119158
 33
0.564889
  0
3DFACE
  8
18/arm21
 10
-0.360000
 20
0.079904
 30
1.363925
 11
-0.360000
 21
0.099531
 31
0.964407
 12
-0.360000
 22
-0.060277
 32
0.956556
 13
-0.360000
 23
-0.060277
 33
0.956556
  0
3DFACE
  8
18/arm21
 10
-0.360000
 20
-0.079904
 30
1.356075
 11
-0.360000
 21
0.079904
 31
1.363925
 12
-0.360000
 22
-0.060277
 32
0.956556
 13
-0.360000
 23
-0.060277
 33
0.956556
  0
3DFACE
  8
18/arm21
 10
-0.360000
 20
-0.079904
 30
1.356075
 11
-0.360000
 21
-0.060277
 31
0.956556
 12
-0.200000
 22
-0.060277
 32
0.956556
 13
-0.200000
 23
-0.060277
 33
0.956556
  0
3DFACE
  8
18/arm21
 10
-0.200000
 20
-0.079904
 30
1.356075
 11
-0.360000
 21
-0.079904
 31
1.356075
 12
-0.200000
 22
-0.060277
 32
0.956556
 13
-0.200000
 23
-0.060277
 33
0.956556
  0
3DFACE
  8
18/arm21
 10
-0.360000
 20
0.079904
 30
1.363925
 11
-0.360000
 21
-0.079904
 31
1.356075
 12
-0.200000
 22
-0.079904
 32
1.356075
 13
-0.200000
 23
-0.079904
 33
1.356075
  0
3DFACE
  8
18/arm21
 10
-0.200000
 20
0.079904
 30
1.363925
 11
-0.360000
 21
0.079904
 31
1.363925
 12
-0.200000
 22
-0.079904
 32
1.356075
 13
-0.200000
 23
-0.079904
 33
1.356075
  0
3DFACE
  8
18/arm21
 10
-0.360000
 20
0.099531
 30
0.964407
 11
-0.360000
 21
0.079904
 31
1.363925
 12
-0.200000
 22
0.079904
 32
1.363925
 13
-0.200000
 23
0.079904
 33
1.363925
  0
3DFACE
  8
18/arm21
 10
-0.200000
 20
0.099531
 30
0.964407
 11
-0.360000
 21
0.099531
 31
0.964407
 12
-0.200000
 22
0.079904
 32
1.363925
 13
-0.200000
 23
0.079904
 33
1.363925
  0
3DFACE
  8
18/arm21
 10
-0.360000
 20
-0.060277
 30
0.956556
 11
-0.360000
 21
0.099531
 31
0.964407
 12
-0.200000
 22
0.099531
 32
0.964407
 13
-0.200000
 23
0.099531
 33
0.964407
  0
3DFACE
  8
18/arm21
 10
-0.200000
 20
-0.060277
 30
0.956556
 11
-0.360000
 21
-0.060277
 31
0.956556
 12
-0.200000
 22
0.099531
 32
0.964407
 13
-0.200000
 23
0.099531
 33
0.964407
  0
3DFACE
  8
18/arm21
 10
-0.200000
 20
0.079904
 30
1.363925
 11
-0.200000
 21
-0.079904
 31
1.356075
 12
-0.200000
 22
-0.060277
 32
0.956556
 13
-0.200000
 23
-0.060277
 33
0.956556
  0
3DFACE
  8
18/arm21
 10
-0.200000
 20
0.099531
 30
0.964407
 11
-0.200000
 21
0.079904
 31
1.363925
 12
-0.200000
 22
-0.060277
 32
0.956556
 13
-0.200000
 23
-0.060277
 33
0.956556
  0
3DFACE
  8
20/arm22
 10
-0.360000
 20
0.099531
 30
0.964407
 11
-0.360000
 21
0.119158
 31
0.564889
 12
-0.360000
 22
-0.040649
 32
0.557038
 13
-0.360000
 23
-0.040649
 33
0.557038
  0
3DFACE
  8
20/arm22
 10
-0.360000
 20
-0.060277
 30
0.956556
 11
-0.360000
 21
0.099531
 31
0.964407
 12
-0.360000
 22
-0.040649
 32
0.557038
 13
-0.360000
 23
-0.040649
 33
0.557038
  0
3DFACE
  8
20/arm22
 10
-0.360000
 20
-0.060277
 30
0.956556
 11
-0.360000
 21
-0.040649
 31
0.557038
 12
-0.200000
 22
-0.040649
 32
0.557038
 13
-0.200000
 23
-0.040649
 33
0.557038
  0
3DFACE
  8
20/arm22
 10
-0.200000
 20
-0.060277
 30
0.956556
 11
-0.360000
 21
-0.060277
 31
0.956556
 12
-0.200000
 22
-0.040649
 32
0.557038
 13
-0.200000
 23
-0.040649
 33
0.557038
  0
3DFACE
  8
20/arm22
 10
-0.360000
 20
0.099531
 30
0.964407
 11
-0.360000
 21
-0.060277
 31
0.956556
 12
-0.200000
 22
-0.060277
 32
0.956556
 13
-0.200000
 23
-0.060277
 33
0.956556
  0
3DFACE
  8
20/arm22
 10
-0.200000
 20
0.099531
 30
0.964407
 11
-0.360000
 21
0.099531
 31
0.964407
 12
-0.200000
 22
-0.060277
 32
0.956556
 13
-0.200000
 23
-0.060277
 33
0.956556
  0
3DFACE
  8
20/arm22
 10
-0.360000
 20
0.119158
 30
0.564889
 11
-0.360000
 21
0.099531
 31
0.964407
 12
-0.200000
 22
0.099531
 32
0.964407
 13
-0.200000
 23
0.099531
 33
0.964407
  0
3DFACE
  8
20/arm22
 10
-0.200000
 20
0.119158
 30
0.564889
 11
-0.360000
 21
0.119158
 31
0.564889
 12
-0.200000
 22
0.099531
 32
0.964407
 13
-0.200000
 23
0.099531
 33
0.964407
  0
3DFACE
  8
20/arm22
 10
-0.360000
 20
-0.040649
 30
0.557038
 11
-0.360000
 21
0.119158
 31
0.564889
 12
-0.200000
 22
0.119158
 32
0.564889
 13
-0.200000
 23
0.119158
 33
0.564889
  0
3DFACE
  8
20/arm22
 10
-0.200000
 20
-0.040649
 30
0.557038
 11
-0.360000
 21
-0.040649
 31
0.557038
 12
-0.200000
 22
0.119158
 32
0.564889
 13
-0.200000
 23
0.119158
 33
0.564889
  0
3DFACE
  8
20/arm22
 10
-0.200000
 20
0.099531
 30
0.964407
 11
-0.200000
 21
-0.060277
 31
0.956556
 12
-0.200000
 22
-0.040649
 32
0.557038
 13
-0.200000
 23
-0.040649
 33
0.557038
  0
3DFACE
  8
20/arm22
 10
-0.200000
 20
0.119158
 30
0.564889
 11
-0.200000
 21
0.099531
 31
0.964407
 12
-0.200000
 22
-0.040649
 32
0.557038
 13
-0.200000
 23
-0.040649
 33
0.557038
  0
ENDSEC
  0
EOF
