  0
SECTION
  2
ENTITIES
  0
3DFACE
  8
2/head
 10
0.099188
 20
0.141421
 30
1.500812
 11
0.000000
 21
0.200000
 31
1.600000
 12
0.141421
 22
0.141421
 32
1.600000
 13
0.141421
 23
0.141421
 33
1.600000
  0
3DFACE
  8
2/head
 10
0.099188
 20
0.141421
 30
1.500812
 11
0.141421
 21
0.141421
 31
1.600000
 12
0.200000
 22
0.000000
 32
1.600000
 13
0.200000
 23
0.000000
 33
1.600000
  0
3DFACE
  8
2/head
 10
0.200000
 20
0.000000
 30
1.600000
 11
0.141421
 21
0.000000
 31
1.458579
 12
0.099188
 22
0.141421
 32
1.500812
 13
0.099188
 23
0.141421
 33
1.500812
  0
3DFACE
  8
2/head
 10
0.141421
 20
0.000000
 30
1.458579
 11
0.200000
 21
0.000000
 31
1.600000
 12
0.141421
 22
-0.141421
 32
1.600000
 13
0.141421
 23
-0.141421
 33
1.600000
  0
3DFACE
  8
2/head
 10
0.141421
 20
-0.141421
 30
1.600000
 11
0.099188
 21
-0.141421
 31
1.500812
 12
0.141421
 22
0.000000
 32
1.458579
 13
0.141421
 23
0.000000
 33
1.458579
  0
3DFACE
  8
2/head
 10
0.000000
 20
-0.200000
 30
1.600000
 11
0.099188
 21
-0.141421
 31
1.500812
 12
0.141421
 22
-0.141421
 32
1.600000
 13
0.141421
 23
-0.141421
 33
1.600000
  0
3DFACE
  8
2/head
 10
0.000000
 20
0.141421
 30
1.458579
 11
0.000000
 21
0.200000
 31
1.600000
 12
0.099188
 22
0.141421
 32
1.500812
 13
0.099188
 23
0.141421
 33
1.500812
  0
3DFACE
  8
2/head
 10
0.000000
 20
0.141421
 30
1.458579
 11
0.099188
 21
0.141421
 31
1.500812
 12
0.141421
 22
0.000000
 32
1.458579
 13
0.141421
 23
0.000000
 33
1.458579
  0
3DFACE
  8
2/head
 10
0.141421
 20
0.000000
 30
1.458579
 11
0.000000
 21
0.000000
 31
1.400000
 12
0.000000
 22
0.141421
 32
1.458579
 13
0.000000
 23
0.141421
 33
1.458579
  0
3DFACE
  8
2/head
 10
0.000000
 20
0.000000
 30
1.400000
 11
0.141421
 21
0.000000
 31
1.458579
 12
0.099188
 22
-0.141421
 32
1.500812
 13
0.099188
 23
-0.141421
 33
1.500812
  0
3DFACE
  8
2/head
 10
0.099188
 20
-0.141421
 30
1.500812
 11
0.000000
 21
-0.141421
 31
1.458579
 12
0.000000
 22
0.000000
 32
1.400000
 13
0.000000
 23
0.000000
 33
1.400000
  0
3DFACE
  8
2/head
 10
0.000000
 20
-0.200000
 30
1.600000
 11
0.000000
 21
-0.141421
 31
1.458579
 12
0.099188
 22
-0.141421
 32
1.500812
 13
0.099188
 23
-0.141421
 33
1.500812
  0
3DFACE
  8
2/head
 10
-0.099188
 20
0.141421
 30
1.500812
 11
0.000000
 21
0.200000
 31
1.600000
 12
0.000000
 22
0.141421
 32
1.458579
 13
0.000000
 23
0.141421
 33
1.458579
  0
3DFACE
  8
2/head
 10
-0.099188
 20
0.141421
 30
1.500812
 11
0.000000
 21
0.141421
 31
1.458579
 12
0.000000
 22
0.000000
 32
1.400000
 13
0.000000
 23
0.000000
 33
1.400000
  0
3DFACE
  8
2/head
 10
0.000000
 20
0.000000
 30
1.400000
 11
-0.141421
 21
0.000000
 31
1.458579
 12
-0.099188
 22
0.141421
 32
1.500812
 13
-0.099188
 23
0.141421
 33
1.500812
  0
3DFACE
  8
2/head
 10
-0.141421
 20
0.000000
 30
1.458579
 11
0.000000
 21
0.000000
 31
1.400000
 12
0.000000
 22
-0.141421
 32
1.458579
 13
0.000000
 23
-0.141421
 33
1.458579
  0
3DFACE
  8
2/head
 10
0.000000
 20
-0.141421
 30
1.458579
 11
-0.099188
 21
-0.141421
 31
1.500812
 12
-0.141421
 22
0.000000
 32
1.458579
 13
-0.141421
 23
0.000000
 33
1.458579
  0
3DFACE
  8
2/head
 10
0.000000
 20
-0.200000
 30
1.600000
 11
-0.099188
 21
-0.141421
 31
1.500812
 12
0.000000
 22
-0.141421
 32
1.458579
 13
0.000000
 23
-0.141421
 33
1.458579
  0
3DFACE
  8
2/head
 10
-0.141421
 20
0.141421
 30
1.600000
 11
0.000000
 21
0.200000
 31
1.600000
 12
-0.099188
 22
0.141421
 32
1.500812
 13
-0.099188
 23
0.141421
 33
1.500812
  0
3DFACE
  8
2/head
 10
-0.141421
 20
0.141421
 30
1.600000
 11
-0.099188
 21
0.141421
 31
1.500812
 12
-0.141421
 22
0.000000
 32
1.458579
 13
-0.141421
 23
0.000000
 33
1.458579
  0
3DFACE
  8
2/head
 10
-0.141421
 20
0.000000
 30
1.458579
 11
-0.200000
 21
0.000000
 31
1.600000
 12
-0.141421
 22
0.141421
 32
1.600000
 13
-0.141421
 23
0.141421
 33
1.600000
  0
3DFACE
  8
2/head
 10
-0.200000
 20
0.000000
 30
1.600000
 11
-0.141421
 21
0.000000
 31
1.458579
 12
-0.099188
 22
-0.141421
 32
1.500812
 13
-0.099188
 23
-0.141421
 33
1.500812
  0
3DFACE
  8
2/head
 10
-0.099188
 20
-0.141421
 30
1.500812
 11
-0.141421
 21
-0.141421
 31
1.600000
 12
-0.200000
 22
0.000000
 32
1.600000
 13
-0.200000
 23
0.000000
 33
1.600000
  0
3DFACE
  8
2/head
 10
0.000000
 20
-0.200000
 30
1.600000
 11
-0.141421
 21
-0.141421
 31
1.600000
 12
-0.099188
 22
-0.141421
 32
1.500812
 13
-0.099188
 23
-0.141421
 33
1.500812
  0
3DFACE
  8
2/head
 10
-0.099188
 20
0.141421
 30
1.699188
 11
0.000000
 21
0.200000
 31
1.600000
 12
-0.141421
 22
0.141421
 32
1.600000
 13
-0.141421
 23
0.141421
 33
1.600000
  0
3DFACE
  8
2/head
 10
-0.099188
 20
0.141421
 30
1.699188
 11
-0.141421
 21
0.141421
 31
1.600000
 12
-0.200000
 22
0.000000
 32
1.600000
 13
-0.200000
 23
0.000000
 33
1.600000
  0
3DFACE
  8
2/head
 10
-0.200000
 20
0.000000
 30
1.600000
 11
-0.141421
 21
0.000000
 31
1.741421
 12
-0.099188
 22
0.141421
 32
1.699188
 13
-0.099188
 23
0.141421
 33
1.699188
  0
3DFACE
  8
2/head
 10
-0.141421
 20
0.000000
 30
1.741421
 11
-0.200000
 21
0.000000
 31
1.600000
 12
-0.141421
 22
-0.141421
 32
1.600000
 13
-0.141421
 23
-0.141421
 33
1.600000
  0
3DFACE
  8
2/head
 10
-0.141421
 20
-0.141421
 30
1.600000
 11
-0.099188
 21
-0.141421
 31
1.699188
 12
-0.141421
 22
0.000000
 32
1.741421
 13
-0.141421
 23
0.000000
 33
1.741421
  0
3DFACE
  8
2/head
 10
0.000000
 20
-0.200000
 30
1.600000
 11
-0.099188
 21
-0.141421
 31
1.699188
 12
-0.141421
 22
-0.141421
 32
1.600000
 13
-0.141421
 23
-0.141421
 33
1.600000
  0
3DFACE
  8
2/head
 10
0.000000
 20
0.141421
 30
1.741421
 11
0.000000
 21
0.200000
 31
1.600000
 12
-0.099188
 22
0.141421
 32
1.699188
 13
-0.099188
 23
0.141421
 33
1.699188
  0
3DFACE
  8
2/head
 10
0.000000
 20
0.141421
 30
1.741421
 11
-0.099188
 21
0.141421
 31
1.699188
 12
-0.141421
 22
0.000000
 32
1.741421
 13
-0.141421
 23
0.000000
 33
1.741421
  0
3DFACE
  8
2/head
 10
-0.141421
 20
0.000000
 30
1.741421
 11
0.000000
 21
0.000000
 31
1.800000
 12
0.000000
 22
0.141421
 32
1.741421
 13
0.000000
 23
0.141421
 33
1.741421
  0
3DFACE
  8
2/head
 10
0.000000
 20
0.000000
 30
1.800000
 11
-0.141421
 21
0.000000
 31
1.741421
 12
-0.099188
 22
-0.141421
 32
1.699188
 13
-0.099188
 23
-0.141421
 33
1.699188
  0
3DFACE
  8
2/head
 10
-0.099188
 20
-0.141421
 30
1.699188
 11
0.000000
 21
-0.141421
 31
1.741421
 12
0.000000
 22
0.000000
 32
1.800000
 13
0.000000
 23
0.000000
 33
1.800000
  0
3DFACE
  8
2/head
 10
0.000000
 20
-0.200000
 30
1.600000
 11
0.000000
 21
-0.141421
 31
1.741421
 12
-0.099188
 22
-0.141421
 32
1.699188
 13
-0.099188
 23
-0.141421
 33
1.699188
  0
3DFACE
  8
2/head
 10
0.099188
 20
0.141421
 30
1.699188
 11
0.000000
 21
0.200000
 31
1.600000
 12
0.000000
 22
0.141421
 32
1.741421
 13
0.000000
 23
0.141421
 33
1.741421
  0
3DFACE
  8
2/head
 10
0.099188
 20
0.141421
 30
1.699188
 11
0.000000
 21
0.141421
 31
1.741421
 12
0.000000
 22
0.000000
 32
1.800000
 13
0.000000
 23
0.000000
 33
1.800000
  0
3DFACE
  8
2/head
 10
0.000000
 20
0.000000
 30
1.800000
 11
0.141421
 21
0.000000
 31
1.741421
 12
0.099188
 22
0.141421
 32
1.699188
 13
0.099188
 23
0.141421
 33
1.699188
  0
3DFACE
  8
2/head
 10
0.141421
 20
0.000000
 30
1.741421
 11
0.000000
 21
0.000000
 31
1.800000
 12
0.000000
 22
-0.141421
 32
1.741421
 13
0.000000
 23
-0.141421
 33
1.741421
  0
3DFACE
  8
2/head
 10
0.000000
 20
-0.141421
 30
1.741421
 11
0.099188
 21
-0.141421
 31
1.699188
 12
0.141421
 22
0.000000
 32
1.741421
 13
0.141421
 23
0.000000
 33
1.741421
  0
3DFACE
  8
2/head
 10
0.000000
 20
-0.200000
 30
1.600000
 11
0.099188
 21
-0.141421
 31
1.699188
 12
0.000000
 22
-0.141421
 32
1.741421
 13
0.000000
 23
-0.141421
 33
1.741421
  0
3DFACE
  8
2/head
 10
0.141421
 20
0.141421
 30
1.600000
 11
0.000000
 21
0.200000
 31
1.600000
 12
0.099188
 22
0.141421
 32
1.699188
 13
0.099188
 23
0.141421
 33
1.699188
  0
3DFACE
  8
2/head
 10
0.141421
 20
0.141421
 30
1.600000
 11
0.099188
 21
0.141421
 31
1.699188
 12
0.141421
 22
0.000000
 32
1.741421
 13
0.141421
 23
0.000000
 33
1.741421
  0
3DFACE
  8
2/head
 10
0.141421
 20
0.000000
 30
1.741421
 11
0.200000
 21
0.000000
 31
1.600000
 12
0.141421
 22
0.141421
 32
1.600000
 13
0.141421
 23
0.141421
 33
1.600000
  0
3DFACE
  8
2/head
 10
0.200000
 20
0.000000
 30
1.600000
 11
0.141421
 21
0.000000
 31
1.741421
 12
0.099188
 22
-0.141421
 32
1.699188
 13
0.099188
 23
-0.141421
 33
1.699188
  0
3DFACE
  8
2/head
 10
0.099188
 20
-0.141421
 30
1.699188
 11
0.141421
 21
-0.141421
 31
1.600000
 12
0.200000
 22
0.000000
 32
1.600000
 13
0.200000
 23
0.000000
 33
1.600000
  0
3DFACE
  8
2/head
 10
0.000000
 20
-0.200000
 30
1.600000
 11
0.141421
 21
-0.141421
 31
1.600000
 12
0.099188
 22
-0.141421
 32
1.699188
 13
0.099188
 23
-0.141421
 33
1.699188
  0
3DFACE
  8
4/body
 10
-0.200000
 20
0.080000
 30
1.400000
 11
-0.200000
 21
0.080000
 31
0.800000
 12
-0.200000
 22
-0.080000
 32
0.800000
 13
-0.200000
 23
-0.080000
 33
0.800000
  0
3DFACE
  8
4/body
 10
-0.200000
 20
-0.080000
 30
1.400000
 11
-0.200000
 21
0.080000
 31
1.400000
 12
-0.200000
 22
-0.080000
 32
0.800000
 13
-0.200000
 23
-0.080000
 33
0.800000
  0
3DFACE
  8
4/body
 10
-0.200000
 20
-0.080000
 30
1.400000
 11
-0.200000
 21
-0.080000
 31
0.800000
 12
0.200000
 22
-0.080000
 32
0.800000
 13
0.200000
 23
-0.080000
 33
0.800000
  0
3DFACE
  8
4/body
 10
0.200000
 20
-0.080000
 30
1.400000
 11
-0.200000
 21
-0.080000
 31
1.400000
 12
0.200000
 22
-0.080000
 32
0.800000
 13
0.200000
 23
-0.080000
 33
0.800000
  0
3DFACE
  8
4/body
 10
-0.200000
 20
0.080000
 30
1.400000
 11
-0.200000
 21
-0.080000
 31
1.400000
 12
0.200000
 22
-0.080000
 32
1.400000
 13
0.200000
 23
-0.080000
 33
1.400000
  0
3DFACE
  8
4/body
 10
0.200000
 20
0.080000
 30
1.400000
 11
-0.200000
 21
0.080000
 31
1.400000
 12
0.200000
 22
-0.080000
 32
1.400000
 13
0.200000
 23
-0.080000
 33
1.400000
  0
3DFACE
  8
4/body
 10
-0.200000
 20
0.080000
 30
0.800000
 11
-0.200000
 21
0.080000
 31
1.400000
 12
0.200000
 22
0.080000
 32
1.400000
 13
0.200000
 23
0.080000
 33
1.400000
  0
3DFACE
  8
4/body
 10
0.200000
 20
0.080000
 30
0.800000
 11
-0.200000
 21
0.080000
 31
0.800000
 12
0.200000
 22
0.080000
 32
1.400000
 13
0.200000
 23
0.080000
 33
1.400000
  0
3DFACE
  8
4/body
 10
-0.200000
 20
-0.080000
 30
0.800000
 11
-0.200000
 21
0.080000
 31
0.800000
 12
0.200000
 22
0.080000
 32
0.800000
 13
0.200000
 23
0.080000
 33
0.800000
  0
3DFACE
  8
4/body
 10
0.200000
 20
-0.080000
 30
0.800000
 11
-0.200000
 21
-0.080000
 31
0.800000
 12
0.200000
 22
0.080000
 32
0.800000
 13
0.200000
 23
0.080000
 33
0.800000
  0
3DFACE
  8
4/body
 10
0.200000
 20
0.080000
 30
1.400000
 11
0.200000
 21
-0.080000
 31
1.400000
 12
0.200000
 22
-0.080000
 32
0.800000
 13
0.200000
 23
-0.080000
 33
0.800000
  0
3DFACE
  8
4/body
 10
0.200000
 20
0.080000
 30
0.800000
 11
0.200000
 21
0.080000
 31
1.400000
 12
0.200000
 22
-0.080000
 32
0.800000
 13
0.200000
 23
-0.080000
 33
0.800000
  0
3DFACE
  8
6/leg11
 10
-0.180000
 20
0.077206
 30
0.779042
 11
-0.180000
 21
-0.027586
 31
0.393012
 12
-0.180000
 22
-0.181997
 32
0.434929
 13
-0.180000
 23
-0.181997
 33
0.434929
  0
3DFACE
  8
6/leg11
 10
-0.180000
 20
-0.077206
 30
0.820958
 11
-0.180000
 21
0.077206
 31
0.779042
 12
-0.180000
 22
-0.181997
 32
0.434929
 13
-0.180000
 23
-0.181997
 33
0.434929
  0
3DFACE
  8
6/leg11
 10
-0.180000
 20
-0.077206
 30
0.820958
 11
-0.180000
 21
-0.181997
 31
0.434929
 12
-0.020000
 22
-0.181997
 32
0.434929
 13
-0.020000
 23
-0.181997
 33
0.434929
  0
3DFACE
  8
6/leg11
 10
-0.020000
 20
-0.077206
 30
0.820958
 11
-0.180000
 21
-0.077206
 31
0.820958
 12
-0.020000
 22
-0.181997
 32
0.434929
 13
-0.020000
 23
-0.181997
 33
0.434929
  0
3DFACE
  8
6/leg11
 10
-0.180000
 20
0.077206
 30
0.779042
 11
-0.180000
 21
-0.077206
 31
0.820958
 12
-0.020000
 22
-0.077206
 32
0.820958
 13
-0.020000
 23
-0.077206
 33
0.820958
  0
3DFACE
  8
6/leg11
 10
-0.020000
 20
0.077206
 30
0.779042
 11
-0.180000
 21
0.077206
 31
0.779042
 12
-0.020000
 22
-0.077206
 32
0.820958
 13
-0.020000
 23
-0.077206
 33
0.820958
  0
3DFACE
  8
6/leg11
 10
-0.180000
 20
-0.027586
 30
0.393012
 11
-0.180000
 21
0.077206
 31
0.779042
 12
-0.020000
 22
0.077206
 32
0.779042
 13
-0.020000
 23
0.077206
 33
0.779042
  0
3DFACE
  8
6/leg11
 10
-0.020000
 20
-0.027586
 30
0.393012
 11
-0.180000
 21
-0.027586
 31
0.393012
 12
-0.020000
 22
0.077206
 32
0.779042
 13
-0.020000
 23
0.077206
 33
0.779042
  0
3DFACE
  8
6/leg11
 10
-0.180000
 20
-0.181997
 30
0.434929
 11
-0.180000
 21
-0.027586
 31
0.393012
 12
-0.020000
 22
-0.027586
 32
0.393012
 13
-0.020000
 23
-0.027586
 33
0.393012
  0
3DFACE
  8
6/leg11
 10
-0.020000
 20
-0.181997
 30
0.434929
 11
-0.180000
 21
-0.181997
 31
0.434929
 12
-0.020000
 22
-0.027586
 32
0.393012
 13
-0.020000
 23
-0.027586
 33
0.393012
  0
3DFACE
  8
6/leg11
 10
-0.020000
 20
0.077206
 30
0.779042
 11
-0.020000
 21
-0.077206
 31
0.820958
 12
-0.020000
 22
-0.181997
 32
0.434929
 13
-0.020000
 23
-0.181997
 33
0.434929
  0
3DFACE
  8
6/leg11
 10
-0.020000
 20
-0.027586
 30
0.393012
 11
-0.020000
 21
0.077206
 31
0.779042
 12
-0.020000
 22
-0.181997
 32
0.434929
 13
-0.020000
 23
-0.181997
 33
0.434929
  0
3DFACE
  8
8/leg12
 10
-0.180000
 20
-0.027586
 30
0.393012
 11
-0.180000
 21
-0.132377
 31
0.006983
 12
-0.180000
 22
-0.286789
 32
0.048899
 13
-0.180000
 23
-0.286789
 33
0.048899
  0
3DFACE
  8
8/leg12
 10
-0.180000
 20
-0.181997
 30
0.434929
 11
-0.180000
 21
-0.027586
 31
0.393012
 12
-0.180000
 22
-0.286789
 32
0.048899
 13
-0.180000
 23
-0.286789
 33
0.048899
  0
3DFACE
  8
8/leg12
 10
-0.180000
 20
-0.181997
 30
0.434929
 11
-0.180000
 21
-0.286789
 31
0.048899
 12
-0.020000
 22
-0.286789
 32
0.048899
 13
-0.020000
 23
-0.286789
 33
0.048899
  0
3DFACE
  8
8/leg12
 10
-0.020000
 20
-0.181997
 30
0.434929
 11
-0.180000
 21
-0.181997
 31
0.434929
 12
-0.020000
 22
-0.286789
 32
0.048899
 13
-0.020000
 23
-0.286789
 33
0.048899
  0
3DFACE
  8
8/leg12
 10
-0.180000
 20
-0.027586
 30
0.393012
 11
-0.180000
 21
-0.181997
 31
0.434929
 12
-0.020000
 22
-0.181997
 32
0.434929
 13
-0.020000
 23
-0.181997
 33
0.434929
  0
3DFACE
  8
8/leg12
 10
-0.020000
 20
-0.027586
 30
0.393012
 11
-0.180000
 21
-0.027586
 31
0.393012
 12
-0.020000
 22
-0.181997
 32
0.434929
 13
-0.020000
 23
-0.181997
 33
0.434929
  0
3DFACE
  8
8/leg12
 10
-0.180000
 20
-0.132377
 30
0.006983
 11
-0.180000
 21
-0.027586
 31
0.393012
 12
-0.020000
 22
-0.027586
 32
0.393012
 13
-0.020000
 23
-0.027586
 33
0.393012
  0
3DFACE
  8
8/leg12
 10
-0.020000
 20
-0.132377
 30
0.006983
 11
-0.180000
 21
-0.132377
 31
0.006983
 12
-0.020000
 22
-0.027586
 32
0.393012
 13
-0.020000
 23
-0.027586
 33
0.393012
  0
3DFACE
  8
8/leg12
 10
-0.180000
 20
-0.286789
 30
0.048899
 11
-0.180000
 21
-0.132377
 31
0.006983
 12
-0.020000
 22
-0.132377
 32
0.006983
 13
-0.020000
 23
-0.132377
 33
0.006983
  0
3DFACE
  8
8/leg12
 10
-0.020000
 20
-0.286789
 30
0.048899
 11
-0.180000
 21
-0.286789
 31
0.048899
 12
-0.020000
 22
-0.132377
 32
0.006983
 13
-0.020000
 23
-0.132377
 33
0.006983
  0
3DFACE
  8
8/leg12
 10
-0.020000
 20
-0.027586
 30
0.393012
 11
-0.020000
 21
-0.181997
 31
0.434929
 12
-0.020000
 22
-0.286789
 32
0.048899
 13
-0.020000
 23
-0.286789
 33
0.048899
  0
3DFACE
  8
8/leg12
 10
-0.020000
 20
-0.132377
 30
0.006983
 11
-0.020000
 21
-0.027586
 31
0.393012
 12
-0.020000
 22
-0.286789
 32
0.048899
 13
-0.020000
 23
-0.286789
 33
0.048899
  0
3DFACE
  8
10/leg21
 10
0.180000
 20
0.181997
 30
0.434929
 11
0.180000
 21
0.077206
 31
0.820958
 12
0.180000
 22
0.027586
 32
0.393012
 13
0.180000
 23
0.027586
 33
0.393012
  0
3DFACE
  8
10/leg21
 10
0.180000
 20
0.077206
 30
0.820958
 11
0.180000
 21
-0.077206
 31
0.779042
 12
0.180000
 22
0.027586
 32
0.393012
 13
0.180000
 23
0.027586
 33
0.393012
  0
3DFACE
  8
10/leg21
 10
0.180000
 20
0.027586
 30
0.393012
 11
0.180000
 21
-0.077206
 31
0.779042
 12
0.020000
 22
0.027586
 32
0.393012
 13
0.020000
 23
0.027586
 33
0.393012
  0
3DFACE
  8
10/leg21
 10
0.180000
 20
-0.077206
 30
0.779042
 11
0.020000
 21
-0.077206
 31
0.779042
 12
0.020000
 22
0.027586
 32
0.393012
 13
0.020000
 23
0.027586
 33
0.393012
  0
3DFACE
  8
10/leg21
 10
0.180000
 20
-0.077206
 30
0.779042
 11
0.180000
 21
0.077206
 31
0.820958
 12
0.020000
 22
-0.077206
 32
0.779042
 13
0.020000
 23
-0.077206
 33
0.779042
  0
3DFACE
  8
10/leg21
 10
0.180000
 20
0.077206
 30
0.820958
 11
0.020000
 21
0.077206
 31
0.820958
 12
0.020000
 22
-0.077206
 32
0.779042
 13
0.020000
 23
-0.077206
 33
0.779042
  0
3DFACE
  8
10/leg21
 10
0.180000
 20
0.077206
 30
0.820958
 11
0.180000
 21
0.181997
 31
0.434929
 12
0.020000
 22
0.077206
 32
0.820958
 13
0.020000
 23
0.077206
 33
0.820958
  0
3DFACE
  8
10/leg21
 10
0.180000
 20
0.181997
 30
0.434929
 11
0.020000
 21
0.181997
 31
0.434929
 12
0.020000
 22
0.077206
 32
0.820958
 13
0.020000
 23
0.077206
 33
0.820958
  0
3DFACE
  8
10/leg21
 10
0.180000
 20
0.181997
 30
0.434929
 11
0.180000
 21
0.027586
 31
0.393012
 12
0.020000
 22
0.181997
 32
0.434929
 13
0.020000
 23
0.181997
 33
0.434929
  0
3DFACE
  8
10/leg21
 10
0.180000
 20
0.027586
 30
0.393012
 11
0.020000
 21
0.027586
 31
0.393012
 12
0.020000
 22
0.181997
 32
0.434929
 13
0.020000
 23
0.181997
 33
0.434929
  0
3DFACE
  8
10/leg21
 10
0.020000
 20
-0.077206
 30
0.779042
 11
0.020000
 21
0.077206
 31
0.820958
 12
0.020000
 22
0.027586
 32
0.393012
 13
0.020000
 23
0.027586
 33
0.393012
  0
3DFACE
  8
10/leg21
 10
0.020000
 20
0.077206
 30
0.820958
 11
0.020000
 21
0.181997
 31
0.434929
 12
0.020000
 22
0.027586
 32
0.393012
 13
0.020000
 23
0.027586
 33
0.393012
  0
3DFACE
  8
12/leg22
 10
0.180000
 20
0.286789
 30
0.048899
 11
0.180000
 21
0.181997
 31
0.434929
 12
0.180000
 22
0.132377
 32
0.006983
 13
0.180000
 23
0.132377
 33
0.006983
  0
3DFACE
  8
12/leg22
 10
0.180000
 20
0.181997
 30
0.434929
 11
0.180000
 21
0.027586
 31
0.393012
 12
0.180000
 22
0.132377
 32
0.006983
 13
0.180000
 23
0.132377
 33
0.006983
  0
3DFACE
  8
12/leg22
 10
0.180000
 20
0.132377
 30
0.006983
 11
0.180000
 21
0.027586
 31
0.393012
 12
0.020000
 22
0.132377
 32
0.006983
 13
0.020000
 23
0.132377
 33
0.006983
  0
3DFACE
  8
12/leg22
 10
0.180000
 20
0.027586
 30
0.393012
 11
0.020000
 21
0.027586
 31
0.393012
 12
0.020000
 22
0.132377
 32
0.006983
 13
0.020000
 23
0.132377
 33
0.006983
  0
3DFACE
  8
12/leg22
 10
0.180000
 20
0.027586
 30
0.393012
 11
0.180000
 21
0.181997
 31
0.434929
 12
0.020000
 22
0.027586
 32
0.393012
 13
0.020000
 23
0.027586
 33
0.393012
  0
3DFACE
  8
12/leg22
 10
0.180000
 20
0.181997
 30
0.434929
 11
0.020000
 21
0.181997
 31
0.434929
 12
0.020000
 22
0.027586
 32
0.393012
 13
0.020000
 23
0.027586
 33
0.393012
  0
3DFACE
  8
12/leg22
 10
0.180000
 20
0.181997
 30
0.434929
 11
0.180000
 21
0.286789
 31
0.048899
 12
0.020000
 22
0.181997
 32
0.434929
 13
0.020000
 23
0.181997
 33
0.434929
  0
3DFACE
  8
12/leg22
 10
0.180000
 20
0.286789
 30
0.048899
 11
0.020000
 21
0.286789
 31
0.048899
 12
0.020000
 22
0.181997
 32
0.434929
 13
0.020000
 23
0.181997
 33
0.434929
  0
3DFACE
  8
12/leg22
 10
0.180000
 20
0.286789
 30
0.048899
 11
0.180000
 21
0.132377
 31
0.006983
 12
0.020000
 22
0.286789
 32
0.048899
 13
0.020000
 23
0.286789
 33
0.048899
  0
3DFACE
  8
12/leg22
 10
0.180000
 20
0.132377
 30
0.006983
 11
0.020000
 21
0.132377
 31
0.006983
 12
0.020000
 22
0.286789
 32
0.048899
 13
0.020000
 23
0.286789
 33
0.048899
  0
3DFACE
  8
12/leg22
 10
0.020000
 20
0.027586
 30
0.393012
 11
0.020000
 21
0.181997
 31
0.434929
 12
0.020000
 22
0.132377
 32
0.006983
 13
0.020000
 23
0.132377
 33
0.006983
  0
3DFACE
  8
12/leg22
 10
0.020000
 20
0.181997
 30
0.434929
 11
0.020000
 21
0.286789
 31
0.048899
 12
0.020000
 22
0.132377
 32
0.006983
 13
0.020000
 23
0.132377
 33
0.006983
  0
3DFACE
  8
14/arm11
 10
0.360000
 20
-0.027586
 30
0.953012
 11
0.360000
 21
0.077206
 31
1.339042
 12
0.360000
 22
-0.181997
 32
0.994929
 13
0.360000
 23
-0.181997
 33
0.994929
  0
3DFACE
  8
14/arm11
 10
0.360000
 20
0.077206
 30
1.339042
 11
0.360000
 21
-0.077206
 31
1.380958
 12
0.360000
 22
-0.181997
 32
0.994929
 13
0.360000
 23
-0.181997
 33
0.994929
  0
3DFACE
  8
14/arm11
 10
0.360000
 20
-0.181997
 30
0.994929
 11
0.360000
 21
-0.077206
 31
1.380958
 12
0.200000
 22
-0.181997
 32
0.994929
 13
0.200000
 23
-0.181997
 33
0.994929
  0
3DFACE
  8
14/arm11
 10
0.360000
 20
-0.077206
 30
1.380958
 11
0.200000
 21
-0.077206
 31
1.380958
 12
0.200000
 22
-0.181997
 32
0.994929
 13
0.200000
 23
-0.181997
 33
0.994929
  0
3DFACE
  8
14/arm11
 10
0.360000
 20
-0.077206
 30
1.380958
 11
0.360000
 21
0.077206
 31
1.339042
 12
0.200000
 22
-0.077206
 32
1.380958
 13
0.200000
 23
-0.077206
 33
1.380958
  0
3DFACE
  8
14/arm11
 10
0.360000
 20
0.077206
 30
1.339042
 11
0.200000
 21
0.077206
 31
1.339042
 12
0.200000
 22
-0.077206
 32
1.380958
 13
0.200000
 23
-0.077206
 33
1.380958
  0
3DFACE
  8
14/arm11
 10
0.360000
 20
0.077206
 30
1.339042
 11
0.360000
 21
-0.027586
 31
0.953012
 12
0.200000
 22
0.077206
 32
1.339042
 13
0.200000
 23
0.077206
 33
1.339042
  0
3DFACE
  8
14/arm11
 10
0.360000
 20
-0.027586
 30
0.953012
 11
0.200000
 21
-0.027586
 31
0.953012
 12
0.200000
 22
0.077206
 32
1.339042
 13
0.200000
 23
0.077206
 33
1.339042
  0
3DFACE
  8
14/arm11
 10
0.360000
 20
-0.027586
 30
0.953012
 11
0.360000
 21
-0.181997
 31
0.994929
 12
0.200000
 22
-0.027586
 32
0.953012
 13
0.200000
 23
-0.027586
 33
0.953012
  0
3DFACE
  8
14/arm11
 10
0.360000
 20
-0.181997
 30
0.994929
 11
0.200000
 21
-0.181997
 31
0.994929
 12
0.200000
 22
-0.027586
 32
0.953012
 13
0.200000
 23
-0.027586
 33
0.953012
  0
3DFACE
  8
14/arm11
 10
0.200000
 20
-0.077206
 30
1.380958
 11
0.200000
 21
0.077206
 31
1.339042
 12
0.200000
 22
-0.181997
 32
0.994929
 13
0.200000
 23
-0.181997
 33
0.994929
  0
3DFACE
  8
14/arm11
 10
0.200000
 20
0.077206
 30
1.339042
 11
0.200000
 21
-0.027586
 31
0.953012
 12
0.200000
 22
-0.181997
 32
0.994929
 13
0.200000
 23
-0.181997
 33
0.994929
  0
3DFACE
  8
16/arm12
 10
0.360000
 20
-0.132377
 30
0.566983
 11
0.360000
 21
-0.027586
 31
0.953012
 12
0.360000
 22
-0.286789
 32
0.608900
 13
0.360000
 23
-0.286789
 33
0.608900
  0
3DFACE
  8
16/arm12
 10
0.360000
 20
-0.027586
 30
0.953012
 11
0.360000
 21
-0.181997
 31
0.994929
 12
0.360000
 22
-0.286789
 32
0.608900
 13
0.360000
 23
-0.286789
 33
0.608900
  0
3DFACE
  8
16/arm12
 10
0.360000
 20
-0.286789
 30
0.608900
 11
0.360000
 21
-0.181997
 31
0.994929
 12
0.200000
 22
-0.286789
 32
0.608900
 13
0.200000
 23
-0.286789
 33
0.608900
  0
3DFACE
  8
16/arm12
 10
0.360000
 20
-0.181997
 30
0.994929
 11
0.200000
 21
-0.181997
 31
0.994929
 12
0.200000
 22
-0.286789
 32
0.608900
 13
0.200000
 23
-0.286789
 33
0.608900
  0
3DFACE
  8
16/arm12
 10
0.360000
 20
-0.181997
 30
0.994929
 11
0.360000
 21
-0.027586
 31
0.953012
 12
0.200000
 22
-0.181997
 32
0.994929
 13
0.200000
 23
-0.181997
 33
0.994929
  0
3DFACE
  8
16/arm12
 10
0.360000
 20
-0.027586
 30
0.953012
 11
0.200000
 21
-0.027586
 31
0.953012
 12
0.200000
 22
-0.181997
 32
0.994929
 13
0.200000
 23
-0.181997
 33
0.994929
  0
3DFACE
  8
16/arm12
 10
0.360000
 20
-0.027586
 30
0.953012
 11
0.360000
 21
-0.132377
 31
0.566983
 12
0.200000
 22
-0.027586
 32
0.953012
 13
0.200000
 23
-0.027586
 33
0.953012
  0
3DFACE
  8
16/arm12
 10
0.360000
 20
-0.132377
 30
0.566983
 11
0.200000
 21
-0.132377
 31
0.566983
 12
0.200000
 22
-0.027586
 32
0.953012
 13
0.200000
 23
-0.027586
 33
0.953012
  0
3DFACE
  8
16/arm12
 10
0.360000
 20
-0.132377
 30
0.566983
 11
0.360000
 21
-0.286789
 31
0.608900
 12
0.200000
 22
-0.132377
 32
0.566983
 13
0.200000
 23
-0.132377
 33
0.566983
  0
3DFACE
  8
16/arm12
 10
0.360000
 20
-0.286789
 30
0.608900
 11
0.200000
 21
-0.286789
 31
0.608900
 12
0.200000
 22
-0.132377
 32
0.566983
 13
0.200000
 23
-0.132377
 33
0.566983
  0
3DFACE
  8
16/arm12
 10
0.200000
 20
-0.181997
 30
0.994929
 11
0.200000
 21
-0.027586
 31
0.953012
 12
0.200000
 22
-0.286789
 32
0.608900
 13
0.200000
 23
-0.286789
 33
0.608900
  0
3DFACE
  8
16/arm12
 10
0.200000
 20
-0.027586
 30
0.953012
 11
0.200000
 21
-0.132377
 31
0.566983
 12
0.200000
 22
-0.286789
 32
0.608900
 13
0.200000
 23
-0.286789
 33
0.608900
  0
3DFACE
  8
18/arm21
 10
-0.360000
 20
0.077206
 30
1.380958
 11
-0.360000
 21
0.181997
 31
0.994929
 12
-0.360000
 22
0.027586
 32
0.953012
 13
-0.360000
 23
0.027586
 33
0.953012
  0
3DFACE
  8
18/arm21
 10
-0.360000
 20
-0.077206
 30
1.339042
 11
-0.360000
 21
0.077206
 31
1.380958
 12
-0.360000
 22
0.027586
 32
0.953012
 13
-0.360000
 23
0.027586
 33
0.953012
  0
3DFACE
  8
18/arm21
 10
-0.360000
 20
-0.077206
 30
1.339042
 11
-0.360000
 21
0.027586
 31
0.953012
 12
-0.200000
 22
0.027586
 32
0.953012
 13
-0.200000
 23
0.027586
 33
0.953012
  0
3DFACE
  8
18/arm21
 10
-0.200000
 20
-0.077206
 30
1.339042
 11
-0.360000
 21
-0.077206
 31
1.339042
 12
-0.200000
 22
0.027586
 32
0.953012
 13
-0.200000
 23
0.027586
 33
0.953012
  0
3DFACE
  8
18/arm21
 10
-0.360000
 20
0.077206
 30
1.380958
 11
-0.360000
 21
-0.077206
 31
1.339042
 12
-0.200000
 22
-0.077206
 32
1.339042
 13
-0.200000
 23
-0.077206
 33
1.339042
  0
3DFACE
  8
18/arm21
 10
-0.200000
 20
0.077206
 30
1.380958
 11
-0.360000
 21
0.077206
 31
1.380958
 12
-0.200000
 22
-0.077206
 32
1.339042
 13
-0.200000
 23
-0.077206
 33
1.339042
  0
3DFACE
  8
18/arm21
 10
-0.360000
 20
0.181997
 30
0.994929
 11
-0.360000
 21
0.077206
 31
1.380958
 12
-0.200000
 22
0.077206
 32
1.380958
 13
-0.200000
 23
0.077206
 33
1.380958
  0
3DFACE
  8
18/arm21
 10
-0.200000
 20
0.181997
 30
0.994929
 11
-0.360000
 21
0.181997
 31
0.994929
 12
-0.200000
 22
0.077206
 32
1.380958
 13
-0.200000
 23
0.077206
 33
1.380958
  0
3DFACE
  8
18/arm21
 10
-0.360000
 20
0.027586
 30
0.953012
 11
-0.360000
 21
0.181997
 31
0.994929
 12
-0.200000
 22
0.181997
 32
0.994929
 13
-0.200000
 23
0.181997
 33
0.994929
  0
3DFACE
  8
18/arm21
 10
-0.200000
 20
0.027586
 30
0.953012
 11
-0.360000
 21
0.027586
 31
0.953012
 12
-0.200000
 22
0.181997
 32
0.994929
 13
-0.200000
 23
0.181997
 33
0.994929
  0
3DFACE
  8
18/arm21
 10
-0.200000
 20
0.077206
 30
1.380958
 11
-0.200000
 21
-0.077206
 31
1.339042
 12
-0.200000
 22
0.027586
 32
0.953012
 13
-0.200000
 23
0.027586
 33
0.953012
  0
3DFACE
  8
18/arm21
 10
-0.200000
 20
0.181997
 30
0.994929
 11
-0.200000
 21
0.077206
 31
1.380958
 12
-0.200000
 22
0.027586
 32
0.953012
 13
-0.200000
 23
0.027586
 33
0.953012
  0
3DFACE
  8
20/arm22
 10
-0.360000
 20
0.181997
 30
0.994929
 11
-0.360000
 21
0.286789
 31
0.608900
 12
-0.360000
 22
0.132377
 32
0.566983
 13
-0.360000
 23
0.132377
 33
0.566983
  0
3DFACE
  8
20/arm22
 10
-0.360000
 20
0.027586
 30
0.953012
 11
-0.360000
 21
0.181997
 31
0.994929
 12
-0.360000
 22
0.132377
 32
0.566983
 13
-0.360000
 23
0.132377
 33
0.566983
  0
3DFACE
  8
20/arm22
 10
-0.360000
 20
0.027586
 30
0.953012
 11
-0.360000
 21
0.132377
 31
0.566983
 12
-0.200000
 22
0.132377
 32
0.566983
 13
-0.200000
 23
0.132377
 33
0.566983
  0
3DFACE
  8
20/arm22
 10
-0.200000
 20
0.027586
 30
0.953012
 11
-0.360000
 21
0.027586
 31
0.953012
 12
-0.200000
 22
0.132377
 32
0.566983
 13
-0.200000
 23
0.132377
 33
0.566983
  0
3DFACE
  8
20/arm22
 10
-0.360000
 20
0.181997
 30
0.994929
 11
-0.360000
 21
0.027586
 31
0.953012
 12
-0.200000
 22
0.027586
 32
0.953012
 13
-0.200000
 23
0.027586
 33
0.953012
  0
3DFACE
  8
20/arm22
 10
-0.200000
 20
0.181997
 30
0.994929
 11
-0.360000
 21
0.181997
 31
0.994929
 12
-0.200000
 22
0.027586
 32
0.953012
 13
-0.200000
 23
0.027586
 33
0.953012
  0
3DFACE
  8
20/arm22
 10
-0.360000
 20
0.286789
 30
0.608900
 11
-0.360000
 21
0.181997
 31
0.994929
 12
-0.200000
 22
0.181997
 32
0.994929
 13
-0.200000
 23
0.181997
 33
0.994929
  0
3DFACE
  8
20/arm22
 10
-0.200000
 20
0.286789
 30
0.608900
 11
-0.360000
 21
0.286789
 31
0.608900
 12
-0.200000
 22
0.181997
 32
0.994929
 13
-0.200000
 23
0.181997
 33
0.994929
  0
3DFACE
  8
20/arm22
 10
-0.360000
 20
0.132377
 30
0.566983
 11
-0.360000
 21
0.286789
 31
0.608900
 12
-0.200000
 22
0.286789
 32
0.608900
 13
-0.200000
 23
0.286789
 33
0.608900
  0
3DFACE
  8
20/arm22
 10
-0.200000
 20
0.132377
 30
0.566983
 11
-0.360000
 21
0.132377
 31
0.566983
 12
-0.200000
 22
0.286789
 32
0.608900
 13
-0.200000
 23
0.286789
 33
0.608900
  0
3DFACE
  8
20/arm22
 10
-0.200000
 20
0.181997
 30
0.994929
 11
-0.200000
 21
0.027586
 31
0.953012
 12
-0.200000
 22
0.132377
 32
0.566983
 13
-0.200000
 23
0.132377
 33
0.566983
  0
3DFACE
  8
20/arm22
 10
-0.200000
 20
0.286789
 30
0.608900
 11
-0.200000
 21
0.181997
 31
0.994929
 12
-0.200000
 22
0.132377
 32
0.566983
 13
-0.200000
 23
0.132377
 33
0.566983
  0
ENDSEC
  0
EOF
