  0
SECTION
  2
ENTITIES
  0
3DFACE
  8
2/head
 10
0.099188
 20
0.141421
 30
1.500812
 11
0.000000
 21
0.200000
 31
1.600000
 12
0.141421
 22
0.141421
 32
1.600000
 13
0.141421
 23
0.141421
 33
1.600000
  0
3DFACE
  8
2/head
 10
0.099188
 20
0.141421
 30
1.500812
 11
0.141421
 21
0.141421
 31
1.600000
 12
0.200000
 22
0.000000
 32
1.600000
 13
0.200000
 23
0.000000
 33
1.600000
  0
3DFACE
  8
2/head
 10
0.200000
 20
0.000000
 30
1.600000
 11
0.141421
 21
0.000000
 31
1.458579
 12
0.099188
 22
0.141421
 32
1.500812
 13
0.099188
 23
0.141421
 33
1.500812
  0
3DFACE
  8
2/head
 10
0.141421
 20
0.000000
 30
1.458579
 11
0.200000
 21
0.000000
 31
1.600000
 12
0.141421
 22
-0.141421
 32
1.600000
 13
0.141421
 23
-0.141421
 33
1.600000
  0
3DFACE
  8
2/head
 10
0.141421
 20
-0.141421
 30
1.600000
 11
0.099188
 21
-0.141421
 31
1.500812
 12
0.141421
 22
0.000000
 32
1.458579
 13
0.141421
 23
0.000000
 33
1.458579
  0
3DFACE
  8
2/head
 10
0.000000
 20
-0.200000
 30
1.600000
 11
0.099188
 21
-0.141421
 31
1.500812
 12
0.141421
 22
-0.141421
 32
1.600000
 13
0.141421
 23
-0.141421
 33
1.600000
  0
3DFACE
  8
2/head
 10
0.000000
 20
0.141421
 30
1.458579
 11
0.000000
 21
0.200000
 31
1.600000
 12
0.099188
 22
0.141421
 32
1.500812
 13
0.099188
 23
0.141421
 33
1.500812
  0
3DFACE
  8
2/head
 10
0.000000
 20
0.141421
 30
1.458579
 11
0.099188
 21
0.141421
 31
1.500812
 12
0.141421
 22
0.000000
 32
1.458579
 13
0.141421
 23
0.000000
 33
1.458579
  0
3DFACE
  8
2/head
 10
0.141421
 20
0.000000
 30
1.458579
 11
0.000000
 21
0.000000
 31
1.400000
 12
0.000000
 22
0.141421
 32
1.458579
 13
0.000000
 23
0.141421
 33
1.458579
  0
3DFACE
  8
2/head
 10
0.000000
 20
0.000000
 30
1.400000
 11
0.141421
 21
0.000000
 31
1.458579
 12
0.099188
 22
-0.141421
 32
1.500812
 13
0.099188
 23
-0.141421
 33
1.500812
  0
3DFACE
  8
2/head
 10
0.099188
 20
-0.141421
 30
1.500812
 11
0.000000
 21
-0.141421
 31
1.458579
 12
0.000000
 22
0.000000
 32
1.400000
 13
0.000000
 23
0.000000
 33
1.400000
  0
3DFACE
  8
2/head
 10
0.000000
 20
-0.200000
 30
1.600000
 11
0.000000
 21
-0.141421
 31
1.458579
 12
0.099188
 22
-0.141421
 32
1.500812
 13
0.099188
 23
-0.141421
 33
1.500812
  0
3DFACE
  8
2/head
 10
-0.099188
 20
0.141421
 30
1.500812
 11
0.000000
 21
0.200000
 31
1.600000
 12
0.000000
 22
0.141421
 32
1.458579
 13
0.000000
 23
0.141421
 33
1.458579
  0
3DFACE
  8
2/head
 10
-0.099188
 20
0.141421
 30
1.500812
 11
0.000000
 21
0.141421
 31
1.458579
 12
0.000000
 22
0.000000
 32
1.400000
 13
0.000000
 23
0.000000
 33
1.400000
  0
3DFACE
  8
2/head
 10
0.000000
 20
0.000000
 30
1.400000
 11
-0.141421
 21
0.000000
 31
1.458579
 12
-0.099188
 22
0.141421
 32
1.500812
 13
-0.099188
 23
0.141421
 33
1.500812
  0
3DFACE
  8
2/head
 10
-0.141421
 20
0.000000
 30
1.458579
 11
0.000000
 21
0.000000
 31
1.400000
 12
0.000000
 22
-0.141421
 32
1.458579
 13
0.000000
 23
-0.141421
 33
1.458579
  0
3DFACE
  8
2/head
 10
0.000000
 20
-0.141421
 30
1.458579
 11
-0.099188
 21
-0.141421
 31
1.500812
 12
-0.141421
 22
0.000000
 32
1.458579
 13
-0.141421
 23
0.000000
 33
1.458579
  0
3DFACE
  8
2/head
 10
0.000000
 20
-0.200000
 30
1.600000
 11
-0.099188
 21
-0.141421
 31
1.500812
 12
0.000000
 22
-0.141421
 32
1.458579
 13
0.000000
 23
-0.141421
 33
1.458579
  0
3DFACE
  8
2/head
 10
-0.141421
 20
0.141421
 30
1.600000
 11
0.000000
 21
0.200000
 31
1.600000
 12
-0.099188
 22
0.141421
 32
1.500812
 13
-0.099188
 23
0.141421
 33
1.500812
  0
3DFACE
  8
2/head
 10
-0.141421
 20
0.141421
 30
1.600000
 11
-0.099188
 21
0.141421
 31
1.500812
 12
-0.141421
 22
0.000000
 32
1.458579
 13
-0.141421
 23
0.000000
 33
1.458579
  0
3DFACE
  8
2/head
 10
-0.141421
 20
0.000000
 30
1.458579
 11
-0.200000
 21
0.000000
 31
1.600000
 12
-0.141421
 22
0.141421
 32
1.600000
 13
-0.141421
 23
0.141421
 33
1.600000
  0
3DFACE
  8
2/head
 10
-0.200000
 20
0.000000
 30
1.600000
 11
-0.141421
 21
0.000000
 31
1.458579
 12
-0.099188
 22
-0.141421
 32
1.500812
 13
-0.099188
 23
-0.141421
 33
1.500812
  0
3DFACE
  8
2/head
 10
-0.099188
 20
-0.141421
 30
1.500812
 11
-0.141421
 21
-0.141421
 31
1.600000
 12
-0.200000
 22
0.000000
 32
1.600000
 13
-0.200000
 23
0.000000
 33
1.600000
  0
3DFACE
  8
2/head
 10
0.000000
 20
-0.200000
 30
1.600000
 11
-0.141421
 21
-0.141421
 31
1.600000
 12
-0.099188
 22
-0.141421
 32
1.500812
 13
-0.099188
 23
-0.141421
 33
1.500812
  0
3DFACE
  8
2/head
 10
-0.099188
 20
0.141421
 30
1.699188
 11
0.000000
 21
0.200000
 31
1.600000
 12
-0.141421
 22
0.141421
 32
1.600000
 13
-0.141421
 23
0.141421
 33
1.600000
  0
3DFACE
  8
2/head
 10
-0.099188
 20
0.141421
 30
1.699188
 11
-0.141421
 21
0.141421
 31
1.600000
 12
-0.200000
 22
0.000000
 32
1.600000
 13
-0.200000
 23
0.000000
 33
1.600000
  0
3DFACE
  8
2/head
 10
-0.200000
 20
0.000000
 30
1.600000
 11
-0.141421
 21
0.000000
 31
1.741421
 12
-0.099188
 22
0.141421
 32
1.699188
 13
-0.099188
 23
0.141421
 33
1.699188
  0
3DFACE
  8
2/head
 10
-0.141421
 20
0.000000
 30
1.741421
 11
-0.200000
 21
0.000000
 31
1.600000
 12
-0.141421
 22
-0.141421
 32
1.600000
 13
-0.141421
 23
-0.141421
 33
1.600000
  0
3DFACE
  8
2/head
 10
-0.141421
 20
-0.141421
 30
1.600000
 11
-0.099188
 21
-0.141421
 31
1.699188
 12
-0.141421
 22
0.000000
 32
1.741421
 13
-0.141421
 23
0.000000
 33
1.741421
  0
3DFACE
  8
2/head
 10
0.000000
 20
-0.200000
 30
1.600000
 11
-0.099188
 21
-0.141421
 31
1.699188
 12
-0.141421
 22
-0.141421
 32
1.600000
 13
-0.141421
 23
-0.141421
 33
1.600000
  0
3DFACE
  8
2/head
 10
0.000000
 20
0.141421
 30
1.741421
 11
0.000000
 21
0.200000
 31
1.600000
 12
-0.099188
 22
0.141421
 32
1.699188
 13
-0.099188
 23
0.141421
 33
1.699188
  0
3DFACE
  8
2/head
 10
0.000000
 20
0.141421
 30
1.741421
 11
-0.099188
 21
0.141421
 31
1.699188
 12
-0.141421
 22
0.000000
 32
1.741421
 13
-0.141421
 23
0.000000
 33
1.741421
  0
3DFACE
  8
2/head
 10
-0.141421
 20
0.000000
 30
1.741421
 11
0.000000
 21
0.000000
 31
1.800000
 12
0.000000
 22
0.141421
 32
1.741421
 13
0.000000
 23
0.141421
 33
1.741421
  0
3DFACE
  8
2/head
 10
0.000000
 20
0.000000
 30
1.800000
 11
-0.141421
 21
0.000000
 31
1.741421
 12
-0.099188
 22
-0.141421
 32
1.699188
 13
-0.099188
 23
-0.141421
 33
1.699188
  0
3DFACE
  8
2/head
 10
-0.099188
 20
-0.141421
 30
1.699188
 11
0.000000
 21
-0.141421
 31
1.741421
 12
0.000000
 22
0.000000
 32
1.800000
 13
0.000000
 23
0.000000
 33
1.800000
  0
3DFACE
  8
2/head
 10
0.000000
 20
-0.200000
 30
1.600000
 11
0.000000
 21
-0.141421
 31
1.741421
 12
-0.099188
 22
-0.141421
 32
1.699188
 13
-0.099188
 23
-0.141421
 33
1.699188
  0
3DFACE
  8
2/head
 10
0.099188
 20
0.141421
 30
1.699188
 11
0.000000
 21
0.200000
 31
1.600000
 12
0.000000
 22
0.141421
 32
1.741421
 13
0.000000
 23
0.141421
 33
1.741421
  0
3DFACE
  8
2/head
 10
0.099188
 20
0.141421
 30
1.699188
 11
0.000000
 21
0.141421
 31
1.741421
 12
0.000000
 22
0.000000
 32
1.800000
 13
0.000000
 23
0.000000
 33
1.800000
  0
3DFACE
  8
2/head
 10
0.000000
 20
0.000000
 30
1.800000
 11
0.141421
 21
0.000000
 31
1.741421
 12
0.099188
 22
0.141421
 32
1.699188
 13
0.099188
 23
0.141421
 33
1.699188
  0
3DFACE
  8
2/head
 10
0.141421
 20
0.000000
 30
1.741421
 11
0.000000
 21
0.000000
 31
1.800000
 12
0.000000
 22
-0.141421
 32
1.741421
 13
0.000000
 23
-0.141421
 33
1.741421
  0
3DFACE
  8
2/head
 10
0.000000
 20
-0.141421
 30
1.741421
 11
0.099188
 21
-0.141421
 31
1.699188
 12
0.141421
 22
0.000000
 32
1.741421
 13
0.141421
 23
0.000000
 33
1.741421
  0
3DFACE
  8
2/head
 10
0.000000
 20
-0.200000
 30
1.600000
 11
0.099188
 21
-0.141421
 31
1.699188
 12
0.000000
 22
-0.141421
 32
1.741421
 13
0.000000
 23
-0.141421
 33
1.741421
  0
3DFACE
  8
2/head
 10
0.141421
 20
0.141421
 30
1.600000
 11
0.000000
 21
0.200000
 31
1.600000
 12
0.099188
 22
0.141421
 32
1.699188
 13
0.099188
 23
0.141421
 33
1.699188
  0
3DFACE
  8
2/head
 10
0.141421
 20
0.141421
 30
1.600000
 11
0.099188
 21
0.141421
 31
1.699188
 12
0.141421
 22
0.000000
 32
1.741421
 13
0.141421
 23
0.000000
 33
1.741421
  0
3DFACE
  8
2/head
 10
0.141421
 20
0.000000
 30
1.741421
 11
0.200000
 21
0.000000
 31
1.600000
 12
0.141421
 22
0.141421
 32
1.600000
 13
0.141421
 23
0.141421
 33
1.600000
  0
3DFACE
  8
2/head
 10
0.200000
 20
0.000000
 30
1.600000
 11
0.141421
 21
0.000000
 31
1.741421
 12
0.099188
 22
-0.141421
 32
1.699188
 13
0.099188
 23
-0.141421
 33
1.699188
  0
3DFACE
  8
2/head
 10
0.099188
 20
-0.141421
 30
1.699188
 11
0.141421
 21
-0.141421
 31
1.600000
 12
0.200000
 22
0.000000
 32
1.600000
 13
0.200000
 23
0.000000
 33
1.600000
  0
3DFACE
  8
2/head
 10
0.000000
 20
-0.200000
 30
1.600000
 11
0.141421
 21
-0.141421
 31
1.600000
 12
0.099188
 22
-0.141421
 32
1.699188
 13
0.099188
 23
-0.141421
 33
1.699188
  0
3DFACE
  8
4/body
 10
-0.200000
 20
0.080000
 30
1.400000
 11
-0.200000
 21
0.080000
 31
0.800000
 12
-0.200000
 22
-0.080000
 32
0.800000
 13
-0.200000
 23
-0.080000
 33
0.800000
  0
3DFACE
  8
4/body
 10
-0.200000
 20
-0.080000
 30
1.400000
 11
-0.200000
 21
0.080000
 31
1.400000
 12
-0.200000
 22
-0.080000
 32
0.800000
 13
-0.200000
 23
-0.080000
 33
0.800000
  0
3DFACE
  8
4/body
 10
-0.200000
 20
-0.080000
 30
1.400000
 11
-0.200000
 21
-0.080000
 31
0.800000
 12
0.200000
 22
-0.080000
 32
0.800000
 13
0.200000
 23
-0.080000
 33
0.800000
  0
3DFACE
  8
4/body
 10
0.200000
 20
-0.080000
 30
1.400000
 11
-0.200000
 21
-0.080000
 31
1.400000
 12
0.200000
 22
-0.080000
 32
0.800000
 13
0.200000
 23
-0.080000
 33
0.800000
  0
3DFACE
  8
4/body
 10
-0.200000
 20
0.080000
 30
1.400000
 11
-0.200000
 21
-0.080000
 31
1.400000
 12
0.200000
 22
-0.080000
 32
1.400000
 13
0.200000
 23
-0.080000
 33
1.400000
  0
3DFACE
  8
4/body
 10
0.200000
 20
0.080000
 30
1.400000
 11
-0.200000
 21
0.080000
 31
1.400000
 12
0.200000
 22
-0.080000
 32
1.400000
 13
0.200000
 23
-0.080000
 33
1.400000
  0
3DFACE
  8
4/body
 10
-0.200000
 20
0.080000
 30
0.800000
 11
-0.200000
 21
0.080000
 31
1.400000
 12
0.200000
 22
0.080000
 32
1.400000
 13
0.200000
 23
0.080000
 33
1.400000
  0
3DFACE
  8
4/body
 10
0.200000
 20
0.080000
 30
0.800000
 11
-0.200000
 21
0.080000
 31
0.800000
 12
0.200000
 22
0.080000
 32
1.400000
 13
0.200000
 23
0.080000
 33
1.400000
  0
3DFACE
  8
4/body
 10
-0.200000
 20
-0.080000
 30
0.800000
 11
-0.200000
 21
0.080000
 31
0.800000
 12
0.200000
 22
0.080000
 32
0.800000
 13
0.200000
 23
0.080000
 33
0.800000
  0
3DFACE
  8
4/body
 10
0.200000
 20
-0.080000
 30
0.800000
 11
-0.200000
 21
-0.080000
 31
0.800000
 12
0.200000
 22
0.080000
 32
0.800000
 13
0.200000
 23
0.080000
 33
0.800000
  0
3DFACE
  8
4/body
 10
0.200000
 20
0.080000
 30
1.400000
 11
0.200000
 21
-0.080000
 31
1.400000
 12
0.200000
 22
-0.080000
 32
0.800000
 13
0.200000
 23
-0.080000
 33
0.800000
  0
3DFACE
  8
4/body
 10
0.200000
 20
0.080000
 30
0.800000
 11
0.200000
 21
0.080000
 31
1.400000
 12
0.200000
 22
-0.080000
 32
0.800000
 13
0.200000
 23
-0.080000
 33
0.800000
  0
3DFACE
  8
6/leg11
 10
-0.180000
 20
0.076889
 30
0.822093
 11
-0.180000
 21
0.187354
 31
0.437648
 12
-0.180000
 22
0.033576
 32
0.393463
 13
-0.180000
 23
0.033576
 33
0.393463
  0
3DFACE
  8
6/leg11
 10
-0.180000
 20
-0.076889
 30
0.777907
 11
-0.180000
 21
0.076889
 31
0.822093
 12
-0.180000
 22
0.033576
 32
0.393463
 13
-0.180000
 23
0.033576
 33
0.393463
  0
3DFACE
  8
6/leg11
 10
-0.180000
 20
-0.076889
 30
0.777907
 11
-0.180000
 21
0.033576
 31
0.393463
 12
-0.020000
 22
0.033576
 32
0.393463
 13
-0.020000
 23
0.033576
 33
0.393463
  0
3DFACE
  8
6/leg11
 10
-0.020000
 20
-0.076889
 30
0.777907
 11
-0.180000
 21
-0.076889
 31
0.777907
 12
-0.020000
 22
0.033576
 32
0.393463
 13
-0.020000
 23
0.033576
 33
0.393463
  0
3DFACE
  8
6/leg11
 10
-0.180000
 20
0.076889
 30
0.822093
 11
-0.180000
 21
-0.076889
 31
0.777907
 12
-0.020000
 22
-0.076889
 32
0.777907
 13
-0.020000
 23
-0.076889
 33
0.777907
  0
3DFACE
  8
6/leg11
 10
-0.020000
 20
0.076889
 30
0.822093
 11
-0.180000
 21
0.076889
 31
0.822093
 12
-0.020000
 22
-0.076889
 32
0.777907
 13
-0.020000
 23
-0.076889
 33
0.777907
  0
3DFACE
  8
6/leg11
 10
-0.180000
 20
0.187354
 30
0.437648
 11
-0.180000
 21
0.076889
 31
0.822093
 12
-0.020000
 22
0.076889
 32
0.822093
 13
-0.020000
 23
0.076889
 33
0.822093
  0
3DFACE
  8
6/leg11
 10
-0.020000
 20
0.187354
 30
0.437648
 11
-0.180000
 21
0.187354
 31
0.437648
 12
-0.020000
 22
0.076889
 32
0.822093
 13
-0.020000
 23
0.076889
 33
0.822093
  0
3DFACE
  8
6/leg11
 10
-0.180000
 20
0.033576
 30
0.393463
 11
-0.180000
 21
0.187354
 31
0.437648
 12
-0.020000
 22
0.187354
 32
0.437648
 13
-0.020000
 23
0.187354
 33
0.437648
  0
3DFACE
  8
6/leg11
 10
-0.020000
 20
0.033576
 30
0.393463
 11
-0.180000
 21
0.033576
 31
0.393463
 12
-0.020000
 22
0.187354
 32
0.437648
 13
-0.020000
 23
0.187354
 33
0.437648
  0
3DFACE
  8
6/leg11
 10
-0.020000
 20
0.076889
 30
0.822093
 11
-0.020000
 21
-0.076889
 31
0.777907
 12
-0.020000
 22
0.033576
 32
0.393463
 13
-0.020000
 23
0.033576
 33
0.393463
  0
3DFACE
  8
6/leg11
 10
-0.020000
 20
0.187354
 30
0.437648
 11
-0.020000
 21
0.076889
 31
0.822093
 12
-0.020000
 22
0.033576
 32
0.393463
 13
-0.020000
 23
0.033576
 33
0.393463
  0
3DFACE
  8
8/leg12
 10
-0.180000
 20
0.187354
 30
0.437648
 11
-0.180000
 21
0.297818
 31
0.053204
 12
-0.180000
 22
0.144040
 32
0.009018
 13
-0.180000
 23
0.144040
 33
0.009018
  0
3DFACE
  8
8/leg12
 10
-0.180000
 20
0.033576
 30
0.393463
 11
-0.180000
 21
0.187354
 31
0.437648
 12
-0.180000
 22
0.144040
 32
0.009018
 13
-0.180000
 23
0.144040
 33
0.009018
  0
3DFACE
  8
8/leg12
 10
-0.180000
 20
0.033576
 30
0.393463
 11
-0.180000
 21
0.144040
 31
0.009018
 12
-0.020000
 22
0.144040
 32
0.009018
 13
-0.020000
 23
0.144040
 33
0.009018
  0
3DFACE
  8
8/leg12
 10
-0.020000
 20
0.033576
 30
0.393463
 11
-0.180000
 21
0.033576
 31
0.393463
 12
-0.020000
 22
0.144040
 32
0.009018
 13
-0.020000
 23
0.144040
 33
0.009018
  0
3DFACE
  8
8/leg12
 10
-0.180000
 20
0.187354
 30
0.437648
 11
-0.180000
 21
0.033576
 31
0.393463
 12
-0.020000
 22
0.033576
 32
0.393463
 13
-0.020000
 23
0.033576
 33
0.393463
  0
3DFACE
  8
8/leg12
 10
-0.020000
 20
0.187354
 30
0.437648
 11
-0.180000
 21
0.187354
 31
0.437648
 12
-0.020000
 22
0.033576
 32
0.393463
 13
-0.020000
 23
0.033576
 33
0.393463
  0
3DFACE
  8
8/leg12
 10
-0.180000
 20
0.297818
 30
0.053204
 11
-0.180000
 21
0.187354
 31
0.437648
 12
-0.020000
 22
0.187354
 32
0.437648
 13
-0.020000
 23
0.187354
 33
0.437648
  0
3DFACE
  8
8/leg12
 10
-0.020000
 20
0.297818
 30
0.053204
 11
-0.180000
 21
0.297818
 31
0.053204
 12
-0.020000
 22
0.187354
 32
0.437648
 13
-0.020000
 23
0.187354
 33
0.437648
  0
3DFACE
  8
8/leg12
 10
-0.180000
 20
0.144040
 30
0.009018
 11
-0.180000
 21
0.297818
 31
0.053204
 12
-0.020000
 22
0.297818
 32
0.053204
 13
-0.020000
 23
0.297818
 33
0.053204
  0
3DFACE
  8
8/leg12
 10
-0.020000
 20
0.144040
 30
0.009018
 11
-0.180000
 21
0.144040
 31
0.009018
 12
-0.020000
 22
0.297818
 32
0.053204
 13
-0.020000
 23
0.297818
 33
0.053204
  0
3DFACE
  8
8/leg12
 10
-0.020000
 20
0.187354
 30
0.437648
 11
-0.020000
 21
0.033576
 31
0.393463
 12
-0.020000
 22
0.144040
 32
0.009018
 13
-0.020000
 23
0.144040
 33
0.009018
  0
3DFACE
  8
8/leg12
 10
-0.020000
 20
0.297818
 30
0.053204
 11
-0.020000
 21
0.187354
 31
0.437648
 12
-0.020000
 22
0.144040
 32
0.009018
 13
-0.020000
 23
0.144040
 33
0.009018
  0
3DFACE
  8
10/leg21
 10
0.180000
 20
-0.033576
 30
0.393463
 11
0.180000
 21
0.076889
 31
0.777907
 12
0.180000
 22
-0.187354
 32
0.437648
 13
0.180000
 23
-0.187354
 33
0.437648
  0
3DFACE
  8
10/leg21
 10
0.180000
 20
0.076889
 30
0.777907
 11
0.180000
 21
-0.076889
 31
0.822093
 12
0.180000
 22
-0.187354
 32
0.437648
 13
0.180000
 23
-0.187354
 33
0.437648
  0
3DFACE
  8
10/leg21
 10
0.180000
 20
-0.187354
 30
0.437648
 11
0.180000
 21
-0.076889
 31
0.822093
 12
0.020000
 22
-0.187354
 32
0.437648
 13
0.020000
 23
-0.187354
 33
0.437648
  0
3DFACE
  8
10/leg21
 10
0.180000
 20
-0.076889
 30
0.822093
 11
0.020000
 21
-0.076889
 31
0.822093
 12
0.020000
 22
-0.187354
 32
0.437648
 13
0.020000
 23
-0.187354
 33
0.437648
  0
3DFACE
  8
10/leg21
 10
0.180000
 20
-0.076889
 30
0.822093
 11
0.180000
 21
0.076889
 31
0.777907
 12
0.020000
 22
-0.076889
 32
0.822093
 13
0.020000
 23
-0.076889
 33
0.822093
  0
3DFACE
  8
10/leg21
 10
0.180000
 20
0.076889
 30
0.777907
 11
0.020000
 21
0.076889
 31
0.777907
 12
0.020000
 22
-0.076889
 32
0.822093
 13
0.020000
 23
-0.076889
 33
0.822093
  0
3DFACE
  8
10/leg21
 10
0.180000
 20
0.076889
 30
0.777907
 11
0.180000
 21
-0.033576
 31
0.393463
 12
0.020000
 22
0.076889
 32
0.777907
 13
0.020000
 23
0.076889
 33
0.777907
  0
3DFACE
  8
10/leg21
 10
0.180000
 20
-0.033576
 30
0.393463
 11
0.020000
 21
-0.033576
 31
0.393463
 12
0.020000
 22
0.076889
 32
0.777907
 13
0.020000
 23
0.076889
 33
0.777907
  0
3DFACE
  8
10/leg21
 10
0.180000
 20
-0.033576
 30
0.393463
 11
0.180000
 21
-0.187354
 31
0.437648
 12
0.020000
 22
-0.033576
 32
0.393463
 13
0.020000
 23
-0.033576
 33
0.393463
  0
3DFACE
  8
10/leg21
 10
0.180000
 20
-0.187354
 30
0.437648
 11
0.020000
 21
-0.187354
 31
0.437648
 12
0.020000
 22
-0.033576
 32
0.393463
 13
0.020000
 23
-0.033576
 33
0.393463
  0
3DFACE
  8
10/leg21
 10
0.020000
 20
-0.076889
 30
0.822093
 11
0.020000
 21
0.076889
 31
0.777907
 12
0.020000
 22
-0.187354
 32
0.437648
 13
0.020000
 23
-0.187354
 33
0.437648
  0
3DFACE
  8
10/leg21
 10
0.020000
 20
0.076889
 30
0.777907
 11
0.020000
 21
-0.033576
 31
0.393463
 12
0.020000
 22
-0.187354
 32
0.437648
 13
0.020000
 23
-0.187354
 33
0.437648
  0
3DFACE
  8
12/leg22
 10
0.180000
 20
-0.144040
 30
0.009018
 11
0.180000
 21
-0.033576
 31
0.393463
 12
0.180000
 22
-0.297818
 32
0.053204
 13
0.180000
 23
-0.297818
 33
0.053204
  0
3DFACE
  8
12/leg22
 10
0.180000
 20
-0.033576
 30
0.393463
 11
0.180000
 21
-0.187354
 31
0.437648
 12
0.180000
 22
-0.297818
 32
0.053204
 13
0.180000
 23
-0.297818
 33
0.053204
  0
3DFACE
  8
12/leg22
 10
0.180000
 20
-0.297818
 30
0.053204
 11
0.180000
 21
-0.187354
 31
0.437648
 12
0.020000
 22
-0.297818
 32
0.053204
 13
0.020000
 23
-0.297818
 33
0.053204
  0
3DFACE
  8
12/leg22
 10
0.180000
 20
-0.187354
 30
0.437648
 11
0.020000
 21
-0.187354
 31
0.437648
 12
0.020000
 22
-0.297818
 32
0.053204
 13
0.020000
 23
-0.297818
 33
0.053204
  0
3DFACE
  8
12/leg22
 10
0.180000
 20
-0.187354
 30
0.437648
 11
0.180000
 21
-0.033576
 31
0.393463
 12
0.020000
 22
-0.187354
 32
0.437648
 13
0.020000
 23
-0.187354
 33
0.437648
  0
3DFACE
  8
12/leg22
 10
0.180000
 20
-0.033576
 30
0.393463
 11
0.020000
 21
-0.033576
 31
0.393463
 12
0.020000
 22
-0.187354
 32
0.437648
 13
0.020000
 23
-0.187354
 33
0.437648
  0
3DFACE
  8
12/leg22
 10
0.180000
 20
-0.033576
 30
0.393463
 11
0.180000
 21
-0.144040
 31
0.009018
 12
0.020000
 22
-0.033576
 32
0.393463
 13
0.020000
 23
-0.033576
 33
0.393463
  0
3DFACE
  8
12/leg22
 10
0.180000
 20
-0.144040
 30
0.009018
 11
0.020000
 21
-0.144040
 31
0.009018
 12
0.020000
 22
-0.033576
 32
0.393463
 13
0.020000
 23
-0.033576
 33
0.393463
  0
3DFACE
  8
12/leg22
 10
0.180000
 20
-0.144040
 30
0.009018
 11
0.180000
 21
-0.297818
 31
0.053204
 12
0.020000
 22
-0.144040
 32
0.009018
 13
0.020000
 23
-0.144040
 33
0.009018
  0
3DFACE
  8
12/leg22
 10
0.180000
 20
-0.297818
 30
0.053204
 11
0.020000
 21
-0.297818
 31
0.053204
 12
0.020000
 22
-0.144040
 32
0.009018
 13
0.020000
 23
-0.144040
 33
0.009018
  0
3DFACE
  8
12/leg22
 10
0.020000
 20
-0.187354
 30
0.437648
 11
0.020000
 21
-0.033576
 31
0.393463
 12
0.020000
 22
-0.297818
 32
0.053204
 13
0.020000
 23
-0.297818
 33
0.053204
  0
3DFACE
  8
12/leg22
 10
0.020000
 20
-0.033576
 30
0.393463
 11
0.020000
 21
-0.144040
 31
0.009018
 12
0.020000
 22
-0.297818
 32
0.053204
 13
0.020000
 23
-0.297818
 33
0.053204
  0
3DFACE
  8
14/arm11
 10
0.360000
 20
0.187354
 30
0.997649
 11
0.360000
 21
0.076889
 31
1.382093
 12
0.360000
 22
0.033576
 32
0.953463
 13
0.360000
 23
0.033576
 33
0.953463
  0
3DFACE
  8
14/arm11
 10
0.360000
 20
0.076889
 30
1.382093
 11
0.360000
 21
-0.076889
 31
1.337907
 12
0.360000
 22
0.033576
 32
0.953463
 13
0.360000
 23
0.033576
 33
0.953463
  0
3DFACE
  8
14/arm11
 10
0.360000
 20
0.033576
 30
0.953463
 11
0.360000
 21
-0.076889
 31
1.337907
 12
0.200000
 22
0.033576
 32
0.953463
 13
0.200000
 23
0.033576
 33
0.953463
  0
3DFACE
  8
14/arm11
 10
0.360000
 20
-0.076889
 30
1.337907
 11
0.200000
 21
-0.076889
 31
1.337907
 12
0.200000
 22
0.033576
 32
0.953463
 13
0.200000
 23
0.033576
 33
0.953463
  0
3DFACE
  8
14/arm11
 10
0.360000
 20
-0.076889
 30
1.337907
 11
0.360000
 21
0.076889
 31
1.382093
 12
0.200000
 22
-0.076889
 32
1.337907
 13
0.200000
 23
-0.076889
 33
1.337907
  0
3DFACE
  8
14/arm11
 10
0.360000
 20
0.076889
 30
1.382093
 11
0.200000
 21
0.076889
 31
1.382093
 12
0.200000
 22
-0.076889
 32
1.337907
 13
0.200000
 23
-0.076889
 33
1.337907
  0
3DFACE
  8
14/arm11
 10
0.360000
 20
0.076889
 30
1.382093
 11
0.360000
 21
0.187354
 31
0.997649
 12
0.200000
 22
0.076889
 32
1.382093
 13
0.200000
 23
0.076889
 33
1.382093
  0
3DFACE
  8
14/arm11
 10
0.360000
 20
0.187354
 30
0.997649
 11
0.200000
 21
0.187354
 31
0.997649
 12
0.200000
 22
0.076889
 32
1.382093
 13
0.200000
 23
0.076889
 33
1.382093
  0
3DFACE
  8
14/arm11
 10
0.360000
 20
0.187354
 30
0.997649
 11
0.360000
 21
0.033576
 31
0.953463
 12
0.200000
 22
0.187354
 32
0.997649
 13
0.200000
 23
0.187354
 33
0.997649
  0
3DFACE
  8
14/arm11
 10
0.360000
 20
0.033576
 30
0.953463
 11
0.200000
 21
0.033576
 31
0.953463
 12
0.200000
 22
0.187354
 32
0.997649
 13
0.200000
 23
0.187354
 33
0.997649
  0
3DFACE
  8
14/arm11
 10
0.200000
 20
-0.076889
 30
1.337907
 11
0.200000
 21
0.076889
 31
1.382093
 12
0.200000
 22
0.033576
 32
0.953463
 13
0.200000
 23
0.033576
 33
0.953463
  0
3DFACE
  8
14/arm11
 10
0.200000
 20
0.076889
 30
1.382093
 11
0.200000
 21
0.187354
 31
0.997649
 12
0.200000
 22
0.033576
 32
0.953463
 13
0.200000
 23
0.033576
 33
0.953463
  0
3DFACE
  8
16/arm12
 10
0.360000
 20
0.297818
 30
0.613204
 11
0.360000
 21
0.187354
 31
0.997649
 12
0.360000
 22
0.144040
 32
0.569018
 13
0.360000
 23
0.144040
 33
0.569018
  0
3DFACE
  8
16/arm12
 10
0.360000
 20
0.187354
 30
0.997649
 11
0.360000
 21
0.033576
 31
0.953463
 12
0.360000
 22
0.144040
 32
0.569018
 13
0.360000
 23
0.144040
 33
0.569018
  0
3DFACE
  8
16/arm12
 10
0.360000
 20
0.144040
 30
0.569018
 11
0.360000
 21
0.033576
 31
0.953463
 12
0.200000
 22
0.144040
 32
0.569018
 13
0.200000
 23
0.144040
 33
0.569018
  0
3DFACE
  8
16/arm12
 10
0.360000
 20
0.033576
 30
0.953463
 11
0.200000
 21
0.033576
 31
0.953463
 12
0.200000
 22
0.144040
 32
0.569018
 13
0.200000
 23
0.144040
 33
0.569018
  0
3DFACE
  8
16/arm12
 10
0.360000
 20
0.033576
 30
0.953463
 11
0.360000
 21
0.187354
 31
0.997649
 12
0.200000
 22
0.033576
 32
0.953463
 13
0.200000
 23
0.033576
 33
0.953463
  0
3DFACE
  8
16/arm12
 10
0.360000
 20
0.187354
 30
0.997649
 11
0.200000
 21
0.187354
 31
0.997649
 12
0.200000
 22
0.033576
 32
0.953463
 13
0.200000
 23
0.033576
 33
0.953463
  0
3DFACE
  8
16/arm12
 10
0.360000
 20
0.187354
 30
0.997649
 11
0.360000
 21
0.297818
 31
0.613204
 12
0.200000
 22
0.187354
 32
0.997649
 13
0.200000
 23
0.187354
 33
0.997649
  0
3DFACE
  8
16/arm12
 10
0.360000
 20
0.297818
 30
0.613204
 11
0.200000
 21
0.297818
 31
0.613204
 12
0.200000
 22
0.187354
 32
0.997649
 13
0.200000
 23
0.187354
 33
0.997649
  0
3DFACE
  8
16/arm12
 10
0.360000
 20
0.297818
 30
0.613204
 11
0.360000
 21
0.144040
 31
0.569018
 12
0.200000
 22
0.297818
 32
0.613204
 13
0.200000
 23
0.297818
 33
0.613204
  0
3DFACE
  8
16/arm12
 10
0.360000
 20
0.144040
 30
0.569018
 11
0.200000
 21
0.144040
 31
0.569018
 12
0.200000
 22
0.297818
 32
0.613204
 13
0.200000
 23
0.297818
 33
0.613204
  0
3DFACE
  8
16/arm12
 10
0.200000
 20
0.033576
 30
0.953463
 11
0.200000
 21
0.187354
 31
0.997649
 12
0.200000
 22
0.144040
 32
0.569018
 13
0.200000
 23
0.144040
 33
0.569018
  0
3DFACE
  8
16/arm12
 10
0.200000
 20
0.187354
 30
0.997649
 11
0.200000
 21
0.297818
 31
0.613204
 12
0.200000
 22
0.144040
 32
0.569018
 13
0.200000
 23
0.144040
 33
0.569018
  0
3DFACE
  8
18/arm21
 10
-0.360000
 20
0.076889
 30
1.337907
 11
-0.360000
 21
-0.033576
 31
0.953463
 12
-0.360000
 22
-0.187354
 32
0.997649
 13
-0.360000
 23
-0.187354
 33
0.997649
  0
3DFACE
  8
18/arm21
 10
-0.360000
 20
-0.076889
 30
1.382093
 11
-0.360000
 21
0.076889
 31
1.337907
 12
-0.360000
 22
-0.187354
 32
0.997649
 13
-0.360000
 23
-0.187354
 33
0.997649
  0
3DFACE
  8
18/arm21
 10
-0.360000
 20
-0.076889
 30
1.382093
 11
-0.360000
 21
-0.187354
 31
0.997649
 12
-0.200000
 22
-0.187354
 32
0.997649
 13
-0.200000
 23
-0.187354
 33
0.997649
  0
3DFACE
  8
18/arm21
 10
-0.200000
 20
-0.076889
 30
1.382093
 11
-0.360000
 21
-0.076889
 31
1.382093
 12
-0.200000
 22
-0.187354
 32
0.997649
 13
-0.200000
 23
-0.187354
 33
0.997649
  0
3DFACE
  8
18/arm21
 10
-0.360000
 20
0.076889
 30
1.337907
 11
-0.360000
 21
-0.076889
 31
1.382093
 12
-0.200000
 22
-0.076889
 32
1.382093
 13
-0.200000
 23
-0.076889
 33
1.382093
  0
3DFACE
  8
18/arm21
 10
-0.200000
 20
0.076889
 30
1.337907
 11
-0.360000
 21
0.076889
 31
1.337907
 12
-0.200000
 22
-0.076889
 32
1.382093
 13
-0.200000
 23
-0.076889
 33
1.382093
  0
3DFACE
  8
18/arm21
 10
-0.360000
 20
-0.033576
 30
0.953463
 11
-0.360000
 21
0.076889
 31
1.337907
 12
-0.200000
 22
0.076889
 32
1.337907
 13
-0.200000
 23
0.076889
 33
1.337907
  0
3DFACE
  8
18/arm21
 10
-0.200000
 20
-0.033576
 30
0.953463
 11
-0.360000
 21
-0.033576
 31
0.953463
 12
-0.200000
 22
0.076889
 32
1.337907
 13
-0.200000
 23
0.076889
 33
1.337907
  0
3DFACE
  8
18/arm21
 10
-0.360000
 20
-0.187354
 30
0.997649
 11
-0.360000
 21
-0.033576
 31
0.953463
 12
-0.200000
 22
-0.033576
 32
0.953463
 13
-0.200000
 23
-0.033576
 33
0.953463
  0
3DFACE
  8
18/arm21
 10
-0.200000
 20
-0.187354
 30
0.997649
 11
-0.360000
 21
-0.187354
 31
0.997649
 12
-0.200000
 22
-0.033576
 32
0.953463
 13
-0.200000
 23
-0.033576
 33
0.953463
  0
3DFACE
  8
18/arm21
 10
-0.200000
 20
0.076889
 30
1.337907
 11
-0.200000
 21
-0.076889
 31
1.382093
 12
-0.200000
 22
-0.187354
 32
0.997649
 13
-0.200000
 23
-0.187354
 33
0.997649
  0
3DFACE
  8
18/arm21
 10
-0.200000
 20
-0.033576
 30
0.953463
 11
-0.200000
 21
0.076889
 31
1.337907
 12
-0.200000
 22
-0.187354
 32
0.997649
 13
-0.200000
 23
-0.187354
 33
0.997649
  0
3DFACE
  8
20/arm22
 10
-0.360000
 20
-0.033576
 30
0.953463
 11
-0.360000
 21
-0.144040
 31
0.569018
 12
-0.360000
 22
-0.297818
 32
0.613204
 13
-0.360000
 23
-0.297818
 33
0.613204
  0
3DFACE
  8
20/arm22
 10
-0.360000
 20
-0.187354
 30
0.997649
 11
-0.360000
 21
-0.033576
 31
0.953463
 12
-0.360000
 22
-0.297818
 32
0.613204
 13
-0.360000
 23
-0.297818
 33
0.613204
  0
3DFACE
  8
20/arm22
 10
-0.360000
 20
-0.187354
 30
0.997649
 11
-0.360000
 21
-0.297818
 31
0.613204
 12
-0.200000
 22
-0.297818
 32
0.613204
 13
-0.200000
 23
-0.297818
 33
0.613204
  0
3DFACE
  8
20/arm22
 10
-0.200000
 20
-0.187354
 30
0.997649
 11
-0.360000
 21
-0.187354
 31
0.997649
 12
-0.200000
 22
-0.297818
 32
0.613204
 13
-0.200000
 23
-0.297818
 33
0.613204
  0
3DFACE
  8
20/arm22
 10
-0.360000
 20
-0.033576
 30
0.953463
 11
-0.360000
 21
-0.187354
 31
0.997649
 12
-0.200000
 22
-0.187354
 32
0.997649
 13
-0.200000
 23
-0.187354
 33
0.997649
  0
3DFACE
  8
20/arm22
 10
-0.200000
 20
-0.033576
 30
0.953463
 11
-0.360000
 21
-0.033576
 31
0.953463
 12
-0.200000
 22
-0.187354
 32
0.997649
 13
-0.200000
 23
-0.187354
 33
0.997649
  0
3DFACE
  8
20/arm22
 10
-0.360000
 20
-0.144040
 30
0.569018
 11
-0.360000
 21
-0.033576
 31
0.953463
 12
-0.200000
 22
-0.033576
 32
0.953463
 13
-0.200000
 23
-0.033576
 33
0.953463
  0
3DFACE
  8
20/arm22
 10
-0.200000
 20
-0.144040
 30
0.569018
 11
-0.360000
 21
-0.144040
 31
0.569018
 12
-0.200000
 22
-0.033576
 32
0.953463
 13
-0.200000
 23
-0.033576
 33
0.953463
  0
3DFACE
  8
20/arm22
 10
-0.360000
 20
-0.297818
 30
0.613204
 11
-0.360000
 21
-0.144040
 31
0.569018
 12
-0.200000
 22
-0.144040
 32
0.569018
 13
-0.200000
 23
-0.144040
 33
0.569018
  0
3DFACE
  8
20/arm22
 10
-0.200000
 20
-0.297818
 30
0.613204
 11
-0.360000
 21
-0.297818
 31
0.613204
 12
-0.200000
 22
-0.144040
 32
0.569018
 13
-0.200000
 23
-0.144040
 33
0.569018
  0
3DFACE
  8
20/arm22
 10
-0.200000
 20
-0.033576
 30
0.953463
 11
-0.200000
 21
-0.187354
 31
0.997649
 12
-0.200000
 22
-0.297818
 32
0.613204
 13
-0.200000
 23
-0.297818
 33
0.613204
  0
3DFACE
  8
20/arm22
 10
-0.200000
 20
-0.144040
 30
0.569018
 11
-0.200000
 21
-0.033576
 31
0.953463
 12
-0.200000
 22
-0.297818
 32
0.613204
 13
-0.200000
 23
-0.297818
 33
0.613204
  0
ENDSEC
  0
EOF
