  0
SECTION
  2
ENTITIES
  0
3DFACE
  8
2/head
 10
0.099188
 20
0.141421
 30
1.500812
 11
0.000000
 21
0.200000
 31
1.600000
 12
0.141421
 22
0.141421
 32
1.600000
 13
0.141421
 23
0.141421
 33
1.600000
  0
3DFACE
  8
2/head
 10
0.099188
 20
0.141421
 30
1.500812
 11
0.141421
 21
0.141421
 31
1.600000
 12
0.200000
 22
0.000000
 32
1.600000
 13
0.200000
 23
0.000000
 33
1.600000
  0
3DFACE
  8
2/head
 10
0.200000
 20
0.000000
 30
1.600000
 11
0.141421
 21
0.000000
 31
1.458579
 12
0.099188
 22
0.141421
 32
1.500812
 13
0.099188
 23
0.141421
 33
1.500812
  0
3DFACE
  8
2/head
 10
0.141421
 20
0.000000
 30
1.458579
 11
0.200000
 21
0.000000
 31
1.600000
 12
0.141421
 22
-0.141421
 32
1.600000
 13
0.141421
 23
-0.141421
 33
1.600000
  0
3DFACE
  8
2/head
 10
0.141421
 20
-0.141421
 30
1.600000
 11
0.099188
 21
-0.141421
 31
1.500812
 12
0.141421
 22
0.000000
 32
1.458579
 13
0.141421
 23
0.000000
 33
1.458579
  0
3DFACE
  8
2/head
 10
0.000000
 20
-0.200000
 30
1.600000
 11
0.099188
 21
-0.141421
 31
1.500812
 12
0.141421
 22
-0.141421
 32
1.600000
 13
0.141421
 23
-0.141421
 33
1.600000
  0
3DFACE
  8
2/head
 10
0.000000
 20
0.141421
 30
1.458579
 11
0.000000
 21
0.200000
 31
1.600000
 12
0.099188
 22
0.141421
 32
1.500812
 13
0.099188
 23
0.141421
 33
1.500812
  0
3DFACE
  8
2/head
 10
0.000000
 20
0.141421
 30
1.458579
 11
0.099188
 21
0.141421
 31
1.500812
 12
0.141421
 22
0.000000
 32
1.458579
 13
0.141421
 23
0.000000
 33
1.458579
  0
3DFACE
  8
2/head
 10
0.141421
 20
0.000000
 30
1.458579
 11
0.000000
 21
0.000000
 31
1.400000
 12
0.000000
 22
0.141421
 32
1.458579
 13
0.000000
 23
0.141421
 33
1.458579
  0
3DFACE
  8
2/head
 10
0.000000
 20
0.000000
 30
1.400000
 11
0.141421
 21
0.000000
 31
1.458579
 12
0.099188
 22
-0.141421
 32
1.500812
 13
0.099188
 23
-0.141421
 33
1.500812
  0
3DFACE
  8
2/head
 10
0.099188
 20
-0.141421
 30
1.500812
 11
0.000000
 21
-0.141421
 31
1.458579
 12
0.000000
 22
0.000000
 32
1.400000
 13
0.000000
 23
0.000000
 33
1.400000
  0
3DFACE
  8
2/head
 10
0.000000
 20
-0.200000
 30
1.600000
 11
0.000000
 21
-0.141421
 31
1.458579
 12
0.099188
 22
-0.141421
 32
1.500812
 13
0.099188
 23
-0.141421
 33
1.500812
  0
3DFACE
  8
2/head
 10
-0.099188
 20
0.141421
 30
1.500812
 11
0.000000
 21
0.200000
 31
1.600000
 12
0.000000
 22
0.141421
 32
1.458579
 13
0.000000
 23
0.141421
 33
1.458579
  0
3DFACE
  8
2/head
 10
-0.099188
 20
0.141421
 30
1.500812
 11
0.000000
 21
0.141421
 31
1.458579
 12
0.000000
 22
0.000000
 32
1.400000
 13
0.000000
 23
0.000000
 33
1.400000
  0
3DFACE
  8
2/head
 10
0.000000
 20
0.000000
 30
1.400000
 11
-0.141421
 21
0.000000
 31
1.458579
 12
-0.099188
 22
0.141421
 32
1.500812
 13
-0.099188
 23
0.141421
 33
1.500812
  0
3DFACE
  8
2/head
 10
-0.141421
 20
0.000000
 30
1.458579
 11
0.000000
 21
0.000000
 31
1.400000
 12
0.000000
 22
-0.141421
 32
1.458579
 13
0.000000
 23
-0.141421
 33
1.458579
  0
3DFACE
  8
2/head
 10
0.000000
 20
-0.141421
 30
1.458579
 11
-0.099188
 21
-0.141421
 31
1.500812
 12
-0.141421
 22
0.000000
 32
1.458579
 13
-0.141421
 23
0.000000
 33
1.458579
  0
3DFACE
  8
2/head
 10
0.000000
 20
-0.200000
 30
1.600000
 11
-0.099188
 21
-0.141421
 31
1.500812
 12
0.000000
 22
-0.141421
 32
1.458579
 13
0.000000
 23
-0.141421
 33
1.458579
  0
3DFACE
  8
2/head
 10
-0.141421
 20
0.141421
 30
1.600000
 11
0.000000
 21
0.200000
 31
1.600000
 12
-0.099188
 22
0.141421
 32
1.500812
 13
-0.099188
 23
0.141421
 33
1.500812
  0
3DFACE
  8
2/head
 10
-0.141421
 20
0.141421
 30
1.600000
 11
-0.099188
 21
0.141421
 31
1.500812
 12
-0.141421
 22
0.000000
 32
1.458579
 13
-0.141421
 23
0.000000
 33
1.458579
  0
3DFACE
  8
2/head
 10
-0.141421
 20
0.000000
 30
1.458579
 11
-0.200000
 21
0.000000
 31
1.600000
 12
-0.141421
 22
0.141421
 32
1.600000
 13
-0.141421
 23
0.141421
 33
1.600000
  0
3DFACE
  8
2/head
 10
-0.200000
 20
0.000000
 30
1.600000
 11
-0.141421
 21
0.000000
 31
1.458579
 12
-0.099188
 22
-0.141421
 32
1.500812
 13
-0.099188
 23
-0.141421
 33
1.500812
  0
3DFACE
  8
2/head
 10
-0.099188
 20
-0.141421
 30
1.500812
 11
-0.141421
 21
-0.141421
 31
1.600000
 12
-0.200000
 22
0.000000
 32
1.600000
 13
-0.200000
 23
0.000000
 33
1.600000
  0
3DFACE
  8
2/head
 10
0.000000
 20
-0.200000
 30
1.600000
 11
-0.141421
 21
-0.141421
 31
1.600000
 12
-0.099188
 22
-0.141421
 32
1.500812
 13
-0.099188
 23
-0.141421
 33
1.500812
  0
3DFACE
  8
2/head
 10
-0.099188
 20
0.141421
 30
1.699188
 11
0.000000
 21
0.200000
 31
1.600000
 12
-0.141421
 22
0.141421
 32
1.600000
 13
-0.141421
 23
0.141421
 33
1.600000
  0
3DFACE
  8
2/head
 10
-0.099188
 20
0.141421
 30
1.699188
 11
-0.141421
 21
0.141421
 31
1.600000
 12
-0.200000
 22
0.000000
 32
1.600000
 13
-0.200000
 23
0.000000
 33
1.600000
  0
3DFACE
  8
2/head
 10
-0.200000
 20
0.000000
 30
1.600000
 11
-0.141421
 21
0.000000
 31
1.741421
 12
-0.099188
 22
0.141421
 32
1.699188
 13
-0.099188
 23
0.141421
 33
1.699188
  0
3DFACE
  8
2/head
 10
-0.141421
 20
0.000000
 30
1.741421
 11
-0.200000
 21
0.000000
 31
1.600000
 12
-0.141421
 22
-0.141421
 32
1.600000
 13
-0.141421
 23
-0.141421
 33
1.600000
  0
3DFACE
  8
2/head
 10
-0.141421
 20
-0.141421
 30
1.600000
 11
-0.099188
 21
-0.141421
 31
1.699188
 12
-0.141421
 22
0.000000
 32
1.741421
 13
-0.141421
 23
0.000000
 33
1.741421
  0
3DFACE
  8
2/head
 10
0.000000
 20
-0.200000
 30
1.600000
 11
-0.099188
 21
-0.141421
 31
1.699188
 12
-0.141421
 22
-0.141421
 32
1.600000
 13
-0.141421
 23
-0.141421
 33
1.600000
  0
3DFACE
  8
2/head
 10
0.000000
 20
0.141421
 30
1.741421
 11
0.000000
 21
0.200000
 31
1.600000
 12
-0.099188
 22
0.141421
 32
1.699188
 13
-0.099188
 23
0.141421
 33
1.699188
  0
3DFACE
  8
2/head
 10
0.000000
 20
0.141421
 30
1.741421
 11
-0.099188
 21
0.141421
 31
1.699188
 12
-0.141421
 22
0.000000
 32
1.741421
 13
-0.141421
 23
0.000000
 33
1.741421
  0
3DFACE
  8
2/head
 10
-0.141421
 20
0.000000
 30
1.741421
 11
0.000000
 21
0.000000
 31
1.800000
 12
0.000000
 22
0.141421
 32
1.741421
 13
0.000000
 23
0.141421
 33
1.741421
  0
3DFACE
  8
2/head
 10
0.000000
 20
0.000000
 30
1.800000
 11
-0.141421
 21
0.000000
 31
1.741421
 12
-0.099188
 22
-0.141421
 32
1.699188
 13
-0.099188
 23
-0.141421
 33
1.699188
  0
3DFACE
  8
2/head
 10
-0.099188
 20
-0.141421
 30
1.699188
 11
0.000000
 21
-0.141421
 31
1.741421
 12
0.000000
 22
0.000000
 32
1.800000
 13
0.000000
 23
0.000000
 33
1.800000
  0
3DFACE
  8
2/head
 10
0.000000
 20
-0.200000
 30
1.600000
 11
0.000000
 21
-0.141421
 31
1.741421
 12
-0.099188
 22
-0.141421
 32
1.699188
 13
-0.099188
 23
-0.141421
 33
1.699188
  0
3DFACE
  8
2/head
 10
0.099188
 20
0.141421
 30
1.699188
 11
0.000000
 21
0.200000
 31
1.600000
 12
0.000000
 22
0.141421
 32
1.741421
 13
0.000000
 23
0.141421
 33
1.741421
  0
3DFACE
  8
2/head
 10
0.099188
 20
0.141421
 30
1.699188
 11
0.000000
 21
0.141421
 31
1.741421
 12
0.000000
 22
0.000000
 32
1.800000
 13
0.000000
 23
0.000000
 33
1.800000
  0
3DFACE
  8
2/head
 10
0.000000
 20
0.000000
 30
1.800000
 11
0.141421
 21
0.000000
 31
1.741421
 12
0.099188
 22
0.141421
 32
1.699188
 13
0.099188
 23
0.141421
 33
1.699188
  0
3DFACE
  8
2/head
 10
0.141421
 20
0.000000
 30
1.741421
 11
0.000000
 21
0.000000
 31
1.800000
 12
0.000000
 22
-0.141421
 32
1.741421
 13
0.000000
 23
-0.141421
 33
1.741421
  0
3DFACE
  8
2/head
 10
0.000000
 20
-0.141421
 30
1.741421
 11
0.099188
 21
-0.141421
 31
1.699188
 12
0.141421
 22
0.000000
 32
1.741421
 13
0.141421
 23
0.000000
 33
1.741421
  0
3DFACE
  8
2/head
 10
0.000000
 20
-0.200000
 30
1.600000
 11
0.099188
 21
-0.141421
 31
1.699188
 12
0.000000
 22
-0.141421
 32
1.741421
 13
0.000000
 23
-0.141421
 33
1.741421
  0
3DFACE
  8
2/head
 10
0.141421
 20
0.141421
 30
1.600000
 11
0.000000
 21
0.200000
 31
1.600000
 12
0.099188
 22
0.141421
 32
1.699188
 13
0.099188
 23
0.141421
 33
1.699188
  0
3DFACE
  8
2/head
 10
0.141421
 20
0.141421
 30
1.600000
 11
0.099188
 21
0.141421
 31
1.699188
 12
0.141421
 22
0.000000
 32
1.741421
 13
0.141421
 23
0.000000
 33
1.741421
  0
3DFACE
  8
2/head
 10
0.141421
 20
0.000000
 30
1.741421
 11
0.200000
 21
0.000000
 31
1.600000
 12
0.141421
 22
0.141421
 32
1.600000
 13
0.141421
 23
0.141421
 33
1.600000
  0
3DFACE
  8
2/head
 10
0.200000
 20
0.000000
 30
1.600000
 11
0.141421
 21
0.000000
 31
1.741421
 12
0.099188
 22
-0.141421
 32
1.699188
 13
0.099188
 23
-0.141421
 33
1.699188
  0
3DFACE
  8
2/head
 10
0.099188
 20
-0.141421
 30
1.699188
 11
0.141421
 21
-0.141421
 31
1.600000
 12
0.200000
 22
0.000000
 32
1.600000
 13
0.200000
 23
0.000000
 33
1.600000
  0
3DFACE
  8
2/head
 10
0.000000
 20
-0.200000
 30
1.600000
 11
0.141421
 21
-0.141421
 31
1.600000
 12
0.099188
 22
-0.141421
 32
1.699188
 13
0.099188
 23
-0.141421
 33
1.699188
  0
3DFACE
  8
4/body
 10
-0.200000
 20
0.080000
 30
1.400000
 11
-0.200000
 21
0.080000
 31
0.800000
 12
-0.200000
 22
-0.080000
 32
0.800000
 13
-0.200000
 23
-0.080000
 33
0.800000
  0
3DFACE
  8
4/body
 10
-0.200000
 20
-0.080000
 30
1.400000
 11
-0.200000
 21
0.080000
 31
1.400000
 12
-0.200000
 22
-0.080000
 32
0.800000
 13
-0.200000
 23
-0.080000
 33
0.800000
  0
3DFACE
  8
4/body
 10
-0.200000
 20
-0.080000
 30
1.400000
 11
-0.200000
 21
-0.080000
 31
0.800000
 12
0.200000
 22
-0.080000
 32
0.800000
 13
0.200000
 23
-0.080000
 33
0.800000
  0
3DFACE
  8
4/body
 10
0.200000
 20
-0.080000
 30
1.400000
 11
-0.200000
 21
-0.080000
 31
1.400000
 12
0.200000
 22
-0.080000
 32
0.800000
 13
0.200000
 23
-0.080000
 33
0.800000
  0
3DFACE
  8
4/body
 10
-0.200000
 20
0.080000
 30
1.400000
 11
-0.200000
 21
-0.080000
 31
1.400000
 12
0.200000
 22
-0.080000
 32
1.400000
 13
0.200000
 23
-0.080000
 33
1.400000
  0
3DFACE
  8
4/body
 10
0.200000
 20
0.080000
 30
1.400000
 11
-0.200000
 21
0.080000
 31
1.400000
 12
0.200000
 22
-0.080000
 32
1.400000
 13
0.200000
 23
-0.080000
 33
1.400000
  0
3DFACE
  8
4/body
 10
-0.200000
 20
0.080000
 30
0.800000
 11
-0.200000
 21
0.080000
 31
1.400000
 12
0.200000
 22
0.080000
 32
1.400000
 13
0.200000
 23
0.080000
 33
1.400000
  0
3DFACE
  8
4/body
 10
0.200000
 20
0.080000
 30
0.800000
 11
-0.200000
 21
0.080000
 31
0.800000
 12
0.200000
 22
0.080000
 32
1.400000
 13
0.200000
 23
0.080000
 33
1.400000
  0
3DFACE
  8
4/body
 10
-0.200000
 20
-0.080000
 30
0.800000
 11
-0.200000
 21
0.080000
 31
0.800000
 12
0.200000
 22
0.080000
 32
0.800000
 13
0.200000
 23
0.080000
 33
0.800000
  0
3DFACE
  8
4/body
 10
0.200000
 20
-0.080000
 30
0.800000
 11
-0.200000
 21
-0.080000
 31
0.800000
 12
0.200000
 22
0.080000
 32
0.800000
 13
0.200000
 23
0.080000
 33
0.800000
  0
3DFACE
  8
4/body
 10
0.200000
 20
0.080000
 30
1.400000
 11
0.200000
 21
-0.080000
 31
1.400000
 12
0.200000
 22
-0.080000
 32
0.800000
 13
0.200000
 23
-0.080000
 33
0.800000
  0
3DFACE
  8
4/body
 10
0.200000
 20
0.080000
 30
0.800000
 11
0.200000
 21
0.080000
 31
1.400000
 12
0.200000
 22
-0.080000
 32
0.800000
 13
0.200000
 23
-0.080000
 33
0.800000
  0
3DFACE
  8
6/leg11
 10
-0.180000
 20
0.076085
 30
0.824721
 11
-0.180000
 21
0.199691
 31
0.444299
 12
-0.180000
 22
0.047522
 32
0.394856
 13
-0.180000
 23
0.047522
 33
0.394856
  0
3DFACE
  8
6/leg11
 10
-0.180000
 20
-0.076084
 30
0.775279
 11
-0.180000
 21
0.076085
 31
0.824721
 12
-0.180000
 22
0.047522
 32
0.394856
 13
-0.180000
 23
0.047522
 33
0.394856
  0
3DFACE
  8
6/leg11
 10
-0.180000
 20
-0.076084
 30
0.775279
 11
-0.180000
 21
0.047522
 31
0.394856
 12
-0.020000
 22
0.047522
 32
0.394856
 13
-0.020000
 23
0.047522
 33
0.394856
  0
3DFACE
  8
6/leg11
 10
-0.020000
 20
-0.076084
 30
0.775279
 11
-0.180000
 21
-0.076084
 31
0.775279
 12
-0.020000
 22
0.047522
 32
0.394856
 13
-0.020000
 23
0.047522
 33
0.394856
  0
3DFACE
  8
6/leg11
 10
-0.180000
 20
0.076085
 30
0.824721
 11
-0.180000
 21
-0.076084
 31
0.775279
 12
-0.020000
 22
-0.076084
 32
0.775279
 13
-0.020000
 23
-0.076084
 33
0.775279
  0
3DFACE
  8
6/leg11
 10
-0.020000
 20
0.076085
 30
0.824721
 11
-0.180000
 21
0.076085
 31
0.824721
 12
-0.020000
 22
-0.076084
 32
0.775279
 13
-0.020000
 23
-0.076084
 33
0.775279
  0
3DFACE
  8
6/leg11
 10
-0.180000
 20
0.199691
 30
0.444299
 11
-0.180000
 21
0.076085
 31
0.824721
 12
-0.020000
 22
0.076085
 32
0.824721
 13
-0.020000
 23
0.076085
 33
0.824721
  0
3DFACE
  8
6/leg11
 10
-0.020000
 20
0.199691
 30
0.444299
 11
-0.180000
 21
0.199691
 31
0.444299
 12
-0.020000
 22
0.076085
 32
0.824721
 13
-0.020000
 23
0.076085
 33
0.824721
  0
3DFACE
  8
6/leg11
 10
-0.180000
 20
0.047522
 30
0.394856
 11
-0.180000
 21
0.199691
 31
0.444299
 12
-0.020000
 22
0.199691
 32
0.444299
 13
-0.020000
 23
0.199691
 33
0.444299
  0
3DFACE
  8
6/leg11
 10
-0.020000
 20
0.047522
 30
0.394856
 11
-0.180000
 21
0.047522
 31
0.394856
 12
-0.020000
 22
0.199691
 32
0.444299
 13
-0.020000
 23
0.199691
 33
0.444299
  0
3DFACE
  8
6/leg11
 10
-0.020000
 20
0.076085
 30
0.824721
 11
-0.020000
 21
-0.076084
 31
0.775279
 12
-0.020000
 22
0.047522
 32
0.394856
 13
-0.020000
 23
0.047522
 33
0.394856
  0
3DFACE
  8
6/leg11
 10
-0.020000
 20
0.199691
 30
0.444299
 11
-0.020000
 21
0.076085
 31
0.824721
 12
-0.020000
 22
0.047522
 32
0.394856
 13
-0.020000
 23
0.047522
 33
0.394856
  0
3DFACE
  8
8/leg12
 10
-0.180000
 20
0.199691
 30
0.444299
 11
-0.180000
 21
0.323298
 31
0.063876
 12
-0.180000
 22
0.171129
 32
0.014433
 13
-0.180000
 23
0.171129
 33
0.014433
  0
3DFACE
  8
8/leg12
 10
-0.180000
 20
0.047522
 30
0.394856
 11
-0.180000
 21
0.199691
 31
0.444299
 12
-0.180000
 22
0.171129
 32
0.014433
 13
-0.180000
 23
0.171129
 33
0.014433
  0
3DFACE
  8
8/leg12
 10
-0.180000
 20
0.047522
 30
0.394856
 11
-0.180000
 21
0.171129
 31
0.014433
 12
-0.020000
 22
0.171129
 32
0.014433
 13
-0.020000
 23
0.171129
 33
0.014433
  0
3DFACE
  8
8/leg12
 10
-0.020000
 20
0.047522
 30
0.394856
 11
-0.180000
 21
0.047522
 31
0.394856
 12
-0.020000
 22
0.171129
 32
0.014433
 13
-0.020000
 23
0.171129
 33
0.014433
  0
3DFACE
  8
8/leg12
 10
-0.180000
 20
0.199691
 30
0.444299
 11
-0.180000
 21
0.047522
 31
0.394856
 12
-0.020000
 22
0.047522
 32
0.394856
 13
-0.020000
 23
0.047522
 33
0.394856
  0
3DFACE
  8
8/leg12
 10
-0.020000
 20
0.199691
 30
0.444299
 11
-0.180000
 21
0.199691
 31
0.444299
 12
-0.020000
 22
0.047522
 32
0.394856
 13
-0.020000
 23
0.047522
 33
0.394856
  0
3DFACE
  8
8/leg12
 10
-0.180000
 20
0.323298
 30
0.063876
 11
-0.180000
 21
0.199691
 31
0.444299
 12
-0.020000
 22
0.199691
 32
0.444299
 13
-0.020000
 23
0.199691
 33
0.444299
  0
3DFACE
  8
8/leg12
 10
-0.020000
 20
0.323298
 30
0.063876
 11
-0.180000
 21
0.323298
 31
0.063876
 12
-0.020000
 22
0.199691
 32
0.444299
 13
-0.020000
 23
0.199691
 33
0.444299
  0
3DFACE
  8
8/leg12
 10
-0.180000
 20
0.171129
 30
0.014433
 11
-0.180000
 21
0.323298
 31
0.063876
 12
-0.020000
 22
0.323298
 32
0.063876
 13
-0.020000
 23
0.323298
 33
0.063876
  0
3DFACE
  8
8/leg12
 10
-0.020000
 20
0.171129
 30
0.014433
 11
-0.180000
 21
0.171129
 31
0.014433
 12
-0.020000
 22
0.323298
 32
0.063876
 13
-0.020000
 23
0.323298
 33
0.063876
  0
3DFACE
  8
8/leg12
 10
-0.020000
 20
0.199691
 30
0.444299
 11
-0.020000
 21
0.047522
 31
0.394856
 12
-0.020000
 22
0.171129
 32
0.014433
 13
-0.020000
 23
0.171129
 33
0.014433
  0
3DFACE
  8
8/leg12
 10
-0.020000
 20
0.323298
 30
0.063876
 11
-0.020000
 21
0.199691
 31
0.444299
 12
-0.020000
 22
0.171129
 32
0.014433
 13
-0.020000
 23
0.171129
 33
0.014433
  0
3DFACE
  8
10/leg21
 10
0.180000
 20
-0.047522
 30
0.394856
 11
0.180000
 21
0.076084
 31
0.775279
 12
0.180000
 22
-0.199691
 32
0.444299
 13
0.180000
 23
-0.199691
 33
0.444299
  0
3DFACE
  8
10/leg21
 10
0.180000
 20
0.076084
 30
0.775279
 11
0.180000
 21
-0.076085
 31
0.824721
 12
0.180000
 22
-0.199691
 32
0.444299
 13
0.180000
 23
-0.199691
 33
0.444299
  0
3DFACE
  8
10/leg21
 10
0.180000
 20
-0.199691
 30
0.444299
 11
0.180000
 21
-0.076085
 31
0.824721
 12
0.020000
 22
-0.199691
 32
0.444299
 13
0.020000
 23
-0.199691
 33
0.444299
  0
3DFACE
  8
10/leg21
 10
0.180000
 20
-0.076085
 30
0.824721
 11
0.020000
 21
-0.076085
 31
0.824721
 12
0.020000
 22
-0.199691
 32
0.444299
 13
0.020000
 23
-0.199691
 33
0.444299
  0
3DFACE
  8
10/leg21
 10
0.180000
 20
-0.076085
 30
0.824721
 11
0.180000
 21
0.076084
 31
0.775279
 12
0.020000
 22
-0.076085
 32
0.824721
 13
0.020000
 23
-0.076085
 33
0.824721
  0
3DFACE
  8
10/leg21
 10
0.180000
 20
0.076084
 30
0.775279
 11
0.020000
 21
0.076084
 31
0.775279
 12
0.020000
 22
-0.076085
 32
0.824721
 13
0.020000
 23
-0.076085
 33
0.824721
  0
3DFACE
  8
10/leg21
 10
0.180000
 20
0.076084
 30
0.775279
 11
0.180000
 21
-0.047522
 31
0.394856
 12
0.020000
 22
0.076084
 32
0.775279
 13
0.020000
 23
0.076084
 33
0.775279
  0
3DFACE
  8
10/leg21
 10
0.180000
 20
-0.047522
 30
0.394856
 11
0.020000
 21
-0.047522
 31
0.394856
 12
0.020000
 22
0.076084
 32
0.775279
 13
0.020000
 23
0.076084
 33
0.775279
  0
3DFACE
  8
10/leg21
 10
0.180000
 20
-0.047522
 30
0.394856
 11
0.180000
 21
-0.199691
 31
0.444299
 12
0.020000
 22
-0.047522
 32
0.394856
 13
0.020000
 23
-0.047522
 33
0.394856
  0
3DFACE
  8
10/leg21
 10
0.180000
 20
-0.199691
 30
0.444299
 11
0.020000
 21
-0.199691
 31
0.444299
 12
0.020000
 22
-0.047522
 32
0.394856
 13
0.020000
 23
-0.047522
 33
0.394856
  0
3DFACE
  8
10/leg21
 10
0.020000
 20
-0.076085
 30
0.824721
 11
0.020000
 21
0.076084
 31
0.775279
 12
0.020000
 22
-0.199691
 32
0.444299
 13
0.020000
 23
-0.199691
 33
0.444299
  0
3DFACE
  8
10/leg21
 10
0.020000
 20
0.076084
 30
0.775279
 11
0.020000
 21
-0.047522
 31
0.394856
 12
0.020000
 22
-0.199691
 32
0.444299
 13
0.020000
 23
-0.199691
 33
0.444299
  0
3DFACE
  8
12/leg22
 10
0.180000
 20
-0.171129
 30
0.014433
 11
0.180000
 21
-0.047522
 31
0.394856
 12
0.180000
 22
-0.323298
 32
0.063876
 13
0.180000
 23
-0.323298
 33
0.063876
  0
3DFACE
  8
12/leg22
 10
0.180000
 20
-0.047522
 30
0.394856
 11
0.180000
 21
-0.199691
 31
0.444299
 12
0.180000
 22
-0.323298
 32
0.063876
 13
0.180000
 23
-0.323298
 33
0.063876
  0
3DFACE
  8
12/leg22
 10
0.180000
 20
-0.323298
 30
0.063876
 11
0.180000
 21
-0.199691
 31
0.444299
 12
0.020000
 22
-0.323298
 32
0.063876
 13
0.020000
 23
-0.323298
 33
0.063876
  0
3DFACE
  8
12/leg22
 10
0.180000
 20
-0.199691
 30
0.444299
 11
0.020000
 21
-0.199691
 31
0.444299
 12
0.020000
 22
-0.323298
 32
0.063876
 13
0.020000
 23
-0.323298
 33
0.063876
  0
3DFACE
  8
12/leg22
 10
0.180000
 20
-0.199691
 30
0.444299
 11
0.180000
 21
-0.047522
 31
0.394856
 12
0.020000
 22
-0.199691
 32
0.444299
 13
0.020000
 23
-0.199691
 33
0.444299
  0
3DFACE
  8
12/leg22
 10
0.180000
 20
-0.047522
 30
0.394856
 11
0.020000
 21
-0.047522
 31
0.394856
 12
0.020000
 22
-0.199691
 32
0.444299
 13
0.020000
 23
-0.199691
 33
0.444299
  0
3DFACE
  8
12/leg22
 10
0.180000
 20
-0.047522
 30
0.394856
 11
0.180000
 21
-0.171129
 31
0.014433
 12
0.020000
 22
-0.047522
 32
0.394856
 13
0.020000
 23
-0.047522
 33
0.394856
  0
3DFACE
  8
12/leg22
 10
0.180000
 20
-0.171129
 30
0.014433
 11
0.020000
 21
-0.171129
 31
0.014433
 12
0.020000
 22
-0.047522
 32
0.394856
 13
0.020000
 23
-0.047522
 33
0.394856
  0
3DFACE
  8
12/leg22
 10
0.180000
 20
-0.171129
 30
0.014433
 11
0.180000
 21
-0.323298
 31
0.063876
 12
0.020000
 22
-0.171129
 32
0.014433
 13
0.020000
 23
-0.171129
 33
0.014433
  0
3DFACE
  8
12/leg22
 10
0.180000
 20
-0.323298
 30
0.063876
 11
0.020000
 21
-0.323298
 31
0.063876
 12
0.020000
 22
-0.171129
 32
0.014433
 13
0.020000
 23
-0.171129
 33
0.014433
  0
3DFACE
  8
12/leg22
 10
0.020000
 20
-0.199691
 30
0.444299
 11
0.020000
 21
-0.047522
 31
0.394856
 12
0.020000
 22
-0.323298
 32
0.063876
 13
0.020000
 23
-0.323298
 33
0.063876
  0
3DFACE
  8
12/leg22
 10
0.020000
 20
-0.047522
 30
0.394856
 11
0.020000
 21
-0.171129
 31
0.014433
 12
0.020000
 22
-0.323298
 32
0.063876
 13
0.020000
 23
-0.323298
 33
0.063876
  0
3DFACE
  8
14/arm11
 10
0.360000
 20
0.199691
 30
1.004299
 11
0.360000
 21
0.076085
 31
1.384721
 12
0.360000
 22
0.047522
 32
0.954856
 13
0.360000
 23
0.047522
 33
0.954856
  0
3DFACE
  8
14/arm11
 10
0.360000
 20
0.076085
 30
1.384721
 11
0.360000
 21
-0.076084
 31
1.335279
 12
0.360000
 22
0.047522
 32
0.954856
 13
0.360000
 23
0.047522
 33
0.954856
  0
3DFACE
  8
14/arm11
 10
0.360000
 20
0.047522
 30
0.954856
 11
0.360000
 21
-0.076084
 31
1.335279
 12
0.200000
 22
0.047522
 32
0.954856
 13
0.200000
 23
0.047522
 33
0.954856
  0
3DFACE
  8
14/arm11
 10
0.360000
 20
-0.076084
 30
1.335279
 11
0.200000
 21
-0.076084
 31
1.335279
 12
0.200000
 22
0.047522
 32
0.954856
 13
0.200000
 23
0.047522
 33
0.954856
  0
3DFACE
  8
14/arm11
 10
0.360000
 20
-0.076084
 30
1.335279
 11
0.360000
 21
0.076085
 31
1.384721
 12
0.200000
 22
-0.076084
 32
1.335279
 13
0.200000
 23
-0.076084
 33
1.335279
  0
3DFACE
  8
14/arm11
 10
0.360000
 20
0.076085
 30
1.384721
 11
0.200000
 21
0.076085
 31
1.384721
 12
0.200000
 22
-0.076084
 32
1.335279
 13
0.200000
 23
-0.076084
 33
1.335279
  0
3DFACE
  8
14/arm11
 10
0.360000
 20
0.076085
 30
1.384721
 11
0.360000
 21
0.199691
 31
1.004299
 12
0.200000
 22
0.076085
 32
1.384721
 13
0.200000
 23
0.076085
 33
1.384721
  0
3DFACE
  8
14/arm11
 10
0.360000
 20
0.199691
 30
1.004299
 11
0.200000
 21
0.199691
 31
1.004299
 12
0.200000
 22
0.076085
 32
1.384721
 13
0.200000
 23
0.076085
 33
1.384721
  0
3DFACE
  8
14/arm11
 10
0.360000
 20
0.199691
 30
1.004299
 11
0.360000
 21
0.047522
 31
0.954856
 12
0.200000
 22
0.199691
 32
1.004299
 13
0.200000
 23
0.199691
 33
1.004299
  0
3DFACE
  8
14/arm11
 10
0.360000
 20
0.047522
 30
0.954856
 11
0.200000
 21
0.047522
 31
0.954856
 12
0.200000
 22
0.199691
 32
1.004299
 13
0.200000
 23
0.199691
 33
1.004299
  0
3DFACE
  8
14/arm11
 10
0.200000
 20
-0.076084
 30
1.335279
 11
0.200000
 21
0.076085
 31
1.384721
 12
0.200000
 22
0.047522
 32
0.954856
 13
0.200000
 23
0.047522
 33
0.954856
  0
3DFACE
  8
14/arm11
 10
0.200000
 20
0.076085
 30
1.384721
 11
0.200000
 21
0.199691
 31
1.004299
 12
0.200000
 22
0.047522
 32
0.954856
 13
0.200000
 23
0.047522
 33
0.954856
  0
3DFACE
  8
16/arm12
 10
0.360000
 20
0.323298
 30
0.623876
 11
0.360000
 21
0.199691
 31
1.004299
 12
0.360000
 22
0.171129
 32
0.574433
 13
0.360000
 23
0.171129
 33
0.574433
  0
3DFACE
  8
16/arm12
 10
0.360000
 20
0.199691
 30
1.004299
 11
0.360000
 21
0.047522
 31
0.954856
 12
0.360000
 22
0.171129
 32
0.574433
 13
0.360000
 23
0.171129
 33
0.574433
  0
3DFACE
  8
16/arm12
 10
0.360000
 20
0.171129
 30
0.574433
 11
0.360000
 21
0.047522
 31
0.954856
 12
0.200000
 22
0.171129
 32
0.574433
 13
0.200000
 23
0.171129
 33
0.574433
  0
3DFACE
  8
16/arm12
 10
0.360000
 20
0.047522
 30
0.954856
 11
0.200000
 21
0.047522
 31
0.954856
 12
0.200000
 22
0.171129
 32
0.574433
 13
0.200000
 23
0.171129
 33
0.574433
  0
3DFACE
  8
16/arm12
 10
0.360000
 20
0.047522
 30
0.954856
 11
0.360000
 21
0.199691
 31
1.004299
 12
0.200000
 22
0.047522
 32
0.954856
 13
0.200000
 23
0.047522
 33
0.954856
  0
3DFACE
  8
16/arm12
 10
0.360000
 20
0.199691
 30
1.004299
 11
0.200000
 21
0.199691
 31
1.004299
 12
0.200000
 22
0.047522
 32
0.954856
 13
0.200000
 23
0.047522
 33
0.954856
  0
3DFACE
  8
16/arm12
 10
0.360000
 20
0.199691
 30
1.004299
 11
0.360000
 21
0.323298
 31
0.623876
 12
0.200000
 22
0.199691
 32
1.004299
 13
0.200000
 23
0.199691
 33
1.004299
  0
3DFACE
  8
16/arm12
 10
0.360000
 20
0.323298
 30
0.623876
 11
0.200000
 21
0.323298
 31
0.623876
 12
0.200000
 22
0.199691
 32
1.004299
 13
0.200000
 23
0.199691
 33
1.004299
  0
3DFACE
  8
16/arm12
 10
0.360000
 20
0.323298
 30
0.623876
 11
0.360000
 21
0.171129
 31
0.574433
 12
0.200000
 22
0.323298
 32
0.623876
 13
0.200000
 23
0.323298
 33
0.623876
  0
3DFACE
  8
16/arm12
 10
0.360000
 20
0.171129
 30
0.574433
 11
0.200000
 21
0.171129
 31
0.574433
 12
0.200000
 22
0.323298
 32
0.623876
 13
0.200000
 23
0.323298
 33
0.623876
  0
3DFACE
  8
16/arm12
 10
0.200000
 20
0.047522
 30
0.954856
 11
0.200000
 21
0.199691
 31
1.004299
 12
0.200000
 22
0.171129
 32
0.574433
 13
0.200000
 23
0.171129
 33
0.574433
  0
3DFACE
  8
16/arm12
 10
0.200000
 20
0.199691
 30
1.004299
 11
0.200000
 21
0.323298
 31
0.623876
 12
0.200000
 22
0.171129
 32
0.574433
 13
0.200000
 23
0.171129
 33
0.574433
  0
3DFACE
  8
18/arm21
 10
-0.360000
 20
0.076084
 30
1.335279
 11
-0.360000
 21
-0.047522
 31
0.954856
 12
-0.360000
 22
-0.199691
 32
1.004299
 13
-0.360000
 23
-0.199691
 33
1.004299
  0
3DFACE
  8
18/arm21
 10
-0.360000
 20
-0.076085
 30
1.384721
 11
-0.360000
 21
0.076084
 31
1.335279
 12
-0.360000
 22
-0.199691
 32
1.004299
 13
-0.360000
 23
-0.199691
 33
1.004299
  0
3DFACE
  8
18/arm21
 10
-0.360000
 20
-0.076085
 30
1.384721
 11
-0.360000
 21
-0.199691
 31
1.004299
 12
-0.200000
 22
-0.199691
 32
1.004299
 13
-0.200000
 23
-0.199691
 33
1.004299
  0
3DFACE
  8
18/arm21
 10
-0.200000
 20
-0.076085
 30
1.384721
 11
-0.360000
 21
-0.076085
 31
1.384721
 12
-0.200000
 22
-0.199691
 32
1.004299
 13
-0.200000
 23
-0.199691
 33
1.004299
  0
3DFACE
  8
18/arm21
 10
-0.360000
 20
0.076084
 30
1.335279
 11
-0.360000
 21
-0.076085
 31
1.384721
 12
-0.200000
 22
-0.076085
 32
1.384721
 13
-0.200000
 23
-0.076085
 33
1.384721
  0
3DFACE
  8
18/arm21
 10
-0.200000
 20
0.076084
 30
1.335279
 11
-0.360000
 21
0.076084
 31
1.335279
 12
-0.200000
 22
-0.076085
 32
1.384721
 13
-0.200000
 23
-0.076085
 33
1.384721
  0
3DFACE
  8
18/arm21
 10
-0.360000
 20
-0.047522
 30
0.954856
 11
-0.360000
 21
0.076084
 31
1.335279
 12
-0.200000
 22
0.076084
 32
1.335279
 13
-0.200000
 23
0.076084
 33
1.335279
  0
3DFACE
  8
18/arm21
 10
-0.200000
 20
-0.047522
 30
0.954856
 11
-0.360000
 21
-0.047522
 31
0.954856
 12
-0.200000
 22
0.076084
 32
1.335279
 13
-0.200000
 23
0.076084
 33
1.335279
  0
3DFACE
  8
18/arm21
 10
-0.360000
 20
-0.199691
 30
1.004299
 11
-0.360000
 21
-0.047522
 31
0.954856
 12
-0.200000
 22
-0.047522
 32
0.954856
 13
-0.200000
 23
-0.047522
 33
0.954856
  0
3DFACE
  8
18/arm21
 10
-0.200000
 20
-0.199691
 30
1.004299
 11
-0.360000
 21
-0.199691
 31
1.004299
 12
-0.200000
 22
-0.047522
 32
0.954856
 13
-0.200000
 23
-0.047522
 33
0.954856
  0
3DFACE
  8
18/arm21
 10
-0.200000
 20
0.076084
 30
1.335279
 11
-0.200000
 21
-0.076085
 31
1.384721
 12
-0.200000
 22
-0.199691
 32
1.004299
 13
-0.200000
 23
-0.199691
 33
1.004299
  0
3DFACE
  8
18/arm21
 10
-0.200000
 20
-0.047522
 30
0.954856
 11
-0.200000
 21
0.076084
 31
1.335279
 12
-0.200000
 22
-0.199691
 32
1.004299
 13
-0.200000
 23
-0.199691
 33
1.004299
  0
3DFACE
  8
20/arm22
 10
-0.360000
 20
-0.047522
 30
0.954856
 11
-0.360000
 21
-0.171129
 31
0.574433
 12
-0.360000
 22
-0.323298
 32
0.623876
 13
-0.360000
 23
-0.323298
 33
0.623876
  0
3DFACE
  8
20/arm22
 10
-0.360000
 20
-0.199691
 30
1.004299
 11
-0.360000
 21
-0.047522
 31
0.954856
 12
-0.360000
 22
-0.323298
 32
0.623876
 13
-0.360000
 23
-0.323298
 33
0.623876
  0
3DFACE
  8
20/arm22
 10
-0.360000
 20
-0.199691
 30
1.004299
 11
-0.360000
 21
-0.323298
 31
0.623876
 12
-0.200000
 22
-0.323298
 32
0.623876
 13
-0.200000
 23
-0.323298
 33
0.623876
  0
3DFACE
  8
20/arm22
 10
-0.200000
 20
-0.199691
 30
1.004299
 11
-0.360000
 21
-0.199691
 31
1.004299
 12
-0.200000
 22
-0.323298
 32
0.623876
 13
-0.200000
 23
-0.323298
 33
0.623876
  0
3DFACE
  8
20/arm22
 10
-0.360000
 20
-0.047522
 30
0.954856
 11
-0.360000
 21
-0.199691
 31
1.004299
 12
-0.200000
 22
-0.199691
 32
1.004299
 13
-0.200000
 23
-0.199691
 33
1.004299
  0
3DFACE
  8
20/arm22
 10
-0.200000
 20
-0.047522
 30
0.954856
 11
-0.360000
 21
-0.047522
 31
0.954856
 12
-0.200000
 22
-0.199691
 32
1.004299
 13
-0.200000
 23
-0.199691
 33
1.004299
  0
3DFACE
  8
20/arm22
 10
-0.360000
 20
-0.171129
 30
0.574433
 11
-0.360000
 21
-0.047522
 31
0.954856
 12
-0.200000
 22
-0.047522
 32
0.954856
 13
-0.200000
 23
-0.047522
 33
0.954856
  0
3DFACE
  8
20/arm22
 10
-0.200000
 20
-0.171129
 30
0.574433
 11
-0.360000
 21
-0.171129
 31
0.574433
 12
-0.200000
 22
-0.047522
 32
0.954856
 13
-0.200000
 23
-0.047522
 33
0.954856
  0
3DFACE
  8
20/arm22
 10
-0.360000
 20
-0.323298
 30
0.623876
 11
-0.360000
 21
-0.171129
 31
0.574433
 12
-0.200000
 22
-0.171129
 32
0.574433
 13
-0.200000
 23
-0.171129
 33
0.574433
  0
3DFACE
  8
20/arm22
 10
-0.200000
 20
-0.323298
 30
0.623876
 11
-0.360000
 21
-0.323298
 31
0.623876
 12
-0.200000
 22
-0.171129
 32
0.574433
 13
-0.200000
 23
-0.171129
 33
0.574433
  0
3DFACE
  8
20/arm22
 10
-0.200000
 20
-0.047522
 30
0.954856
 11
-0.200000
 21
-0.199691
 31
1.004299
 12
-0.200000
 22
-0.323298
 32
0.623876
 13
-0.200000
 23
-0.323298
 33
0.623876
  0
3DFACE
  8
20/arm22
 10
-0.200000
 20
-0.171129
 30
0.574433
 11
-0.200000
 21
-0.047522
 31
0.954856
 12
-0.200000
 22
-0.323298
 32
0.623876
 13
-0.200000
 23
-0.323298
 33
0.623876
  0
ENDSEC
  0
EOF
