  0
SECTION
  2
ENTITIES
  0
3DFACE
  8
2/head
 10
0.099188
 20
0.141421
 30
1.500812
 11
0.000000
 21
0.200000
 31
1.600000
 12
0.141421
 22
0.141421
 32
1.600000
 13
0.141421
 23
0.141421
 33
1.600000
  0
3DFACE
  8
2/head
 10
0.099188
 20
0.141421
 30
1.500812
 11
0.141421
 21
0.141421
 31
1.600000
 12
0.200000
 22
0.000000
 32
1.600000
 13
0.200000
 23
0.000000
 33
1.600000
  0
3DFACE
  8
2/head
 10
0.200000
 20
0.000000
 30
1.600000
 11
0.141421
 21
0.000000
 31
1.458579
 12
0.099188
 22
0.141421
 32
1.500812
 13
0.099188
 23
0.141421
 33
1.500812
  0
3DFACE
  8
2/head
 10
0.141421
 20
0.000000
 30
1.458579
 11
0.200000
 21
0.000000
 31
1.600000
 12
0.141421
 22
-0.141421
 32
1.600000
 13
0.141421
 23
-0.141421
 33
1.600000
  0
3DFACE
  8
2/head
 10
0.141421
 20
-0.141421
 30
1.600000
 11
0.099188
 21
-0.141421
 31
1.500812
 12
0.141421
 22
0.000000
 32
1.458579
 13
0.141421
 23
0.000000
 33
1.458579
  0
3DFACE
  8
2/head
 10
0.000000
 20
-0.200000
 30
1.600000
 11
0.099188
 21
-0.141421
 31
1.500812
 12
0.141421
 22
-0.141421
 32
1.600000
 13
0.141421
 23
-0.141421
 33
1.600000
  0
3DFACE
  8
2/head
 10
0.000000
 20
0.141421
 30
1.458579
 11
0.000000
 21
0.200000
 31
1.600000
 12
0.099188
 22
0.141421
 32
1.500812
 13
0.099188
 23
0.141421
 33
1.500812
  0
3DFACE
  8
2/head
 10
0.000000
 20
0.141421
 30
1.458579
 11
0.099188
 21
0.141421
 31
1.500812
 12
0.141421
 22
0.000000
 32
1.458579
 13
0.141421
 23
0.000000
 33
1.458579
  0
3DFACE
  8
2/head
 10
0.141421
 20
0.000000
 30
1.458579
 11
0.000000
 21
0.000000
 31
1.400000
 12
0.000000
 22
0.141421
 32
1.458579
 13
0.000000
 23
0.141421
 33
1.458579
  0
3DFACE
  8
2/head
 10
0.000000
 20
0.000000
 30
1.400000
 11
0.141421
 21
0.000000
 31
1.458579
 12
0.099188
 22
-0.141421
 32
1.500812
 13
0.099188
 23
-0.141421
 33
1.500812
  0
3DFACE
  8
2/head
 10
0.099188
 20
-0.141421
 30
1.500812
 11
0.000000
 21
-0.141421
 31
1.458579
 12
0.000000
 22
0.000000
 32
1.400000
 13
0.000000
 23
0.000000
 33
1.400000
  0
3DFACE
  8
2/head
 10
0.000000
 20
-0.200000
 30
1.600000
 11
0.000000
 21
-0.141421
 31
1.458579
 12
0.099188
 22
-0.141421
 32
1.500812
 13
0.099188
 23
-0.141421
 33
1.500812
  0
3DFACE
  8
2/head
 10
-0.099188
 20
0.141421
 30
1.500812
 11
0.000000
 21
0.200000
 31
1.600000
 12
0.000000
 22
0.141421
 32
1.458579
 13
0.000000
 23
0.141421
 33
1.458579
  0
3DFACE
  8
2/head
 10
-0.099188
 20
0.141421
 30
1.500812
 11
0.000000
 21
0.141421
 31
1.458579
 12
0.000000
 22
0.000000
 32
1.400000
 13
0.000000
 23
0.000000
 33
1.400000
  0
3DFACE
  8
2/head
 10
0.000000
 20
0.000000
 30
1.400000
 11
-0.141421
 21
0.000000
 31
1.458579
 12
-0.099188
 22
0.141421
 32
1.500812
 13
-0.099188
 23
0.141421
 33
1.500812
  0
3DFACE
  8
2/head
 10
-0.141421
 20
0.000000
 30
1.458579
 11
0.000000
 21
0.000000
 31
1.400000
 12
0.000000
 22
-0.141421
 32
1.458579
 13
0.000000
 23
-0.141421
 33
1.458579
  0
3DFACE
  8
2/head
 10
0.000000
 20
-0.141421
 30
1.458579
 11
-0.099188
 21
-0.141421
 31
1.500812
 12
-0.141421
 22
0.000000
 32
1.458579
 13
-0.141421
 23
0.000000
 33
1.458579
  0
3DFACE
  8
2/head
 10
0.000000
 20
-0.200000
 30
1.600000
 11
-0.099188
 21
-0.141421
 31
1.500812
 12
0.000000
 22
-0.141421
 32
1.458579
 13
0.000000
 23
-0.141421
 33
1.458579
  0
3DFACE
  8
2/head
 10
-0.141421
 20
0.141421
 30
1.600000
 11
0.000000
 21
0.200000
 31
1.600000
 12
-0.099188
 22
0.141421
 32
1.500812
 13
-0.099188
 23
0.141421
 33
1.500812
  0
3DFACE
  8
2/head
 10
-0.141421
 20
0.141421
 30
1.600000
 11
-0.099188
 21
0.141421
 31
1.500812
 12
-0.141421
 22
0.000000
 32
1.458579
 13
-0.141421
 23
0.000000
 33
1.458579
  0
3DFACE
  8
2/head
 10
-0.141421
 20
0.000000
 30
1.458579
 11
-0.200000
 21
0.000000
 31
1.600000
 12
-0.141421
 22
0.141421
 32
1.600000
 13
-0.141421
 23
0.141421
 33
1.600000
  0
3DFACE
  8
2/head
 10
-0.200000
 20
0.000000
 30
1.600000
 11
-0.141421
 21
0.000000
 31
1.458579
 12
-0.099188
 22
-0.141421
 32
1.500812
 13
-0.099188
 23
-0.141421
 33
1.500812
  0
3DFACE
  8
2/head
 10
-0.099188
 20
-0.141421
 30
1.500812
 11
-0.141421
 21
-0.141421
 31
1.600000
 12
-0.200000
 22
0.000000
 32
1.600000
 13
-0.200000
 23
0.000000
 33
1.600000
  0
3DFACE
  8
2/head
 10
0.000000
 20
-0.200000
 30
1.600000
 11
-0.141421
 21
-0.141421
 31
1.600000
 12
-0.099188
 22
-0.141421
 32
1.500812
 13
-0.099188
 23
-0.141421
 33
1.500812
  0
3DFACE
  8
2/head
 10
-0.099188
 20
0.141421
 30
1.699188
 11
0.000000
 21
0.200000
 31
1.600000
 12
-0.141421
 22
0.141421
 32
1.600000
 13
-0.141421
 23
0.141421
 33
1.600000
  0
3DFACE
  8
2/head
 10
-0.099188
 20
0.141421
 30
1.699188
 11
-0.141421
 21
0.141421
 31
1.600000
 12
-0.200000
 22
0.000000
 32
1.600000
 13
-0.200000
 23
0.000000
 33
1.600000
  0
3DFACE
  8
2/head
 10
-0.200000
 20
0.000000
 30
1.600000
 11
-0.141421
 21
0.000000
 31
1.741421
 12
-0.099188
 22
0.141421
 32
1.699188
 13
-0.099188
 23
0.141421
 33
1.699188
  0
3DFACE
  8
2/head
 10
-0.141421
 20
0.000000
 30
1.741421
 11
-0.200000
 21
0.000000
 31
1.600000
 12
-0.141421
 22
-0.141421
 32
1.600000
 13
-0.141421
 23
-0.141421
 33
1.600000
  0
3DFACE
  8
2/head
 10
-0.141421
 20
-0.141421
 30
1.600000
 11
-0.099188
 21
-0.141421
 31
1.699188
 12
-0.141421
 22
0.000000
 32
1.741421
 13
-0.141421
 23
0.000000
 33
1.741421
  0
3DFACE
  8
2/head
 10
0.000000
 20
-0.200000
 30
1.600000
 11
-0.099188
 21
-0.141421
 31
1.699188
 12
-0.141421
 22
-0.141421
 32
1.600000
 13
-0.141421
 23
-0.141421
 33
1.600000
  0
3DFACE
  8
2/head
 10
0.000000
 20
0.141421
 30
1.741421
 11
0.000000
 21
0.200000
 31
1.600000
 12
-0.099188
 22
0.141421
 32
1.699188
 13
-0.099188
 23
0.141421
 33
1.699188
  0
3DFACE
  8
2/head
 10
0.000000
 20
0.141421
 30
1.741421
 11
-0.099188
 21
0.141421
 31
1.699188
 12
-0.141421
 22
0.000000
 32
1.741421
 13
-0.141421
 23
0.000000
 33
1.741421
  0
3DFACE
  8
2/head
 10
-0.141421
 20
0.000000
 30
1.741421
 11
0.000000
 21
0.000000
 31
1.800000
 12
0.000000
 22
0.141421
 32
1.741421
 13
0.000000
 23
0.141421
 33
1.741421
  0
3DFACE
  8
2/head
 10
0.000000
 20
0.000000
 30
1.800000
 11
-0.141421
 21
0.000000
 31
1.741421
 12
-0.099188
 22
-0.141421
 32
1.699188
 13
-0.099188
 23
-0.141421
 33
1.699188
  0
3DFACE
  8
2/head
 10
-0.099188
 20
-0.141421
 30
1.699188
 11
0.000000
 21
-0.141421
 31
1.741421
 12
0.000000
 22
0.000000
 32
1.800000
 13
0.000000
 23
0.000000
 33
1.800000
  0
3DFACE
  8
2/head
 10
0.000000
 20
-0.200000
 30
1.600000
 11
0.000000
 21
-0.141421
 31
1.741421
 12
-0.099188
 22
-0.141421
 32
1.699188
 13
-0.099188
 23
-0.141421
 33
1.699188
  0
3DFACE
  8
2/head
 10
0.099188
 20
0.141421
 30
1.699188
 11
0.000000
 21
0.200000
 31
1.600000
 12
0.000000
 22
0.141421
 32
1.741421
 13
0.000000
 23
0.141421
 33
1.741421
  0
3DFACE
  8
2/head
 10
0.099188
 20
0.141421
 30
1.699188
 11
0.000000
 21
0.141421
 31
1.741421
 12
0.000000
 22
0.000000
 32
1.800000
 13
0.000000
 23
0.000000
 33
1.800000
  0
3DFACE
  8
2/head
 10
0.000000
 20
0.000000
 30
1.800000
 11
0.141421
 21
0.000000
 31
1.741421
 12
0.099188
 22
0.141421
 32
1.699188
 13
0.099188
 23
0.141421
 33
1.699188
  0
3DFACE
  8
2/head
 10
0.141421
 20
0.000000
 30
1.741421
 11
0.000000
 21
0.000000
 31
1.800000
 12
0.000000
 22
-0.141421
 32
1.741421
 13
0.000000
 23
-0.141421
 33
1.741421
  0
3DFACE
  8
2/head
 10
0.000000
 20
-0.141421
 30
1.741421
 11
0.099188
 21
-0.141421
 31
1.699188
 12
0.141421
 22
0.000000
 32
1.741421
 13
0.141421
 23
0.000000
 33
1.741421
  0
3DFACE
  8
2/head
 10
0.000000
 20
-0.200000
 30
1.600000
 11
0.099188
 21
-0.141421
 31
1.699188
 12
0.000000
 22
-0.141421
 32
1.741421
 13
0.000000
 23
-0.141421
 33
1.741421
  0
3DFACE
  8
2/head
 10
0.141421
 20
0.141421
 30
1.600000
 11
0.000000
 21
0.200000
 31
1.600000
 12
0.099188
 22
0.141421
 32
1.699188
 13
0.099188
 23
0.141421
 33
1.699188
  0
3DFACE
  8
2/head
 10
0.141421
 20
0.141421
 30
1.600000
 11
0.099188
 21
0.141421
 31
1.699188
 12
0.141421
 22
0.000000
 32
1.741421
 13
0.141421
 23
0.000000
 33
1.741421
  0
3DFACE
  8
2/head
 10
0.141421
 20
0.000000
 30
1.741421
 11
0.200000
 21
0.000000
 31
1.600000
 12
0.141421
 22
0.141421
 32
1.600000
 13
0.141421
 23
0.141421
 33
1.600000
  0
3DFACE
  8
2/head
 10
0.200000
 20
0.000000
 30
1.600000
 11
0.141421
 21
0.000000
 31
1.741421
 12
0.099188
 22
-0.141421
 32
1.699188
 13
0.099188
 23
-0.141421
 33
1.699188
  0
3DFACE
  8
2/head
 10
0.099188
 20
-0.141421
 30
1.699188
 11
0.141421
 21
-0.141421
 31
1.600000
 12
0.200000
 22
0.000000
 32
1.600000
 13
0.200000
 23
0.000000
 33
1.600000
  0
3DFACE
  8
2/head
 10
0.000000
 20
-0.200000
 30
1.600000
 11
0.141421
 21
-0.141421
 31
1.600000
 12
0.099188
 22
-0.141421
 32
1.699188
 13
0.099188
 23
-0.141421
 33
1.699188
  0
3DFACE
  8
4/body
 10
-0.200000
 20
0.080000
 30
1.400000
 11
-0.200000
 21
0.080000
 31
0.800000
 12
-0.200000
 22
-0.080000
 32
0.800000
 13
-0.200000
 23
-0.080000
 33
0.800000
  0
3DFACE
  8
4/body
 10
-0.200000
 20
-0.080000
 30
1.400000
 11
-0.200000
 21
0.080000
 31
1.400000
 12
-0.200000
 22
-0.080000
 32
0.800000
 13
-0.200000
 23
-0.080000
 33
0.800000
  0
3DFACE
  8
4/body
 10
-0.200000
 20
-0.080000
 30
1.400000
 11
-0.200000
 21
-0.080000
 31
0.800000
 12
0.200000
 22
-0.080000
 32
0.800000
 13
0.200000
 23
-0.080000
 33
0.800000
  0
3DFACE
  8
4/body
 10
0.200000
 20
-0.080000
 30
1.400000
 11
-0.200000
 21
-0.080000
 31
1.400000
 12
0.200000
 22
-0.080000
 32
0.800000
 13
0.200000
 23
-0.080000
 33
0.800000
  0
3DFACE
  8
4/body
 10
-0.200000
 20
0.080000
 30
1.400000
 11
-0.200000
 21
-0.080000
 31
1.400000
 12
0.200000
 22
-0.080000
 32
1.400000
 13
0.200000
 23
-0.080000
 33
1.400000
  0
3DFACE
  8
4/body
 10
0.200000
 20
0.080000
 30
1.400000
 11
-0.200000
 21
0.080000
 31
1.400000
 12
0.200000
 22
-0.080000
 32
1.400000
 13
0.200000
 23
-0.080000
 33
1.400000
  0
3DFACE
  8
4/body
 10
-0.200000
 20
0.080000
 30
0.800000
 11
-0.200000
 21
0.080000
 31
1.400000
 12
0.200000
 22
0.080000
 32
1.400000
 13
0.200000
 23
0.080000
 33
1.400000
  0
3DFACE
  8
4/body
 10
0.200000
 20
0.080000
 30
0.800000
 11
-0.200000
 21
0.080000
 31
0.800000
 12
0.200000
 22
0.080000
 32
1.400000
 13
0.200000
 23
0.080000
 33
1.400000
  0
3DFACE
  8
4/body
 10
-0.200000
 20
-0.080000
 30
0.800000
 11
-0.200000
 21
0.080000
 31
0.800000
 12
0.200000
 22
0.080000
 32
0.800000
 13
0.200000
 23
0.080000
 33
0.800000
  0
3DFACE
  8
4/body
 10
0.200000
 20
-0.080000
 30
0.800000
 11
-0.200000
 21
-0.080000
 31
0.800000
 12
0.200000
 22
0.080000
 32
0.800000
 13
0.200000
 23
0.080000
 33
0.800000
  0
3DFACE
  8
4/body
 10
0.200000
 20
0.080000
 30
1.400000
 11
0.200000
 21
-0.080000
 31
1.400000
 12
0.200000
 22
-0.080000
 32
0.800000
 13
0.200000
 23
-0.080000
 33
0.800000
  0
3DFACE
  8
4/body
 10
0.200000
 20
0.080000
 30
0.800000
 11
0.200000
 21
0.080000
 31
1.400000
 12
0.200000
 22
-0.080000
 32
0.800000
 13
0.200000
 23
-0.080000
 33
0.800000
  0
3DFACE
  8
6/leg11
 10
-0.180000
 20
0.078463
 30
0.784393
 11
-0.180000
 21
0.000427
 31
0.392079
 12
-0.180000
 22
-0.156499
 32
0.423293
 13
-0.180000
 23
-0.156499
 33
0.423293
  0
3DFACE
  8
6/leg11
 10
-0.180000
 20
-0.078463
 30
0.815607
 11
-0.180000
 21
0.078463
 31
0.784393
 12
-0.180000
 22
-0.156499
 32
0.423293
 13
-0.180000
 23
-0.156499
 33
0.423293
  0
3DFACE
  8
6/leg11
 10
-0.180000
 20
-0.078463
 30
0.815607
 11
-0.180000
 21
-0.156499
 31
0.423293
 12
-0.020000
 22
-0.156499
 32
0.423293
 13
-0.020000
 23
-0.156499
 33
0.423293
  0
3DFACE
  8
6/leg11
 10
-0.020000
 20
-0.078463
 30
0.815607
 11
-0.180000
 21
-0.078463
 31
0.815607
 12
-0.020000
 22
-0.156499
 32
0.423293
 13
-0.020000
 23
-0.156499
 33
0.423293
  0
3DFACE
  8
6/leg11
 10
-0.180000
 20
0.078463
 30
0.784393
 11
-0.180000
 21
-0.078463
 31
0.815607
 12
-0.020000
 22
-0.078463
 32
0.815607
 13
-0.020000
 23
-0.078463
 33
0.815607
  0
3DFACE
  8
6/leg11
 10
-0.020000
 20
0.078463
 30
0.784393
 11
-0.180000
 21
0.078463
 31
0.784393
 12
-0.020000
 22
-0.078463
 32
0.815607
 13
-0.020000
 23
-0.078463
 33
0.815607
  0
3DFACE
  8
6/leg11
 10
-0.180000
 20
0.000427
 30
0.392079
 11
-0.180000
 21
0.078463
 31
0.784393
 12
-0.020000
 22
0.078463
 32
0.784393
 13
-0.020000
 23
0.078463
 33
0.784393
  0
3DFACE
  8
6/leg11
 10
-0.020000
 20
0.000427
 30
0.392079
 11
-0.180000
 21
0.000427
 31
0.392079
 12
-0.020000
 22
0.078463
 32
0.784393
 13
-0.020000
 23
0.078463
 33
0.784393
  0
3DFACE
  8
6/leg11
 10
-0.180000
 20
-0.156499
 30
0.423293
 11
-0.180000
 21
0.000427
 31
0.392079
 12
-0.020000
 22
0.000427
 32
0.392079
 13
-0.020000
 23
0.000427
 33
0.392079
  0
3DFACE
  8
6/leg11
 10
-0.020000
 20
-0.156499
 30
0.423293
 11
-0.180000
 21
-0.156499
 31
0.423293
 12
-0.020000
 22
0.000427
 32
0.392079
 13
-0.020000
 23
0.000427
 33
0.392079
  0
3DFACE
  8
6/leg11
 10
-0.020000
 20
0.078463
 30
0.784393
 11
-0.020000
 21
-0.078463
 31
0.815607
 12
-0.020000
 22
-0.156499
 32
0.423293
 13
-0.020000
 23
-0.156499
 33
0.423293
  0
3DFACE
  8
6/leg11
 10
-0.020000
 20
0.000427
 30
0.392079
 11
-0.020000
 21
0.078463
 31
0.784393
 12
-0.020000
 22
-0.156499
 32
0.423293
 13
-0.020000
 23
-0.156499
 33
0.423293
  0
3DFACE
  8
8/leg12
 10
-0.180000
 20
0.000427
 30
0.392079
 11
-0.180000
 21
-0.077609
 31
-0.000235
 12
-0.180000
 22
-0.234535
 32
0.030979
 13
-0.180000
 23
-0.234535
 33
0.030979
  0
3DFACE
  8
8/leg12
 10
-0.180000
 20
-0.156499
 30
0.423293
 11
-0.180000
 21
0.000427
 31
0.392079
 12
-0.180000
 22
-0.234535
 32
0.030979
 13
-0.180000
 23
-0.234535
 33
0.030979
  0
3DFACE
  8
8/leg12
 10
-0.180000
 20
-0.156499
 30
0.423293
 11
-0.180000
 21
-0.234535
 31
0.030979
 12
-0.020000
 22
-0.234535
 32
0.030979
 13
-0.020000
 23
-0.234535
 33
0.030979
  0
3DFACE
  8
8/leg12
 10
-0.020000
 20
-0.156499
 30
0.423293
 11
-0.180000
 21
-0.156499
 31
0.423293
 12
-0.020000
 22
-0.234535
 32
0.030979
 13
-0.020000
 23
-0.234535
 33
0.030979
  0
3DFACE
  8
8/leg12
 10
-0.180000
 20
0.000427
 30
0.392079
 11
-0.180000
 21
-0.156499
 31
0.423293
 12
-0.020000
 22
-0.156499
 32
0.423293
 13
-0.020000
 23
-0.156499
 33
0.423293
  0
3DFACE
  8
8/leg12
 10
-0.020000
 20
0.000427
 30
0.392079
 11
-0.180000
 21
0.000427
 31
0.392079
 12
-0.020000
 22
-0.156499
 32
0.423293
 13
-0.020000
 23
-0.156499
 33
0.423293
  0
3DFACE
  8
8/leg12
 10
-0.180000
 20
-0.077609
 30
-0.000235
 11
-0.180000
 21
0.000427
 31
0.392079
 12
-0.020000
 22
0.000427
 32
0.392079
 13
-0.020000
 23
0.000427
 33
0.392079
  0
3DFACE
  8
8/leg12
 10
-0.020000
 20
-0.077609
 30
-0.000235
 11
-0.180000
 21
-0.077609
 31
-0.000235
 12
-0.020000
 22
0.000427
 32
0.392079
 13
-0.020000
 23
0.000427
 33
0.392079
  0
3DFACE
  8
8/leg12
 10
-0.180000
 20
-0.234535
 30
0.030979
 11
-0.180000
 21
-0.077609
 31
-0.000235
 12
-0.020000
 22
-0.077609
 32
-0.000235
 13
-0.020000
 23
-0.077609
 33
-0.000235
  0
3DFACE
  8
8/leg12
 10
-0.020000
 20
-0.234535
 30
0.030979
 11
-0.180000
 21
-0.234535
 31
0.030979
 12
-0.020000
 22
-0.077609
 32
-0.000235
 13
-0.020000
 23
-0.077609
 33
-0.000235
  0
3DFACE
  8
8/leg12
 10
-0.020000
 20
0.000427
 30
0.392079
 11
-0.020000
 21
-0.156499
 31
0.423293
 12
-0.020000
 22
-0.234535
 32
0.030979
 13
-0.020000
 23
-0.234535
 33
0.030979
  0
3DFACE
  8
8/leg12
 10
-0.020000
 20
-0.077609
 30
-0.000235
 11
-0.020000
 21
0.000427
 31
0.392079
 12
-0.020000
 22
-0.234535
 32
0.030979
 13
-0.020000
 23
-0.234535
 33
0.030979
  0
3DFACE
  8
10/leg21
 10
0.180000
 20
0.156499
 30
0.423293
 11
0.180000
 21
0.078463
 31
0.815607
 12
0.180000
 22
-0.000427
 32
0.392079
 13
0.180000
 23
-0.000427
 33
0.392079
  0
3DFACE
  8
10/leg21
 10
0.180000
 20
0.078463
 30
0.815607
 11
0.180000
 21
-0.078463
 31
0.784393
 12
0.180000
 22
-0.000427
 32
0.392079
 13
0.180000
 23
-0.000427
 33
0.392079
  0
3DFACE
  8
10/leg21
 10
0.180000
 20
-0.000427
 30
0.392079
 11
0.180000
 21
-0.078463
 31
0.784393
 12
0.020000
 22
-0.000427
 32
0.392079
 13
0.020000
 23
-0.000427
 33
0.392079
  0
3DFACE
  8
10/leg21
 10
0.180000
 20
-0.078463
 30
0.784393
 11
0.020000
 21
-0.078463
 31
0.784393
 12
0.020000
 22
-0.000427
 32
0.392079
 13
0.020000
 23
-0.000427
 33
0.392079
  0
3DFACE
  8
10/leg21
 10
0.180000
 20
-0.078463
 30
0.784393
 11
0.180000
 21
0.078463
 31
0.815607
 12
0.020000
 22
-0.078463
 32
0.784393
 13
0.020000
 23
-0.078463
 33
0.784393
  0
3DFACE
  8
10/leg21
 10
0.180000
 20
0.078463
 30
0.815607
 11
0.020000
 21
0.078463
 31
0.815607
 12
0.020000
 22
-0.078463
 32
0.784393
 13
0.020000
 23
-0.078463
 33
0.784393
  0
3DFACE
  8
10/leg21
 10
0.180000
 20
0.078463
 30
0.815607
 11
0.180000
 21
0.156499
 31
0.423293
 12
0.020000
 22
0.078463
 32
0.815607
 13
0.020000
 23
0.078463
 33
0.815607
  0
3DFACE
  8
10/leg21
 10
0.180000
 20
0.156499
 30
0.423293
 11
0.020000
 21
0.156499
 31
0.423293
 12
0.020000
 22
0.078463
 32
0.815607
 13
0.020000
 23
0.078463
 33
0.815607
  0
3DFACE
  8
10/leg21
 10
0.180000
 20
0.156499
 30
0.423293
 11
0.180000
 21
-0.000427
 31
0.392079
 12
0.020000
 22
0.156499
 32
0.423293
 13
0.020000
 23
0.156499
 33
0.423293
  0
3DFACE
  8
10/leg21
 10
0.180000
 20
-0.000427
 30
0.392079
 11
0.020000
 21
-0.000427
 31
0.392079
 12
0.020000
 22
0.156499
 32
0.423293
 13
0.020000
 23
0.156499
 33
0.423293
  0
3DFACE
  8
10/leg21
 10
0.020000
 20
-0.078463
 30
0.784393
 11
0.020000
 21
0.078463
 31
0.815607
 12
0.020000
 22
-0.000427
 32
0.392079
 13
0.020000
 23
-0.000427
 33
0.392079
  0
3DFACE
  8
10/leg21
 10
0.020000
 20
0.078463
 30
0.815607
 11
0.020000
 21
0.156499
 31
0.423293
 12
0.020000
 22
-0.000427
 32
0.392079
 13
0.020000
 23
-0.000427
 33
0.392079
  0
3DFACE
  8
12/leg22
 10
0.180000
 20
0.234535
 30
0.030979
 11
0.180000
 21
0.156499
 31
0.423293
 12
0.180000
 22
0.077609
 32
-0.000235
 13
0.180000
 23
0.077609
 33
-0.000235
  0
3DFACE
  8
12/leg22
 10
0.180000
 20
0.156499
 30
0.423293
 11
0.180000
 21
-0.000427
 31
0.392079
 12
0.180000
 22
0.077609
 32
-0.000235
 13
0.180000
 23
0.077609
 33
-0.000235
  0
3DFACE
  8
12/leg22
 10
0.180000
 20
0.077609
 30
-0.000235
 11
0.180000
 21
-0.000427
 31
0.392079
 12
0.020000
 22
0.077609
 32
-0.000235
 13
0.020000
 23
0.077609
 33
-0.000235
  0
3DFACE
  8
12/leg22
 10
0.180000
 20
-0.000427
 30
0.392079
 11
0.020000
 21
-0.000427
 31
0.392079
 12
0.020000
 22
0.077609
 32
-0.000235
 13
0.020000
 23
0.077609
 33
-0.000235
  0
3DFACE
  8
12/leg22
 10
0.180000
 20
-0.000427
 30
0.392079
 11
0.180000
 21
0.156499
 31
0.423293
 12
0.020000
 22
-0.000427
 32
0.392079
 13
0.020000
 23
-0.000427
 33
0.392079
  0
3DFACE
  8
12/leg22
 10
0.180000
 20
0.156499
 30
0.423293
 11
0.020000
 21
0.156499
 31
0.423293
 12
0.020000
 22
-0.000427
 32
0.392079
 13
0.020000
 23
-0.000427
 33
0.392079
  0
3DFACE
  8
12/leg22
 10
0.180000
 20
0.156499
 30
0.423293
 11
0.180000
 21
0.234535
 31
0.030979
 12
0.020000
 22
0.156499
 32
0.423293
 13
0.020000
 23
0.156499
 33
0.423293
  0
3DFACE
  8
12/leg22
 10
0.180000
 20
0.234535
 30
0.030979
 11
0.020000
 21
0.234535
 31
0.030979
 12
0.020000
 22
0.156499
 32
0.423293
 13
0.020000
 23
0.156499
 33
0.423293
  0
3DFACE
  8
12/leg22
 10
0.180000
 20
0.234535
 30
0.030979
 11
0.180000
 21
0.077609
 31
-0.000235
 12
0.020000
 22
0.234535
 32
0.030979
 13
0.020000
 23
0.234535
 33
0.030979
  0
3DFACE
  8
12/leg22
 10
0.180000
 20
0.077609
 30
-0.000235
 11
0.020000
 21
0.077609
 31
-0.000235
 12
0.020000
 22
0.234535
 32
0.030979
 13
0.020000
 23
0.234535
 33
0.030979
  0
3DFACE
  8
12/leg22
 10
0.020000
 20
-0.000427
 30
0.392079
 11
0.020000
 21
0.156499
 31
0.423293
 12
0.020000
 22
0.077609
 32
-0.000235
 13
0.020000
 23
0.077609
 33
-0.000235
  0
3DFACE
  8
12/leg22
 10
0.020000
 20
0.156499
 30
0.423293
 11
0.020000
 21
0.234535
 31
0.030979
 12
0.020000
 22
0.077609
 32
-0.000235
 13
0.020000
 23
0.077609
 33
-0.000235
  0
3DFACE
  8
14/arm11
 10
0.360000
 20
0.000427
 30
0.952079
 11
0.360000
 21
0.078463
 31
1.344393
 12
0.360000
 22
-0.156499
 32
0.983293
 13
0.360000
 23
-0.156499
 33
0.983293
  0
3DFACE
  8
14/arm11
 10
0.360000
 20
0.078463
 30
1.344393
 11
0.360000
 21
-0.078463
 31
1.375607
 12
0.360000
 22
-0.156499
 32
0.983293
 13
0.360000
 23
-0.156499
 33
0.983293
  0
3DFACE
  8
14/arm11
 10
0.360000
 20
-0.156499
 30
0.983293
 11
0.360000
 21
-0.078463
 31
1.375607
 12
0.200000
 22
-0.156499
 32
0.983293
 13
0.200000
 23
-0.156499
 33
0.983293
  0
3DFACE
  8
14/arm11
 10
0.360000
 20
-0.078463
 30
1.375607
 11
0.200000
 21
-0.078463
 31
1.375607
 12
0.200000
 22
-0.156499
 32
0.983293
 13
0.200000
 23
-0.156499
 33
0.983293
  0
3DFACE
  8
14/arm11
 10
0.360000
 20
-0.078463
 30
1.375607
 11
0.360000
 21
0.078463
 31
1.344393
 12
0.200000
 22
-0.078463
 32
1.375607
 13
0.200000
 23
-0.078463
 33
1.375607
  0
3DFACE
  8
14/arm11
 10
0.360000
 20
0.078463
 30
1.344393
 11
0.200000
 21
0.078463
 31
1.344393
 12
0.200000
 22
-0.078463
 32
1.375607
 13
0.200000
 23
-0.078463
 33
1.375607
  0
3DFACE
  8
14/arm11
 10
0.360000
 20
0.078463
 30
1.344393
 11
0.360000
 21
0.000427
 31
0.952079
 12
0.200000
 22
0.078463
 32
1.344393
 13
0.200000
 23
0.078463
 33
1.344393
  0
3DFACE
  8
14/arm11
 10
0.360000
 20
0.000427
 30
0.952079
 11
0.200000
 21
0.000427
 31
0.952079
 12
0.200000
 22
0.078463
 32
1.344393
 13
0.200000
 23
0.078463
 33
1.344393
  0
3DFACE
  8
14/arm11
 10
0.360000
 20
0.000427
 30
0.952079
 11
0.360000
 21
-0.156499
 31
0.983293
 12
0.200000
 22
0.000427
 32
0.952079
 13
0.200000
 23
0.000427
 33
0.952079
  0
3DFACE
  8
14/arm11
 10
0.360000
 20
-0.156499
 30
0.983293
 11
0.200000
 21
-0.156499
 31
0.983293
 12
0.200000
 22
0.000427
 32
0.952079
 13
0.200000
 23
0.000427
 33
0.952079
  0
3DFACE
  8
14/arm11
 10
0.200000
 20
-0.078463
 30
1.375607
 11
0.200000
 21
0.078463
 31
1.344393
 12
0.200000
 22
-0.156499
 32
0.983293
 13
0.200000
 23
-0.156499
 33
0.983293
  0
3DFACE
  8
14/arm11
 10
0.200000
 20
0.078463
 30
1.344393
 11
0.200000
 21
0.000427
 31
0.952079
 12
0.200000
 22
-0.156499
 32
0.983293
 13
0.200000
 23
-0.156499
 33
0.983293
  0
3DFACE
  8
16/arm12
 10
0.360000
 20
-0.077609
 30
0.559765
 11
0.360000
 21
0.000427
 31
0.952079
 12
0.360000
 22
-0.234535
 32
0.590979
 13
0.360000
 23
-0.234535
 33
0.590979
  0
3DFACE
  8
16/arm12
 10
0.360000
 20
0.000427
 30
0.952079
 11
0.360000
 21
-0.156499
 31
0.983293
 12
0.360000
 22
-0.234535
 32
0.590979
 13
0.360000
 23
-0.234535
 33
0.590979
  0
3DFACE
  8
16/arm12
 10
0.360000
 20
-0.234535
 30
0.590979
 11
0.360000
 21
-0.156499
 31
0.983293
 12
0.200000
 22
-0.234535
 32
0.590979
 13
0.200000
 23
-0.234535
 33
0.590979
  0
3DFACE
  8
16/arm12
 10
0.360000
 20
-0.156499
 30
0.983293
 11
0.200000
 21
-0.156499
 31
0.983293
 12
0.200000
 22
-0.234535
 32
0.590979
 13
0.200000
 23
-0.234535
 33
0.590979
  0
3DFACE
  8
16/arm12
 10
0.360000
 20
-0.156499
 30
0.983293
 11
0.360000
 21
0.000427
 31
0.952079
 12
0.200000
 22
-0.156499
 32
0.983293
 13
0.200000
 23
-0.156499
 33
0.983293
  0
3DFACE
  8
16/arm12
 10
0.360000
 20
0.000427
 30
0.952079
 11
0.200000
 21
0.000427
 31
0.952079
 12
0.200000
 22
-0.156499
 32
0.983293
 13
0.200000
 23
-0.156499
 33
0.983293
  0
3DFACE
  8
16/arm12
 10
0.360000
 20
0.000427
 30
0.952079
 11
0.360000
 21
-0.077609
 31
0.559765
 12
0.200000
 22
0.000427
 32
0.952079
 13
0.200000
 23
0.000427
 33
0.952079
  0
3DFACE
  8
16/arm12
 10
0.360000
 20
-0.077609
 30
0.559765
 11
0.200000
 21
-0.077609
 31
0.559765
 12
0.200000
 22
0.000427
 32
0.952079
 13
0.200000
 23
0.000427
 33
0.952079
  0
3DFACE
  8
16/arm12
 10
0.360000
 20
-0.077609
 30
0.559765
 11
0.360000
 21
-0.234535
 31
0.590979
 12
0.200000
 22
-0.077609
 32
0.559765
 13
0.200000
 23
-0.077609
 33
0.559765
  0
3DFACE
  8
16/arm12
 10
0.360000
 20
-0.234535
 30
0.590979
 11
0.200000
 21
-0.234535
 31
0.590979
 12
0.200000
 22
-0.077609
 32
0.559765
 13
0.200000
 23
-0.077609
 33
0.559765
  0
3DFACE
  8
16/arm12
 10
0.200000
 20
-0.156499
 30
0.983293
 11
0.200000
 21
0.000427
 31
0.952079
 12
0.200000
 22
-0.234535
 32
0.590979
 13
0.200000
 23
-0.234535
 33
0.590979
  0
3DFACE
  8
16/arm12
 10
0.200000
 20
0.000427
 30
0.952079
 11
0.200000
 21
-0.077609
 31
0.559765
 12
0.200000
 22
-0.234535
 32
0.590979
 13
0.200000
 23
-0.234535
 33
0.590979
  0
3DFACE
  8
18/arm21
 10
-0.360000
 20
0.078463
 30
1.375607
 11
-0.360000
 21
0.156499
 31
0.983293
 12
-0.360000
 22
-0.000427
 32
0.952079
 13
-0.360000
 23
-0.000427
 33
0.952079
  0
3DFACE
  8
18/arm21
 10
-0.360000
 20
-0.078463
 30
1.344393
 11
-0.360000
 21
0.078463
 31
1.375607
 12
-0.360000
 22
-0.000427
 32
0.952079
 13
-0.360000
 23
-0.000427
 33
0.952079
  0
3DFACE
  8
18/arm21
 10
-0.360000
 20
-0.078463
 30
1.344393
 11
-0.360000
 21
-0.000427
 31
0.952079
 12
-0.200000
 22
-0.000427
 32
0.952079
 13
-0.200000
 23
-0.000427
 33
0.952079
  0
3DFACE
  8
18/arm21
 10
-0.200000
 20
-0.078463
 30
1.344393
 11
-0.360000
 21
-0.078463
 31
1.344393
 12
-0.200000
 22
-0.000427
 32
0.952079
 13
-0.200000
 23
-0.000427
 33
0.952079
  0
3DFACE
  8
18/arm21
 10
-0.360000
 20
0.078463
 30
1.375607
 11
-0.360000
 21
-0.078463
 31
1.344393
 12
-0.200000
 22
-0.078463
 32
1.344393
 13
-0.200000
 23
-0.078463
 33
1.344393
  0
3DFACE
  8
18/arm21
 10
-0.200000
 20
0.078463
 30
1.375607
 11
-0.360000
 21
0.078463
 31
1.375607
 12
-0.200000
 22
-0.078463
 32
1.344393
 13
-0.200000
 23
-0.078463
 33
1.344393
  0
3DFACE
  8
18/arm21
 10
-0.360000
 20
0.156499
 30
0.983293
 11
-0.360000
 21
0.078463
 31
1.375607
 12
-0.200000
 22
0.078463
 32
1.375607
 13
-0.200000
 23
0.078463
 33
1.375607
  0
3DFACE
  8
18/arm21
 10
-0.200000
 20
0.156499
 30
0.983293
 11
-0.360000
 21
0.156499
 31
0.983293
 12
-0.200000
 22
0.078463
 32
1.375607
 13
-0.200000
 23
0.078463
 33
1.375607
  0
3DFACE
  8
18/arm21
 10
-0.360000
 20
-0.000427
 30
0.952079
 11
-0.360000
 21
0.156499
 31
0.983293
 12
-0.200000
 22
0.156499
 32
0.983293
 13
-0.200000
 23
0.156499
 33
0.983293
  0
3DFACE
  8
18/arm21
 10
-0.200000
 20
-0.000427
 30
0.952079
 11
-0.360000
 21
-0.000427
 31
0.952079
 12
-0.200000
 22
0.156499
 32
0.983293
 13
-0.200000
 23
0.156499
 33
0.983293
  0
3DFACE
  8
18/arm21
 10
-0.200000
 20
0.078463
 30
1.375607
 11
-0.200000
 21
-0.078463
 31
1.344393
 12
-0.200000
 22
-0.000427
 32
0.952079
 13
-0.200000
 23
-0.000427
 33
0.952079
  0
3DFACE
  8
18/arm21
 10
-0.200000
 20
0.156499
 30
0.983293
 11
-0.200000
 21
0.078463
 31
1.375607
 12
-0.200000
 22
-0.000427
 32
0.952079
 13
-0.200000
 23
-0.000427
 33
0.952079
  0
3DFACE
  8
20/arm22
 10
-0.360000
 20
0.156499
 30
0.983293
 11
-0.360000
 21
0.234535
 31
0.590979
 12
-0.360000
 22
0.077609
 32
0.559765
 13
-0.360000
 23
0.077609
 33
0.559765
  0
3DFACE
  8
20/arm22
 10
-0.360000
 20
-0.000427
 30
0.952079
 11
-0.360000
 21
0.156499
 31
0.983293
 12
-0.360000
 22
0.077609
 32
0.559765
 13
-0.360000
 23
0.077609
 33
0.559765
  0
3DFACE
  8
20/arm22
 10
-0.360000
 20
-0.000427
 30
0.952079
 11
-0.360000
 21
0.077609
 31
0.559765
 12
-0.200000
 22
0.077609
 32
0.559765
 13
-0.200000
 23
0.077609
 33
0.559765
  0
3DFACE
  8
20/arm22
 10
-0.200000
 20
-0.000427
 30
0.952079
 11
-0.360000
 21
-0.000427
 31
0.952079
 12
-0.200000
 22
0.077609
 32
0.559765
 13
-0.200000
 23
0.077609
 33
0.559765
  0
3DFACE
  8
20/arm22
 10
-0.360000
 20
0.156499
 30
0.983293
 11
-0.360000
 21
-0.000427
 31
0.952079
 12
-0.200000
 22
-0.000427
 32
0.952079
 13
-0.200000
 23
-0.000427
 33
0.952079
  0
3DFACE
  8
20/arm22
 10
-0.200000
 20
0.156499
 30
0.983293
 11
-0.360000
 21
0.156499
 31
0.983293
 12
-0.200000
 22
-0.000427
 32
0.952079
 13
-0.200000
 23
-0.000427
 33
0.952079
  0
3DFACE
  8
20/arm22
 10
-0.360000
 20
0.234535
 30
0.590979
 11
-0.360000
 21
0.156499
 31
0.983293
 12
-0.200000
 22
0.156499
 32
0.983293
 13
-0.200000
 23
0.156499
 33
0.983293
  0
3DFACE
  8
20/arm22
 10
-0.200000
 20
0.234535
 30
0.590979
 11
-0.360000
 21
0.234535
 31
0.590979
 12
-0.200000
 22
0.156499
 32
0.983293
 13
-0.200000
 23
0.156499
 33
0.983293
  0
3DFACE
  8
20/arm22
 10
-0.360000
 20
0.077609
 30
0.559765
 11
-0.360000
 21
0.234535
 31
0.590979
 12
-0.200000
 22
0.234535
 32
0.590979
 13
-0.200000
 23
0.234535
 33
0.590979
  0
3DFACE
  8
20/arm22
 10
-0.200000
 20
0.077609
 30
0.559765
 11
-0.360000
 21
0.077609
 31
0.559765
 12
-0.200000
 22
0.234535
 32
0.590979
 13
-0.200000
 23
0.234535
 33
0.590979
  0
3DFACE
  8
20/arm22
 10
-0.200000
 20
0.156499
 30
0.983293
 11
-0.200000
 21
-0.000427
 31
0.952079
 12
-0.200000
 22
0.077609
 32
0.559765
 13
-0.200000
 23
0.077609
 33
0.559765
  0
3DFACE
  8
20/arm22
 10
-0.200000
 20
0.234535
 30
0.590979
 11
-0.200000
 21
0.156499
 31
0.983293
 12
-0.200000
 22
0.077609
 32
0.559765
 13
-0.200000
 23
0.077609
 33
0.559765
  0
ENDSEC
  0
EOF
