  0
SECTION
  2
ENTITIES
  0
3DFACE
  8
2/head
 10
0.099188
 20
0.141421
 30
1.500812
 11
0.000000
 21
0.200000
 31
1.600000
 12
0.141421
 22
0.141421
 32
1.600000
 13
0.141421
 23
0.141421
 33
1.600000
  0
3DFACE
  8
2/head
 10
0.099188
 20
0.141421
 30
1.500812
 11
0.141421
 21
0.141421
 31
1.600000
 12
0.200000
 22
0.000000
 32
1.600000
 13
0.200000
 23
0.000000
 33
1.600000
  0
3DFACE
  8
2/head
 10
0.200000
 20
0.000000
 30
1.600000
 11
0.141421
 21
0.000000
 31
1.458579
 12
0.099188
 22
0.141421
 32
1.500812
 13
0.099188
 23
0.141421
 33
1.500812
  0
3DFACE
  8
2/head
 10
0.141421
 20
0.000000
 30
1.458579
 11
0.200000
 21
0.000000
 31
1.600000
 12
0.141421
 22
-0.141421
 32
1.600000
 13
0.141421
 23
-0.141421
 33
1.600000
  0
3DFACE
  8
2/head
 10
0.141421
 20
-0.141421
 30
1.600000
 11
0.099188
 21
-0.141421
 31
1.500812
 12
0.141421
 22
0.000000
 32
1.458579
 13
0.141421
 23
0.000000
 33
1.458579
  0
3DFACE
  8
2/head
 10
0.000000
 20
-0.200000
 30
1.600000
 11
0.099188
 21
-0.141421
 31
1.500812
 12
0.141421
 22
-0.141421
 32
1.600000
 13
0.141421
 23
-0.141421
 33
1.600000
  0
3DFACE
  8
2/head
 10
0.000000
 20
0.141421
 30
1.458579
 11
0.000000
 21
0.200000
 31
1.600000
 12
0.099188
 22
0.141421
 32
1.500812
 13
0.099188
 23
0.141421
 33
1.500812
  0
3DFACE
  8
2/head
 10
0.000000
 20
0.141421
 30
1.458579
 11
0.099188
 21
0.141421
 31
1.500812
 12
0.141421
 22
0.000000
 32
1.458579
 13
0.141421
 23
0.000000
 33
1.458579
  0
3DFACE
  8
2/head
 10
0.141421
 20
0.000000
 30
1.458579
 11
0.000000
 21
0.000000
 31
1.400000
 12
0.000000
 22
0.141421
 32
1.458579
 13
0.000000
 23
0.141421
 33
1.458579
  0
3DFACE
  8
2/head
 10
0.000000
 20
0.000000
 30
1.400000
 11
0.141421
 21
0.000000
 31
1.458579
 12
0.099188
 22
-0.141421
 32
1.500812
 13
0.099188
 23
-0.141421
 33
1.500812
  0
3DFACE
  8
2/head
 10
0.099188
 20
-0.141421
 30
1.500812
 11
0.000000
 21
-0.141421
 31
1.458579
 12
0.000000
 22
0.000000
 32
1.400000
 13
0.000000
 23
0.000000
 33
1.400000
  0
3DFACE
  8
2/head
 10
0.000000
 20
-0.200000
 30
1.600000
 11
0.000000
 21
-0.141421
 31
1.458579
 12
0.099188
 22
-0.141421
 32
1.500812
 13
0.099188
 23
-0.141421
 33
1.500812
  0
3DFACE
  8
2/head
 10
-0.099188
 20
0.141421
 30
1.500812
 11
0.000000
 21
0.200000
 31
1.600000
 12
0.000000
 22
0.141421
 32
1.458579
 13
0.000000
 23
0.141421
 33
1.458579
  0
3DFACE
  8
2/head
 10
-0.099188
 20
0.141421
 30
1.500812
 11
0.000000
 21
0.141421
 31
1.458579
 12
0.000000
 22
0.000000
 32
1.400000
 13
0.000000
 23
0.000000
 33
1.400000
  0
3DFACE
  8
2/head
 10
0.000000
 20
0.000000
 30
1.400000
 11
-0.141421
 21
0.000000
 31
1.458579
 12
-0.099188
 22
0.141421
 32
1.500812
 13
-0.099188
 23
0.141421
 33
1.500812
  0
3DFACE
  8
2/head
 10
-0.141421
 20
0.000000
 30
1.458579
 11
0.000000
 21
0.000000
 31
1.400000
 12
0.000000
 22
-0.141421
 32
1.458579
 13
0.000000
 23
-0.141421
 33
1.458579
  0
3DFACE
  8
2/head
 10
0.000000
 20
-0.141421
 30
1.458579
 11
-0.099188
 21
-0.141421
 31
1.500812
 12
-0.141421
 22
0.000000
 32
1.458579
 13
-0.141421
 23
0.000000
 33
1.458579
  0
3DFACE
  8
2/head
 10
0.000000
 20
-0.200000
 30
1.600000
 11
-0.099188
 21
-0.141421
 31
1.500812
 12
0.000000
 22
-0.141421
 32
1.458579
 13
0.000000
 23
-0.141421
 33
1.458579
  0
3DFACE
  8
2/head
 10
-0.141421
 20
0.141421
 30
1.600000
 11
0.000000
 21
0.200000
 31
1.600000
 12
-0.099188
 22
0.141421
 32
1.500812
 13
-0.099188
 23
0.141421
 33
1.500812
  0
3DFACE
  8
2/head
 10
-0.141421
 20
0.141421
 30
1.600000
 11
-0.099188
 21
0.141421
 31
1.500812
 12
-0.141421
 22
0.000000
 32
1.458579
 13
-0.141421
 23
0.000000
 33
1.458579
  0
3DFACE
  8
2/head
 10
-0.141421
 20
0.000000
 30
1.458579
 11
-0.200000
 21
0.000000
 31
1.600000
 12
-0.141421
 22
0.141421
 32
1.600000
 13
-0.141421
 23
0.141421
 33
1.600000
  0
3DFACE
  8
2/head
 10
-0.200000
 20
0.000000
 30
1.600000
 11
-0.141421
 21
0.000000
 31
1.458579
 12
-0.099188
 22
-0.141421
 32
1.500812
 13
-0.099188
 23
-0.141421
 33
1.500812
  0
3DFACE
  8
2/head
 10
-0.099188
 20
-0.141421
 30
1.500812
 11
-0.141421
 21
-0.141421
 31
1.600000
 12
-0.200000
 22
0.000000
 32
1.600000
 13
-0.200000
 23
0.000000
 33
1.600000
  0
3DFACE
  8
2/head
 10
0.000000
 20
-0.200000
 30
1.600000
 11
-0.141421
 21
-0.141421
 31
1.600000
 12
-0.099188
 22
-0.141421
 32
1.500812
 13
-0.099188
 23
-0.141421
 33
1.500812
  0
3DFACE
  8
2/head
 10
-0.099188
 20
0.141421
 30
1.699188
 11
0.000000
 21
0.200000
 31
1.600000
 12
-0.141421
 22
0.141421
 32
1.600000
 13
-0.141421
 23
0.141421
 33
1.600000
  0
3DFACE
  8
2/head
 10
-0.099188
 20
0.141421
 30
1.699188
 11
-0.141421
 21
0.141421
 31
1.600000
 12
-0.200000
 22
0.000000
 32
1.600000
 13
-0.200000
 23
0.000000
 33
1.600000
  0
3DFACE
  8
2/head
 10
-0.200000
 20
0.000000
 30
1.600000
 11
-0.141421
 21
0.000000
 31
1.741421
 12
-0.099188
 22
0.141421
 32
1.699188
 13
-0.099188
 23
0.141421
 33
1.699188
  0
3DFACE
  8
2/head
 10
-0.141421
 20
0.000000
 30
1.741421
 11
-0.200000
 21
0.000000
 31
1.600000
 12
-0.141421
 22
-0.141421
 32
1.600000
 13
-0.141421
 23
-0.141421
 33
1.600000
  0
3DFACE
  8
2/head
 10
-0.141421
 20
-0.141421
 30
1.600000
 11
-0.099188
 21
-0.141421
 31
1.699188
 12
-0.141421
 22
0.000000
 32
1.741421
 13
-0.141421
 23
0.000000
 33
1.741421
  0
3DFACE
  8
2/head
 10
0.000000
 20
-0.200000
 30
1.600000
 11
-0.099188
 21
-0.141421
 31
1.699188
 12
-0.141421
 22
-0.141421
 32
1.600000
 13
-0.141421
 23
-0.141421
 33
1.600000
  0
3DFACE
  8
2/head
 10
0.000000
 20
0.141421
 30
1.741421
 11
0.000000
 21
0.200000
 31
1.600000
 12
-0.099188
 22
0.141421
 32
1.699188
 13
-0.099188
 23
0.141421
 33
1.699188
  0
3DFACE
  8
2/head
 10
0.000000
 20
0.141421
 30
1.741421
 11
-0.099188
 21
0.141421
 31
1.699188
 12
-0.141421
 22
0.000000
 32
1.741421
 13
-0.141421
 23
0.000000
 33
1.741421
  0
3DFACE
  8
2/head
 10
-0.141421
 20
0.000000
 30
1.741421
 11
0.000000
 21
0.000000
 31
1.800000
 12
0.000000
 22
0.141421
 32
1.741421
 13
0.000000
 23
0.141421
 33
1.741421
  0
3DFACE
  8
2/head
 10
0.000000
 20
0.000000
 30
1.800000
 11
-0.141421
 21
0.000000
 31
1.741421
 12
-0.099188
 22
-0.141421
 32
1.699188
 13
-0.099188
 23
-0.141421
 33
1.699188
  0
3DFACE
  8
2/head
 10
-0.099188
 20
-0.141421
 30
1.699188
 11
0.000000
 21
-0.141421
 31
1.741421
 12
0.000000
 22
0.000000
 32
1.800000
 13
0.000000
 23
0.000000
 33
1.800000
  0
3DFACE
  8
2/head
 10
0.000000
 20
-0.200000
 30
1.600000
 11
0.000000
 21
-0.141421
 31
1.741421
 12
-0.099188
 22
-0.141421
 32
1.699188
 13
-0.099188
 23
-0.141421
 33
1.699188
  0
3DFACE
  8
2/head
 10
0.099188
 20
0.141421
 30
1.699188
 11
0.000000
 21
0.200000
 31
1.600000
 12
0.000000
 22
0.141421
 32
1.741421
 13
0.000000
 23
0.141421
 33
1.741421
  0
3DFACE
  8
2/head
 10
0.099188
 20
0.141421
 30
1.699188
 11
0.000000
 21
0.141421
 31
1.741421
 12
0.000000
 22
0.000000
 32
1.800000
 13
0.000000
 23
0.000000
 33
1.800000
  0
3DFACE
  8
2/head
 10
0.000000
 20
0.000000
 30
1.800000
 11
0.141421
 21
0.000000
 31
1.741421
 12
0.099188
 22
0.141421
 32
1.699188
 13
0.099188
 23
0.141421
 33
1.699188
  0
3DFACE
  8
2/head
 10
0.141421
 20
0.000000
 30
1.741421
 11
0.000000
 21
0.000000
 31
1.800000
 12
0.000000
 22
-0.141421
 32
1.741421
 13
0.000000
 23
-0.141421
 33
1.741421
  0
3DFACE
  8
2/head
 10
0.000000
 20
-0.141421
 30
1.741421
 11
0.099188
 21
-0.141421
 31
1.699188
 12
0.141421
 22
0.000000
 32
1.741421
 13
0.141421
 23
0.000000
 33
1.741421
  0
3DFACE
  8
2/head
 10
0.000000
 20
-0.200000
 30
1.600000
 11
0.099188
 21
-0.141421
 31
1.699188
 12
0.000000
 22
-0.141421
 32
1.741421
 13
0.000000
 23
-0.141421
 33
1.741421
  0
3DFACE
  8
2/head
 10
0.141421
 20
0.141421
 30
1.600000
 11
0.000000
 21
0.200000
 31
1.600000
 12
0.099188
 22
0.141421
 32
1.699188
 13
0.099188
 23
0.141421
 33
1.699188
  0
3DFACE
  8
2/head
 10
0.141421
 20
0.141421
 30
1.600000
 11
0.099188
 21
0.141421
 31
1.699188
 12
0.141421
 22
0.000000
 32
1.741421
 13
0.141421
 23
0.000000
 33
1.741421
  0
3DFACE
  8
2/head
 10
0.141421
 20
0.000000
 30
1.741421
 11
0.200000
 21
0.000000
 31
1.600000
 12
0.141421
 22
0.141421
 32
1.600000
 13
0.141421
 23
0.141421
 33
1.600000
  0
3DFACE
  8
2/head
 10
0.200000
 20
0.000000
 30
1.600000
 11
0.141421
 21
0.000000
 31
1.741421
 12
0.099188
 22
-0.141421
 32
1.699188
 13
0.099188
 23
-0.141421
 33
1.699188
  0
3DFACE
  8
2/head
 10
0.099188
 20
-0.141421
 30
1.699188
 11
0.141421
 21
-0.141421
 31
1.600000
 12
0.200000
 22
0.000000
 32
1.600000
 13
0.200000
 23
0.000000
 33
1.600000
  0
3DFACE
  8
2/head
 10
0.000000
 20
-0.200000
 30
1.600000
 11
0.141421
 21
-0.141421
 31
1.600000
 12
0.099188
 22
-0.141421
 32
1.699188
 13
0.099188
 23
-0.141421
 33
1.699188
  0
3DFACE
  8
4/body
 10
-0.200000
 20
0.080000
 30
1.400000
 11
-0.200000
 21
0.080000
 31
0.800000
 12
-0.200000
 22
-0.080000
 32
0.800000
 13
-0.200000
 23
-0.080000
 33
0.800000
  0
3DFACE
  8
4/body
 10
-0.200000
 20
-0.080000
 30
1.400000
 11
-0.200000
 21
0.080000
 31
1.400000
 12
-0.200000
 22
-0.080000
 32
0.800000
 13
-0.200000
 23
-0.080000
 33
0.800000
  0
3DFACE
  8
4/body
 10
-0.200000
 20
-0.080000
 30
1.400000
 11
-0.200000
 21
-0.080000
 31
0.800000
 12
0.200000
 22
-0.080000
 32
0.800000
 13
0.200000
 23
-0.080000
 33
0.800000
  0
3DFACE
  8
4/body
 10
0.200000
 20
-0.080000
 30
1.400000
 11
-0.200000
 21
-0.080000
 31
1.400000
 12
0.200000
 22
-0.080000
 32
0.800000
 13
0.200000
 23
-0.080000
 33
0.800000
  0
3DFACE
  8
4/body
 10
-0.200000
 20
0.080000
 30
1.400000
 11
-0.200000
 21
-0.080000
 31
1.400000
 12
0.200000
 22
-0.080000
 32
1.400000
 13
0.200000
 23
-0.080000
 33
1.400000
  0
3DFACE
  8
4/body
 10
0.200000
 20
0.080000
 30
1.400000
 11
-0.200000
 21
0.080000
 31
1.400000
 12
0.200000
 22
-0.080000
 32
1.400000
 13
0.200000
 23
-0.080000
 33
1.400000
  0
3DFACE
  8
4/body
 10
-0.200000
 20
0.080000
 30
0.800000
 11
-0.200000
 21
0.080000
 31
1.400000
 12
0.200000
 22
0.080000
 32
1.400000
 13
0.200000
 23
0.080000
 33
1.400000
  0
3DFACE
  8
4/body
 10
0.200000
 20
0.080000
 30
0.800000
 11
-0.200000
 21
0.080000
 31
0.800000
 12
0.200000
 22
0.080000
 32
1.400000
 13
0.200000
 23
0.080000
 33
1.400000
  0
3DFACE
  8
4/body
 10
-0.200000
 20
-0.080000
 30
0.800000
 11
-0.200000
 21
0.080000
 31
0.800000
 12
0.200000
 22
0.080000
 32
0.800000
 13
0.200000
 23
0.080000
 33
0.800000
  0
3DFACE
  8
4/body
 10
0.200000
 20
-0.080000
 30
0.800000
 11
-0.200000
 21
-0.080000
 31
0.800000
 12
0.200000
 22
0.080000
 32
0.800000
 13
0.200000
 23
0.080000
 33
0.800000
  0
3DFACE
  8
4/body
 10
0.200000
 20
0.080000
 30
1.400000
 11
0.200000
 21
-0.080000
 31
1.400000
 12
0.200000
 22
-0.080000
 32
0.800000
 13
0.200000
 23
-0.080000
 33
0.800000
  0
3DFACE
  8
4/body
 10
0.200000
 20
0.080000
 30
0.800000
 11
0.200000
 21
0.080000
 31
1.400000
 12
0.200000
 22
-0.080000
 32
0.800000
 13
0.200000
 23
-0.080000
 33
0.800000
  0
3DFACE
  8
6/leg11
 10
-0.180000
 20
0.079015
 30
0.812515
 11
-0.180000
 21
0.141589
 31
0.417439
 12
-0.180000
 22
-0.016441
 32
0.392410
 13
-0.180000
 23
-0.016441
 33
0.392410
  0
3DFACE
  8
6/leg11
 10
-0.180000
 20
-0.079015
 30
0.787485
 11
-0.180000
 21
0.079015
 31
0.812515
 12
-0.180000
 22
-0.016441
 32
0.392410
 13
-0.180000
 23
-0.016441
 33
0.392410
  0
3DFACE
  8
6/leg11
 10
-0.180000
 20
-0.079015
 30
0.787485
 11
-0.180000
 21
-0.016441
 31
0.392410
 12
-0.020000
 22
-0.016441
 32
0.392410
 13
-0.020000
 23
-0.016441
 33
0.392410
  0
3DFACE
  8
6/leg11
 10
-0.020000
 20
-0.079015
 30
0.787485
 11
-0.180000
 21
-0.079015
 31
0.787485
 12
-0.020000
 22
-0.016441
 32
0.392410
 13
-0.020000
 23
-0.016441
 33
0.392410
  0
3DFACE
  8
6/leg11
 10
-0.180000
 20
0.079015
 30
0.812515
 11
-0.180000
 21
-0.079015
 31
0.787485
 12
-0.020000
 22
-0.079015
 32
0.787485
 13
-0.020000
 23
-0.079015
 33
0.787485
  0
3DFACE
  8
6/leg11
 10
-0.020000
 20
0.079015
 30
0.812515
 11
-0.180000
 21
0.079015
 31
0.812515
 12
-0.020000
 22
-0.079015
 32
0.787485
 13
-0.020000
 23
-0.079015
 33
0.787485
  0
3DFACE
  8
6/leg11
 10
-0.180000
 20
0.141589
 30
0.417439
 11
-0.180000
 21
0.079015
 31
0.812515
 12
-0.020000
 22
0.079015
 32
0.812515
 13
-0.020000
 23
0.079015
 33
0.812515
  0
3DFACE
  8
6/leg11
 10
-0.020000
 20
0.141589
 30
0.417439
 11
-0.180000
 21
0.141589
 31
0.417439
 12
-0.020000
 22
0.079015
 32
0.812515
 13
-0.020000
 23
0.079015
 33
0.812515
  0
3DFACE
  8
6/leg11
 10
-0.180000
 20
-0.016441
 30
0.392410
 11
-0.180000
 21
0.141589
 31
0.417439
 12
-0.020000
 22
0.141589
 32
0.417439
 13
-0.020000
 23
0.141589
 33
0.417439
  0
3DFACE
  8
6/leg11
 10
-0.020000
 20
-0.016441
 30
0.392410
 11
-0.180000
 21
-0.016441
 31
0.392410
 12
-0.020000
 22
0.141589
 32
0.417439
 13
-0.020000
 23
0.141589
 33
0.417439
  0
3DFACE
  8
6/leg11
 10
-0.020000
 20
0.079015
 30
0.812515
 11
-0.020000
 21
-0.079015
 31
0.787485
 12
-0.020000
 22
-0.016441
 32
0.392410
 13
-0.020000
 23
-0.016441
 33
0.392410
  0
3DFACE
  8
6/leg11
 10
-0.020000
 20
0.141589
 30
0.417439
 11
-0.020000
 21
0.079015
 31
0.812515
 12
-0.020000
 22
-0.016441
 32
0.392410
 13
-0.020000
 23
-0.016441
 33
0.392410
  0
3DFACE
  8
8/leg12
 10
-0.180000
 20
0.141589
 30
0.417439
 11
-0.180000
 21
0.204163
 31
0.022364
 12
-0.180000
 22
0.046133
 32
-0.002665
 13
-0.180000
 23
0.046133
 33
-0.002665
  0
3DFACE
  8
8/leg12
 10
-0.180000
 20
-0.016441
 30
0.392410
 11
-0.180000
 21
0.141589
 31
0.417439
 12
-0.180000
 22
0.046133
 32
-0.002665
 13
-0.180000
 23
0.046133
 33
-0.002665
  0
3DFACE
  8
8/leg12
 10
-0.180000
 20
-0.016441
 30
0.392410
 11
-0.180000
 21
0.046133
 31
-0.002665
 12
-0.020000
 22
0.046133
 32
-0.002665
 13
-0.020000
 23
0.046133
 33
-0.002665
  0
3DFACE
  8
8/leg12
 10
-0.020000
 20
-0.016441
 30
0.392410
 11
-0.180000
 21
-0.016441
 31
0.392410
 12
-0.020000
 22
0.046133
 32
-0.002665
 13
-0.020000
 23
0.046133
 33
-0.002665
  0
3DFACE
  8
8/leg12
 10
-0.180000
 20
0.141589
 30
0.417439
 11
-0.180000
 21
-0.016441
 31
0.392410
 12
-0.020000
 22
-0.016441
 32
0.392410
 13
-0.020000
 23
-0.016441
 33
0.392410
  0
3DFACE
  8
8/leg12
 10
-0.020000
 20
0.141589
 30
0.417439
 11
-0.180000
 21
0.141589
 31
0.417439
 12
-0.020000
 22
-0.016441
 32
0.392410
 13
-0.020000
 23
-0.016441
 33
0.392410
  0
3DFACE
  8
8/leg12
 10
-0.180000
 20
0.204163
 30
0.022364
 11
-0.180000
 21
0.141589
 31
0.417439
 12
-0.020000
 22
0.141589
 32
0.417439
 13
-0.020000
 23
0.141589
 33
0.417439
  0
3DFACE
  8
8/leg12
 10
-0.020000
 20
0.204163
 30
0.022364
 11
-0.180000
 21
0.204163
 31
0.022364
 12
-0.020000
 22
0.141589
 32
0.417439
 13
-0.020000
 23
0.141589
 33
0.417439
  0
3DFACE
  8
8/leg12
 10
-0.180000
 20
0.046133
 30
-0.002665
 11
-0.180000
 21
0.204163
 31
0.022364
 12
-0.020000
 22
0.204163
 32
0.022364
 13
-0.020000
 23
0.204163
 33
0.022364
  0
3DFACE
  8
8/leg12
 10
-0.020000
 20
0.046133
 30
-0.002665
 11
-0.180000
 21
0.046133
 31
-0.002665
 12
-0.020000
 22
0.204163
 32
0.022364
 13
-0.020000
 23
0.204163
 33
0.022364
  0
3DFACE
  8
8/leg12
 10
-0.020000
 20
0.141589
 30
0.417439
 11
-0.020000
 21
-0.016441
 31
0.392410
 12
-0.020000
 22
0.046133
 32
-0.002665
 13
-0.020000
 23
0.046133
 33
-0.002665
  0
3DFACE
  8
8/leg12
 10
-0.020000
 20
0.204163
 30
0.022364
 11
-0.020000
 21
0.141589
 31
0.417439
 12
-0.020000
 22
0.046133
 32
-0.002665
 13
-0.020000
 23
0.046133
 33
-0.002665
  0
3DFACE
  8
10/leg21
 10
0.180000
 20
0.016441
 30
0.392410
 11
0.180000
 21
0.079015
 31
0.787485
 12
0.180000
 22
-0.141589
 32
0.417439
 13
0.180000
 23
-0.141589
 33
0.417439
  0
3DFACE
  8
10/leg21
 10
0.180000
 20
0.079015
 30
0.787485
 11
0.180000
 21
-0.079015
 31
0.812515
 12
0.180000
 22
-0.141589
 32
0.417439
 13
0.180000
 23
-0.141589
 33
0.417439
  0
3DFACE
  8
10/leg21
 10
0.180000
 20
-0.141589
 30
0.417439
 11
0.180000
 21
-0.079015
 31
0.812515
 12
0.020000
 22
-0.141589
 32
0.417439
 13
0.020000
 23
-0.141589
 33
0.417439
  0
3DFACE
  8
10/leg21
 10
0.180000
 20
-0.079015
 30
0.812515
 11
0.020000
 21
-0.079015
 31
0.812515
 12
0.020000
 22
-0.141589
 32
0.417439
 13
0.020000
 23
-0.141589
 33
0.417439
  0
3DFACE
  8
10/leg21
 10
0.180000
 20
-0.079015
 30
0.812515
 11
0.180000
 21
0.079015
 31
0.787485
 12
0.020000
 22
-0.079015
 32
0.812515
 13
0.020000
 23
-0.079015
 33
0.812515
  0
3DFACE
  8
10/leg21
 10
0.180000
 20
0.079015
 30
0.787485
 11
0.020000
 21
0.079015
 31
0.787485
 12
0.020000
 22
-0.079015
 32
0.812515
 13
0.020000
 23
-0.079015
 33
0.812515
  0
3DFACE
  8
10/leg21
 10
0.180000
 20
0.079015
 30
0.787485
 11
0.180000
 21
0.016441
 31
0.392410
 12
0.020000
 22
0.079015
 32
0.787485
 13
0.020000
 23
0.079015
 33
0.787485
  0
3DFACE
  8
10/leg21
 10
0.180000
 20
0.016441
 30
0.392410
 11
0.020000
 21
0.016441
 31
0.392410
 12
0.020000
 22
0.079015
 32
0.787485
 13
0.020000
 23
0.079015
 33
0.787485
  0
3DFACE
  8
10/leg21
 10
0.180000
 20
0.016441
 30
0.392410
 11
0.180000
 21
-0.141589
 31
0.417439
 12
0.020000
 22
0.016441
 32
0.392410
 13
0.020000
 23
0.016441
 33
0.392410
  0
3DFACE
  8
10/leg21
 10
0.180000
 20
-0.141589
 30
0.417439
 11
0.020000
 21
-0.141589
 31
0.417439
 12
0.020000
 22
0.016441
 32
0.392410
 13
0.020000
 23
0.016441
 33
0.392410
  0
3DFACE
  8
10/leg21
 10
0.020000
 20
-0.079015
 30
0.812515
 11
0.020000
 21
0.079015
 31
0.787485
 12
0.020000
 22
-0.141589
 32
0.417439
 13
0.020000
 23
-0.141589
 33
0.417439
  0
3DFACE
  8
10/leg21
 10
0.020000
 20
0.079015
 30
0.787485
 11
0.020000
 21
0.016441
 31
0.392410
 12
0.020000
 22
-0.141589
 32
0.417439
 13
0.020000
 23
-0.141589
 33
0.417439
  0
3DFACE
  8
12/leg22
 10
0.180000
 20
-0.046133
 30
-0.002665
 11
0.180000
 21
0.016441
 31
0.392410
 12
0.180000
 22
-0.204163
 32
0.022364
 13
0.180000
 23
-0.204163
 33
0.022364
  0
3DFACE
  8
12/leg22
 10
0.180000
 20
0.016441
 30
0.392410
 11
0.180000
 21
-0.141589
 31
0.417439
 12
0.180000
 22
-0.204163
 32
0.022364
 13
0.180000
 23
-0.204163
 33
0.022364
  0
3DFACE
  8
12/leg22
 10
0.180000
 20
-0.204163
 30
0.022364
 11
0.180000
 21
-0.141589
 31
0.417439
 12
0.020000
 22
-0.204163
 32
0.022364
 13
0.020000
 23
-0.204163
 33
0.022364
  0
3DFACE
  8
12/leg22
 10
0.180000
 20
-0.141589
 30
0.417439
 11
0.020000
 21
-0.141589
 31
0.417439
 12
0.020000
 22
-0.204163
 32
0.022364
 13
0.020000
 23
-0.204163
 33
0.022364
  0
3DFACE
  8
12/leg22
 10
0.180000
 20
-0.141589
 30
0.417439
 11
0.180000
 21
0.016441
 31
0.392410
 12
0.020000
 22
-0.141589
 32
0.417439
 13
0.020000
 23
-0.141589
 33
0.417439
  0
3DFACE
  8
12/leg22
 10
0.180000
 20
0.016441
 30
0.392410
 11
0.020000
 21
0.016441
 31
0.392410
 12
0.020000
 22
-0.141589
 32
0.417439
 13
0.020000
 23
-0.141589
 33
0.417439
  0
3DFACE
  8
12/leg22
 10
0.180000
 20
0.016441
 30
0.392410
 11
0.180000
 21
-0.046133
 31
-0.002665
 12
0.020000
 22
0.016441
 32
0.392410
 13
0.020000
 23
0.016441
 33
0.392410
  0
3DFACE
  8
12/leg22
 10
0.180000
 20
-0.046133
 30
-0.002665
 11
0.020000
 21
-0.046133
 31
-0.002665
 12
0.020000
 22
0.016441
 32
0.392410
 13
0.020000
 23
0.016441
 33
0.392410
  0
3DFACE
  8
12/leg22
 10
0.180000
 20
-0.046133
 30
-0.002665
 11
0.180000
 21
-0.204163
 31
0.022364
 12
0.020000
 22
-0.046133
 32
-0.002665
 13
0.020000
 23
-0.046133
 33
-0.002665
  0
3DFACE
  8
12/leg22
 10
0.180000
 20
-0.204163
 30
0.022364
 11
0.020000
 21
-0.204163
 31
0.022364
 12
0.020000
 22
-0.046133
 32
-0.002665
 13
0.020000
 23
-0.046133
 33
-0.002665
  0
3DFACE
  8
12/leg22
 10
0.020000
 20
-0.141589
 30
0.417439
 11
0.020000
 21
0.016441
 31
0.392410
 12
0.020000
 22
-0.204163
 32
0.022364
 13
0.020000
 23
-0.204163
 33
0.022364
  0
3DFACE
  8
12/leg22
 10
0.020000
 20
0.016441
 30
0.392410
 11
0.020000
 21
-0.046133
 31
-0.002665
 12
0.020000
 22
-0.204163
 32
0.022364
 13
0.020000
 23
-0.204163
 33
0.022364
  0
3DFACE
  8
14/arm11
 10
0.360000
 20
0.141589
 30
0.977440
 11
0.360000
 21
0.079015
 31
1.372515
 12
0.360000
 22
-0.016441
 32
0.952410
 13
0.360000
 23
-0.016441
 33
0.952410
  0
3DFACE
  8
14/arm11
 10
0.360000
 20
0.079015
 30
1.372515
 11
0.360000
 21
-0.079015
 31
1.347485
 12
0.360000
 22
-0.016441
 32
0.952410
 13
0.360000
 23
-0.016441
 33
0.952410
  0
3DFACE
  8
14/arm11
 10
0.360000
 20
-0.016441
 30
0.952410
 11
0.360000
 21
-0.079015
 31
1.347485
 12
0.200000
 22
-0.016441
 32
0.952410
 13
0.200000
 23
-0.016441
 33
0.952410
  0
3DFACE
  8
14/arm11
 10
0.360000
 20
-0.079015
 30
1.347485
 11
0.200000
 21
-0.079015
 31
1.347485
 12
0.200000
 22
-0.016441
 32
0.952410
 13
0.200000
 23
-0.016441
 33
0.952410
  0
3DFACE
  8
14/arm11
 10
0.360000
 20
-0.079015
 30
1.347485
 11
0.360000
 21
0.079015
 31
1.372515
 12
0.200000
 22
-0.079015
 32
1.347485
 13
0.200000
 23
-0.079015
 33
1.347485
  0
3DFACE
  8
14/arm11
 10
0.360000
 20
0.079015
 30
1.372515
 11
0.200000
 21
0.079015
 31
1.372515
 12
0.200000
 22
-0.079015
 32
1.347485
 13
0.200000
 23
-0.079015
 33
1.347485
  0
3DFACE
  8
14/arm11
 10
0.360000
 20
0.079015
 30
1.372515
 11
0.360000
 21
0.141589
 31
0.977440
 12
0.200000
 22
0.079015
 32
1.372515
 13
0.200000
 23
0.079015
 33
1.372515
  0
3DFACE
  8
14/arm11
 10
0.360000
 20
0.141589
 30
0.977440
 11
0.200000
 21
0.141589
 31
0.977440
 12
0.200000
 22
0.079015
 32
1.372515
 13
0.200000
 23
0.079015
 33
1.372515
  0
3DFACE
  8
14/arm11
 10
0.360000
 20
0.141589
 30
0.977440
 11
0.360000
 21
-0.016441
 31
0.952410
 12
0.200000
 22
0.141589
 32
0.977440
 13
0.200000
 23
0.141589
 33
0.977440
  0
3DFACE
  8
14/arm11
 10
0.360000
 20
-0.016441
 30
0.952410
 11
0.200000
 21
-0.016441
 31
0.952410
 12
0.200000
 22
0.141589
 32
0.977440
 13
0.200000
 23
0.141589
 33
0.977440
  0
3DFACE
  8
14/arm11
 10
0.200000
 20
-0.079015
 30
1.347485
 11
0.200000
 21
0.079015
 31
1.372515
 12
0.200000
 22
-0.016441
 32
0.952410
 13
0.200000
 23
-0.016441
 33
0.952410
  0
3DFACE
  8
14/arm11
 10
0.200000
 20
0.079015
 30
1.372515
 11
0.200000
 21
0.141589
 31
0.977440
 12
0.200000
 22
-0.016441
 32
0.952410
 13
0.200000
 23
-0.016441
 33
0.952410
  0
3DFACE
  8
16/arm12
 10
0.360000
 20
0.204163
 30
0.582364
 11
0.360000
 21
0.141589
 31
0.977440
 12
0.360000
 22
0.046133
 32
0.557335
 13
0.360000
 23
0.046133
 33
0.557335
  0
3DFACE
  8
16/arm12
 10
0.360000
 20
0.141589
 30
0.977440
 11
0.360000
 21
-0.016441
 31
0.952410
 12
0.360000
 22
0.046133
 32
0.557335
 13
0.360000
 23
0.046133
 33
0.557335
  0
3DFACE
  8
16/arm12
 10
0.360000
 20
0.046133
 30
0.557335
 11
0.360000
 21
-0.016441
 31
0.952410
 12
0.200000
 22
0.046133
 32
0.557335
 13
0.200000
 23
0.046133
 33
0.557335
  0
3DFACE
  8
16/arm12
 10
0.360000
 20
-0.016441
 30
0.952410
 11
0.200000
 21
-0.016441
 31
0.952410
 12
0.200000
 22
0.046133
 32
0.557335
 13
0.200000
 23
0.046133
 33
0.557335
  0
3DFACE
  8
16/arm12
 10
0.360000
 20
-0.016441
 30
0.952410
 11
0.360000
 21
0.141589
 31
0.977440
 12
0.200000
 22
-0.016441
 32
0.952410
 13
0.200000
 23
-0.016441
 33
0.952410
  0
3DFACE
  8
16/arm12
 10
0.360000
 20
0.141589
 30
0.977440
 11
0.200000
 21
0.141589
 31
0.977440
 12
0.200000
 22
-0.016441
 32
0.952410
 13
0.200000
 23
-0.016441
 33
0.952410
  0
3DFACE
  8
16/arm12
 10
0.360000
 20
0.141589
 30
0.977440
 11
0.360000
 21
0.204163
 31
0.582364
 12
0.200000
 22
0.141589
 32
0.977440
 13
0.200000
 23
0.141589
 33
0.977440
  0
3DFACE
  8
16/arm12
 10
0.360000
 20
0.204163
 30
0.582364
 11
0.200000
 21
0.204163
 31
0.582364
 12
0.200000
 22
0.141589
 32
0.977440
 13
0.200000
 23
0.141589
 33
0.977440
  0
3DFACE
  8
16/arm12
 10
0.360000
 20
0.204163
 30
0.582364
 11
0.360000
 21
0.046133
 31
0.557335
 12
0.200000
 22
0.204163
 32
0.582364
 13
0.200000
 23
0.204163
 33
0.582364
  0
3DFACE
  8
16/arm12
 10
0.360000
 20
0.046133
 30
0.557335
 11
0.200000
 21
0.046133
 31
0.557335
 12
0.200000
 22
0.204163
 32
0.582364
 13
0.200000
 23
0.204163
 33
0.582364
  0
3DFACE
  8
16/arm12
 10
0.200000
 20
-0.016441
 30
0.952410
 11
0.200000
 21
0.141589
 31
0.977440
 12
0.200000
 22
0.046133
 32
0.557335
 13
0.200000
 23
0.046133
 33
0.557335
  0
3DFACE
  8
16/arm12
 10
0.200000
 20
0.141589
 30
0.977440
 11
0.200000
 21
0.204163
 31
0.582364
 12
0.200000
 22
0.046133
 32
0.557335
 13
0.200000
 23
0.046133
 33
0.557335
  0
3DFACE
  8
18/arm21
 10
-0.360000
 20
0.079015
 30
1.347485
 11
-0.360000
 21
0.016441
 31
0.952410
 12
-0.360000
 22
-0.141589
 32
0.977440
 13
-0.360000
 23
-0.141589
 33
0.977440
  0
3DFACE
  8
18/arm21
 10
-0.360000
 20
-0.079015
 30
1.372515
 11
-0.360000
 21
0.079015
 31
1.347485
 12
-0.360000
 22
-0.141589
 32
0.977440
 13
-0.360000
 23
-0.141589
 33
0.977440
  0
3DFACE
  8
18/arm21
 10
-0.360000
 20
-0.079015
 30
1.372515
 11
-0.360000
 21
-0.141589
 31
0.977440
 12
-0.200000
 22
-0.141589
 32
0.977440
 13
-0.200000
 23
-0.141589
 33
0.977440
  0
3DFACE
  8
18/arm21
 10
-0.200000
 20
-0.079015
 30
1.372515
 11
-0.360000
 21
-0.079015
 31
1.372515
 12
-0.200000
 22
-0.141589
 32
0.977440
 13
-0.200000
 23
-0.141589
 33
0.977440
  0
3DFACE
  8
18/arm21
 10
-0.360000
 20
0.079015
 30
1.347485
 11
-0.360000
 21
-0.079015
 31
1.372515
 12
-0.200000
 22
-0.079015
 32
1.372515
 13
-0.200000
 23
-0.079015
 33
1.372515
  0
3DFACE
  8
18/arm21
 10
-0.200000
 20
0.079015
 30
1.347485
 11
-0.360000
 21
0.079015
 31
1.347485
 12
-0.200000
 22
-0.079015
 32
1.372515
 13
-0.200000
 23
-0.079015
 33
1.372515
  0
3DFACE
  8
18/arm21
 10
-0.360000
 20
0.016441
 30
0.952410
 11
-0.360000
 21
0.079015
 31
1.347485
 12
-0.200000
 22
0.079015
 32
1.347485
 13
-0.200000
 23
0.079015
 33
1.347485
  0
3DFACE
  8
18/arm21
 10
-0.200000
 20
0.016441
 30
0.952410
 11
-0.360000
 21
0.016441
 31
0.952410
 12
-0.200000
 22
0.079015
 32
1.347485
 13
-0.200000
 23
0.079015
 33
1.347485
  0
3DFACE
  8
18/arm21
 10
-0.360000
 20
-0.141589
 30
0.977440
 11
-0.360000
 21
0.016441
 31
0.952410
 12
-0.200000
 22
0.016441
 32
0.952410
 13
-0.200000
 23
0.016441
 33
0.952410
  0
3DFACE
  8
18/arm21
 10
-0.200000
 20
-0.141589
 30
0.977440
 11
-0.360000
 21
-0.141589
 31
0.977440
 12
-0.200000
 22
0.016441
 32
0.952410
 13
-0.200000
 23
0.016441
 33
0.952410
  0
3DFACE
  8
18/arm21
 10
-0.200000
 20
0.079015
 30
1.347485
 11
-0.200000
 21
-0.079015
 31
1.372515
 12
-0.200000
 22
-0.141589
 32
0.977440
 13
-0.200000
 23
-0.141589
 33
0.977440
  0
3DFACE
  8
18/arm21
 10
-0.200000
 20
0.016441
 30
0.952410
 11
-0.200000
 21
0.079015
 31
1.347485
 12
-0.200000
 22
-0.141589
 32
0.977440
 13
-0.200000
 23
-0.141589
 33
0.977440
  0
3DFACE
  8
20/arm22
 10
-0.360000
 20
0.016441
 30
0.952410
 11
-0.360000
 21
-0.046133
 31
0.557335
 12
-0.360000
 22
-0.204163
 32
0.582364
 13
-0.360000
 23
-0.204163
 33
0.582364
  0
3DFACE
  8
20/arm22
 10
-0.360000
 20
-0.141589
 30
0.977440
 11
-0.360000
 21
0.016441
 31
0.952410
 12
-0.360000
 22
-0.204163
 32
0.582364
 13
-0.360000
 23
-0.204163
 33
0.582364
  0
3DFACE
  8
20/arm22
 10
-0.360000
 20
-0.141589
 30
0.977440
 11
-0.360000
 21
-0.204163
 31
0.582364
 12
-0.200000
 22
-0.204163
 32
0.582364
 13
-0.200000
 23
-0.204163
 33
0.582364
  0
3DFACE
  8
20/arm22
 10
-0.200000
 20
-0.141589
 30
0.977440
 11
-0.360000
 21
-0.141589
 31
0.977440
 12
-0.200000
 22
-0.204163
 32
0.582364
 13
-0.200000
 23
-0.204163
 33
0.582364
  0
3DFACE
  8
20/arm22
 10
-0.360000
 20
0.016441
 30
0.952410
 11
-0.360000
 21
-0.141589
 31
0.977440
 12
-0.200000
 22
-0.141589
 32
0.977440
 13
-0.200000
 23
-0.141589
 33
0.977440
  0
3DFACE
  8
20/arm22
 10
-0.200000
 20
0.016441
 30
0.952410
 11
-0.360000
 21
0.016441
 31
0.952410
 12
-0.200000
 22
-0.141589
 32
0.977440
 13
-0.200000
 23
-0.141589
 33
0.977440
  0
3DFACE
  8
20/arm22
 10
-0.360000
 20
-0.046133
 30
0.557335
 11
-0.360000
 21
0.016441
 31
0.952410
 12
-0.200000
 22
0.016441
 32
0.952410
 13
-0.200000
 23
0.016441
 33
0.952410
  0
3DFACE
  8
20/arm22
 10
-0.200000
 20
-0.046133
 30
0.557335
 11
-0.360000
 21
-0.046133
 31
0.557335
 12
-0.200000
 22
0.016441
 32
0.952410
 13
-0.200000
 23
0.016441
 33
0.952410
  0
3DFACE
  8
20/arm22
 10
-0.360000
 20
-0.204163
 30
0.582364
 11
-0.360000
 21
-0.046133
 31
0.557335
 12
-0.200000
 22
-0.046133
 32
0.557335
 13
-0.200000
 23
-0.046133
 33
0.557335
  0
3DFACE
  8
20/arm22
 10
-0.200000
 20
-0.204163
 30
0.582364
 11
-0.360000
 21
-0.204163
 31
0.582364
 12
-0.200000
 22
-0.046133
 32
0.557335
 13
-0.200000
 23
-0.046133
 33
0.557335
  0
3DFACE
  8
20/arm22
 10
-0.200000
 20
0.016441
 30
0.952410
 11
-0.200000
 21
-0.141589
 31
0.977440
 12
-0.200000
 22
-0.204163
 32
0.582364
 13
-0.200000
 23
-0.204163
 33
0.582364
  0
3DFACE
  8
20/arm22
 10
-0.200000
 20
-0.046133
 30
0.557335
 11
-0.200000
 21
0.016441
 31
0.952410
 12
-0.200000
 22
-0.204163
 32
0.582364
 13
-0.200000
 23
-0.204163
 33
0.582364
  0
ENDSEC
  0
EOF
