  0
SECTION
  2
ENTITIES
  0
3DFACE
  8
1/ポリゴンメッシュ
 10
0.141421
 20
0.000000
 30
0.058579
 11
0.000000
 21
0.000000
 31
0.000000
 12
0.099188
 22
-0.099188
 32
0.058579
 13
0.099188
 23
-0.099188
 33
0.058579
  0
3DFACE
  8
1/ポリゴンメッシュ
 10
0.200000
 20
0.000000
 30
0.200000
 11
0.141421
 21
0.000000
 31
0.058579
 12
0.099188
 22
-0.099188
 32
0.058579
 13
0.099188
 23
-0.099188
 33
0.058579
  0
3DFACE
  8
1/ポリゴンメッシュ
 10
0.099188
 20
-0.099188
 30
0.058579
 11
0.141421
 21
-0.141421
 31
0.200000
 12
0.200000
 22
0.000000
 32
0.200000
 13
0.200000
 23
0.000000
 33
0.200000
  0
3DFACE
  8
1/ポリゴンメッシュ
 10
0.141421
 20
0.000000
 30
0.341421
 11
0.200000
 21
0.000000
 31
0.200000
 12
0.141421
 22
-0.141421
 32
0.200000
 13
0.141421
 23
-0.141421
 33
0.200000
  0
3DFACE
  8
1/ポリゴンメッシュ
 10
0.141421
 20
-0.141421
 30
0.200000
 11
0.099188
 21
-0.099188
 31
0.341421
 12
0.141421
 22
0.000000
 32
0.341421
 13
0.141421
 23
0.000000
 33
0.341421
  0
3DFACE
  8
1/ポリゴンメッシュ
 10
0.141421
 20
0.000000
 30
0.341421
 11
0.099188
 21
-0.099188
 31
0.341421
 12
0.000000
 22
0.000000
 32
0.400000
 13
0.000000
 23
0.000000
 33
0.400000
  0
3DFACE
  8
1/ポリゴンメッシュ
 10
0.099188
 20
-0.099188
 30
0.058579
 11
0.000000
 21
0.000000
 31
0.000000
 12
0.000000
 22
-0.141421
 32
0.058579
 13
0.000000
 23
-0.141421
 33
0.058579
  0
3DFACE
  8
1/ポリゴンメッシュ
 10
0.141421
 20
-0.141421
 30
0.200000
 11
0.099188
 21
-0.099188
 31
0.058579
 12
0.000000
 22
-0.141421
 32
0.058579
 13
0.000000
 23
-0.141421
 33
0.058579
  0
3DFACE
  8
1/ポリゴンメッシュ
 10
0.000000
 20
-0.141421
 30
0.058579
 11
0.000000
 21
-0.200000
 31
0.200000
 12
0.141421
 22
-0.141421
 32
0.200000
 13
0.141421
 23
-0.141421
 33
0.200000
  0
3DFACE
  8
1/ポリゴンメッシュ
 10
0.099188
 20
-0.099188
 30
0.341421
 11
0.141421
 21
-0.141421
 31
0.200000
 12
0.000000
 22
-0.200000
 32
0.200000
 13
0.000000
 23
-0.200000
 33
0.200000
  0
3DFACE
  8
1/ポリゴンメッシュ
 10
0.000000
 20
-0.200000
 30
0.200000
 11
0.000000
 21
-0.141421
 31
0.341421
 12
0.099188
 22
-0.099188
 32
0.341421
 13
0.099188
 23
-0.099188
 33
0.341421
  0
3DFACE
  8
1/ポリゴンメッシュ
 10
0.099188
 20
-0.099188
 30
0.341421
 11
0.000000
 21
-0.141421
 31
0.341421
 12
0.000000
 22
0.000000
 32
0.400000
 13
0.000000
 23
0.000000
 33
0.400000
  0
3DFACE
  8
1/ポリゴンメッシュ
 10
0.000000
 20
-0.141421
 30
0.058579
 11
0.000000
 21
0.000000
 31
0.000000
 12
-0.099188
 22
-0.099188
 32
0.058579
 13
-0.099188
 23
-0.099188
 33
0.058579
  0
3DFACE
  8
1/ポリゴンメッシュ
 10
0.000000
 20
-0.200000
 30
0.200000
 11
0.000000
 21
-0.141421
 31
0.058579
 12
-0.099188
 22
-0.099188
 32
0.058579
 13
-0.099188
 23
-0.099188
 33
0.058579
  0
3DFACE
  8
1/ポリゴンメッシュ
 10
-0.099188
 20
-0.099188
 30
0.058579
 11
-0.141421
 21
-0.141421
 31
0.200000
 12
0.000000
 22
-0.200000
 32
0.200000
 13
0.000000
 23
-0.200000
 33
0.200000
  0
3DFACE
  8
1/ポリゴンメッシュ
 10
0.000000
 20
-0.141421
 30
0.341421
 11
0.000000
 21
-0.200000
 31
0.200000
 12
-0.141421
 22
-0.141421
 32
0.200000
 13
-0.141421
 23
-0.141421
 33
0.200000
  0
3DFACE
  8
1/ポリゴンメッシュ
 10
-0.141421
 20
-0.141421
 30
0.200000
 11
-0.099188
 21
-0.099188
 31
0.341421
 12
0.000000
 22
-0.141421
 32
0.341421
 13
0.000000
 23
-0.141421
 33
0.341421
  0
3DFACE
  8
1/ポリゴンメッシュ
 10
0.000000
 20
-0.141421
 30
0.341421
 11
-0.099188
 21
-0.099188
 31
0.341421
 12
0.000000
 22
0.000000
 32
0.400000
 13
0.000000
 23
0.000000
 33
0.400000
  0
3DFACE
  8
1/ポリゴンメッシュ
 10
-0.099188
 20
-0.099188
 30
0.058579
 11
0.000000
 21
0.000000
 31
0.000000
 12
-0.141421
 22
-0.000000
 32
0.058579
 13
-0.141421
 23
-0.000000
 33
0.058579
  0
3DFACE
  8
1/ポリゴンメッシュ
 10
-0.141421
 20
-0.141421
 30
0.200000
 11
-0.099188
 21
-0.099188
 31
0.058579
 12
-0.141421
 22
-0.000000
 32
0.058579
 13
-0.141421
 23
-0.000000
 33
0.058579
  0
3DFACE
  8
1/ポリゴンメッシュ
 10
-0.141421
 20
-0.000000
 30
0.058579
 11
-0.200000
 21
-0.000000
 31
0.200000
 12
-0.141421
 22
-0.141421
 32
0.200000
 13
-0.141421
 23
-0.141421
 33
0.200000
  0
3DFACE
  8
1/ポリゴンメッシュ
 10
-0.099188
 20
-0.099188
 30
0.341421
 11
-0.141421
 21
-0.141421
 31
0.200000
 12
-0.200000
 22
-0.000000
 32
0.200000
 13
-0.200000
 23
-0.000000
 33
0.200000
  0
3DFACE
  8
1/ポリゴンメッシュ
 10
-0.200000
 20
-0.000000
 30
0.200000
 11
-0.141421
 21
-0.000000
 31
0.341421
 12
-0.099188
 22
-0.099188
 32
0.341421
 13
-0.099188
 23
-0.099188
 33
0.341421
  0
3DFACE
  8
1/ポリゴンメッシュ
 10
-0.099188
 20
-0.099188
 30
0.341421
 11
-0.141421
 21
-0.000000
 31
0.341421
 12
0.000000
 22
0.000000
 32
0.400000
 13
0.000000
 23
0.000000
 33
0.400000
  0
3DFACE
  8
1/ポリゴンメッシュ
 10
-0.141421
 20
-0.000000
 30
0.058579
 11
0.000000
 21
0.000000
 31
0.000000
 12
-0.099188
 22
0.099188
 32
0.058579
 13
-0.099188
 23
0.099188
 33
0.058579
  0
3DFACE
  8
1/ポリゴンメッシュ
 10
-0.200000
 20
-0.000000
 30
0.200000
 11
-0.141421
 21
-0.000000
 31
0.058579
 12
-0.099188
 22
0.099188
 32
0.058579
 13
-0.099188
 23
0.099188
 33
0.058579
  0
3DFACE
  8
1/ポリゴンメッシュ
 10
-0.099188
 20
0.099188
 30
0.058579
 11
-0.141421
 21
0.141421
 31
0.200000
 12
-0.200000
 22
-0.000000
 32
0.200000
 13
-0.200000
 23
-0.000000
 33
0.200000
  0
3DFACE
  8
1/ポリゴンメッシュ
 10
-0.141421
 20
-0.000000
 30
0.341421
 11
-0.200000
 21
-0.000000
 31
0.200000
 12
-0.141421
 22
0.141421
 32
0.200000
 13
-0.141421
 23
0.141421
 33
0.200000
  0
3DFACE
  8
1/ポリゴンメッシュ
 10
-0.141421
 20
0.141421
 30
0.200000
 11
-0.099188
 21
0.099188
 31
0.341421
 12
-0.141421
 22
-0.000000
 32
0.341421
 13
-0.141421
 23
-0.000000
 33
0.341421
  0
3DFACE
  8
1/ポリゴンメッシュ
 10
-0.141421
 20
-0.000000
 30
0.341421
 11
-0.099188
 21
0.099188
 31
0.341421
 12
0.000000
 22
0.000000
 32
0.400000
 13
0.000000
 23
0.000000
 33
0.400000
  0
3DFACE
  8
1/ポリゴンメッシュ
 10
-0.099188
 20
0.099188
 30
0.058579
 11
0.000000
 21
0.000000
 31
0.000000
 12
-0.000000
 22
0.141421
 32
0.058579
 13
-0.000000
 23
0.141421
 33
0.058579
  0
3DFACE
  8
1/ポリゴンメッシュ
 10
-0.141421
 20
0.141421
 30
0.200000
 11
-0.099188
 21
0.099188
 31
0.058579
 12
-0.000000
 22
0.141421
 32
0.058579
 13
-0.000000
 23
0.141421
 33
0.058579
  0
3DFACE
  8
1/ポリゴンメッシュ
 10
-0.000000
 20
0.141421
 30
0.058579
 11
-0.000000
 21
0.200000
 31
0.200000
 12
-0.141421
 22
0.141421
 32
0.200000
 13
-0.141421
 23
0.141421
 33
0.200000
  0
3DFACE
  8
1/ポリゴンメッシュ
 10
-0.099188
 20
0.099188
 30
0.341421
 11
-0.141421
 21
0.141421
 31
0.200000
 12
-0.000000
 22
0.200000
 32
0.200000
 13
-0.000000
 23
0.200000
 33
0.200000
  0
3DFACE
  8
1/ポリゴンメッシュ
 10
-0.000000
 20
0.200000
 30
0.200000
 11
-0.000000
 21
0.141421
 31
0.341421
 12
-0.099188
 22
0.099188
 32
0.341421
 13
-0.099188
 23
0.099188
 33
0.341421
  0
3DFACE
  8
1/ポリゴンメッシュ
 10
-0.099188
 20
0.099188
 30
0.341421
 11
-0.000000
 21
0.141421
 31
0.341421
 12
0.000000
 22
0.000000
 32
0.400000
 13
0.000000
 23
0.000000
 33
0.400000
  0
3DFACE
  8
1/ポリゴンメッシュ
 10
-0.000000
 20
0.141421
 30
0.058579
 11
0.000000
 21
0.000000
 31
0.000000
 12
0.099188
 22
0.099188
 32
0.058579
 13
0.099188
 23
0.099188
 33
0.058579
  0
3DFACE
  8
1/ポリゴンメッシュ
 10
-0.000000
 20
0.200000
 30
0.200000
 11
-0.000000
 21
0.141421
 31
0.058579
 12
0.099188
 22
0.099188
 32
0.058579
 13
0.099188
 23
0.099188
 33
0.058579
  0
3DFACE
  8
1/ポリゴンメッシュ
 10
0.099188
 20
0.099188
 30
0.058579
 11
0.141421
 21
0.141421
 31
0.200000
 12
-0.000000
 22
0.200000
 32
0.200000
 13
-0.000000
 23
0.200000
 33
0.200000
  0
3DFACE
  8
1/ポリゴンメッシュ
 10
-0.000000
 20
0.141421
 30
0.341421
 11
-0.000000
 21
0.200000
 31
0.200000
 12
0.141421
 22
0.141421
 32
0.200000
 13
0.141421
 23
0.141421
 33
0.200000
  0
3DFACE
  8
1/ポリゴンメッシュ
 10
0.141421
 20
0.141421
 30
0.200000
 11
0.099188
 21
0.099188
 31
0.341421
 12
-0.000000
 22
0.141421
 32
0.341421
 13
-0.000000
 23
0.141421
 33
0.341421
  0
3DFACE
  8
1/ポリゴンメッシュ
 10
-0.000000
 20
0.141421
 30
0.341421
 11
0.099188
 21
0.099188
 31
0.341421
 12
0.000000
 22
0.000000
 32
0.400000
 13
0.000000
 23
0.000000
 33
0.400000
  0
3DFACE
  8
1/ポリゴンメッシュ
 10
0.099188
 20
0.099188
 30
0.058579
 11
0.000000
 21
0.000000
 31
0.000000
 12
0.141421
 22
0.000000
 32
0.058579
 13
0.141421
 23
0.000000
 33
0.058579
  0
3DFACE
  8
1/ポリゴンメッシュ
 10
0.141421
 20
0.141421
 30
0.200000
 11
0.099188
 21
0.099188
 31
0.058579
 12
0.141421
 22
0.000000
 32
0.058579
 13
0.141421
 23
0.000000
 33
0.058579
  0
3DFACE
  8
1/ポリゴンメッシュ
 10
0.141421
 20
0.000000
 30
0.058579
 11
0.200000
 21
0.000000
 31
0.200000
 12
0.141421
 22
0.141421
 32
0.200000
 13
0.141421
 23
0.141421
 33
0.200000
  0
3DFACE
  8
1/ポリゴンメッシュ
 10
0.099188
 20
0.099188
 30
0.341421
 11
0.141421
 21
0.141421
 31
0.200000
 12
0.200000
 22
0.000000
 32
0.200000
 13
0.200000
 23
0.000000
 33
0.200000
  0
3DFACE
  8
1/ポリゴンメッシュ
 10
0.200000
 20
0.000000
 30
0.200000
 11
0.141421
 21
0.000000
 31
0.341421
 12
0.099188
 22
0.099188
 32
0.341421
 13
0.099188
 23
0.099188
 33
0.341421
  0
3DFACE
  8
1/ポリゴンメッシュ
 10
0.099188
 20
0.099188
 30
0.341421
 11
0.141421
 21
0.000000
 31
0.341421
 12
0.000000
 22
0.000000
 32
0.400000
 13
0.000000
 23
0.000000
 33
0.400000
  0
ENDSEC
  0
EOF
